<?xml version="1.0" encoding="UTF-8"?>
<svg id="_Слой_10" data-name="Слой 10" xmlns="http://www.w3.org/2000/svg" viewBox="0 0 1000 1000">
  <path d="M320.19,660.29c-9.4-.35-18.78-1.39-27.86-3.94-8.6-2.41-16.67-6.16-24.53-10.36-8.41-4.49-16.57-9.52-23.96-15.57s-14.05-13.12-19.78-20.8c-10.79-14.46-18.13-31.16-22.32-48.67-4.31-17.99-5.41-36.61-4.88-55.05s2.81-35.72,8.25-52.74c5.36-16.77,13.92-32.49,25.91-45.45,8.25-8.92,17.94-16.07,28.26-22.4,12.94-7.94,26.76-14.57,41.16-19.42,16.25-5.47,33.46-8.7,50.65-7.74,18.6,1.04,36.05,8.03,52.34,16.75,13.84,7.41,26.74,16.66,37.71,27.92,8.43,8.65,15.67,18.46,21.3,29.16,4.17,7.92,7.44,16.3,9.67,24.97,4.63,18,6.8,36.65,6.65,55.23s-2.69,37.65-8.1,55.69c-4.96,16.56-12.35,32.79-23.05,46.46-9.29,11.87-20.98,21.7-34,29.24-13.91,8.06-29.21,13.51-44.92,16.81-17.45,3.67-35.41,4.68-53.19,3.7-9.26-.51-18.56-1.38-27.59-3.59s-17.64-5.48-25.85-9.69c-8.14-4.18-15.85-9.26-22.75-15.28-6.44-5.62-11.91-12.06-16.73-19.1-9.36-13.66-16.52-28.81-21.86-44.46-5.76-16.88-9.45-34.52-10.74-52.32-1.3-17.86-.2-35.98,4.19-53.37,2.18-8.66,5.26-17.04,8.95-25.16,3.17-6.97,6.9-13.68,11.46-19.85s9.97-11.83,15.48-17.25c5.83-5.74,11.76-11.27,18.51-15.93,12.79-8.83,27.29-14.97,42.27-18.97,15.14-4.04,30.86-5.95,46.52-5.85,14.31,.09,28.74,1.81,42.48,5.89,14.06,4.17,26.55,11.57,38.36,20.16,14.09,10.25,26.9,22.53,36.92,36.84,9.66,13.79,16.61,29.51,19.17,46.21,1.33,8.7,1.21,17.55,1.15,26.33-.06,8.96-.36,17.93-1.01,26.87-1.26,17.39-3.84,34.76-8.84,51.49s-12.02,31.59-22.17,45.08c-10.13,13.45-23.03,24.93-38.14,32.47-14.64,7.31-30.81,11.4-46.99,13.4-15.16,1.87-30.62,1.99-45.79,.21-13.5-1.58-26.5-4.95-38.59-11.27-14.69-7.68-27.74-18.45-38.66-30.87-11.6-13.2-20.84-28.5-26.72-45.08-.32-.9-1.77-.51-1.45,.4,6.12,17.26,15.81,33.14,28.02,46.77,11.12,12.41,24.4,23.17,39.29,30.72,12.21,6.19,25.29,9.39,38.83,10.92,15.58,1.76,31.43,1.54,46.97-.54,16.22-2.17,32.36-6.42,46.96-13.92,15.06-7.74,27.88-19.44,37.96-32.98,10.2-13.7,17.37-29.42,22.18-45.76,5.01-17.04,7.53-34.74,8.74-52.43,.62-9.11,.89-18.23,.92-27.36s.01-17.65-1.46-26.38c-2.86-16.92-10.22-32.81-20.23-46.67s-23.08-26.26-37.22-36.42c-6.69-4.8-13.7-9.39-21.06-13.11-5.71-2.88-11.75-5.12-17.89-6.87-14.03-4.01-28.75-5.64-43.31-5.6-15.81,.04-31.67,2.11-46.91,6.34-15.16,4.21-29.85,10.64-42.67,19.83-6.71,4.81-12.64,10.48-18.48,16.29-5.45,5.43-10.7,11.09-15.2,17.34s-8.34,13.43-11.53,20.67c-3.65,8.3-6.66,16.82-8.75,25.64-4.17,17.59-5.08,35.89-3.59,53.87s5.4,35.91,11.45,52.97c5.56,15.67,12.93,30.84,22.56,44.43,10.46,14.74,24.58,26.11,40.79,34.03,8.24,4.02,16.93,7.16,25.87,9.19s18.39,2.84,27.65,3.29c17.95,.88,36.06-.3,53.63-4.15,15.88-3.48,31.35-9.2,45.32-17.56,12.96-7.75,24.53-17.77,33.7-29.79,10.72-14.04,18.08-30.63,22.97-47.53,5.29-18.29,7.69-37.41,7.68-56.43s-2.24-36.92-6.98-54.7c-2.36-8.86-5.83-17.43-10.19-25.5-5.93-10.97-13.57-20.99-22.41-29.78-11.45-11.38-24.87-20.67-39.21-28.04-8.52-4.38-17.44-8.37-26.59-11.26-8.42-2.66-17.23-4.06-26.05-4.37-17.36-.6-34.71,2.93-51.04,8.67-14.34,5.04-28.11,11.79-40.99,19.87-10.73,6.73-20.66,14.41-29.02,23.99-11.56,13.25-19.71,29.08-24.79,45.86-5.27,17.42-7.37,35.69-7.7,53.84-.34,18.65,1.03,37.45,5.74,55.55,4.59,17.65,12.46,34.34,23.75,48.7,5.98,7.61,12.83,14.53,20.49,20.46s15.79,10.73,24.26,15.13c7.52,3.91,15.27,7.3,23.47,9.49,8.87,2.37,18.03,3.35,27.19,3.7,.97,.04,.96-1.46,0-1.5h0Z"/>
  <path d="M669.74,365.9c20.59-1.27,40.95,3.66,58.82,13.92,8.58,4.93,16.27,11.17,24.23,17.01,6.41,4.71,12.78,9.49,18.27,15.29,11.89,12.56,19.61,28.25,24.35,44.75,5.05,17.58,7.14,36.03,6.88,54.29-.25,17.23-2.78,34.21-8.41,50.51-5.66,16.37-11.4,32.96-20.25,47.94-8.56,14.49-20.28,26.57-34.91,34.98-13.5,7.77-28.69,12.48-43.95,15.34-17.05,3.19-34.66,3.98-51.9,1.91-17.3-2.08-34.49-7.22-49.25-16.66s-27.19-22.14-37.22-36.13c-9.57-13.36-16.91-28.27-21.9-43.92s-7.54-31.24-8.03-47.27,1.03-30.7,4.67-45.58c3.76-15.39,9.97-29.89,18.29-43.36,10.24-16.58,23.51-31.52,39.76-42.4,17.9-11.99,38.67-17.6,59.92-19.84,10.88-1.15,21.83-1.52,32.76-1.68,2.76-.04,5.42,.04,8.13,.65,2.54,.57,5,1.41,7.42,2.35,4.93,1.92,9.68,4.35,14.71,6,4.75,1.56,9.73,1.16,14.58,2.14,5.27,1.08,9.51,4.92,13.68,8.11,8.77,6.7,16.99,14.17,23.57,23.09,12.82,17.38,19.83,38.41,25.73,58.96,3.25,11.31,5.95,22.84,7.24,34.55,1.2,10.86,.89,21.67-.33,32.51-2.12,18.97-6.72,37.91-15.17,55.1-4.09,8.33-9.1,16.24-15.12,23.32-6.34,7.45-13.81,13.61-21.7,19.34-15.09,10.97-31.64,19.75-49.56,25.06-9.2,2.72-18.65,4.58-28.17,5.74s-18.9,1.74-28.38,1.17c-15.55-.94-30.88-4.95-44.64-12.31-11.66-6.24-22-14.71-30.76-24.61-7.45-8.42-13.75-17.85-18.94-27.81-4.82-9.24-8.56-18.92-11.46-28.93-5.71-19.75-8.3-40.49-7.05-61.04,1.23-20.17,6.42-39.64,15.83-57.53,4.84-9.2,8.88-18.73,14.86-27.29,9.29-13.3,21.96-23.78,35.49-32.53,7.45-4.82,15.13-9.17,23.23-12.78s16.24-6.69,24.57-9.45c7.47-2.48,15.1-4.78,22.88-6.05,10.98-1.8,22.15-.09,32.85,2.53,17.7,4.33,36.47,9.79,50.88,21.45,3.31,2.68,6.36,5.67,9.09,8.93,3.11,3.72,5.6,7.82,8.13,11.93,5.65,9.19,11.43,18.32,16.57,27.8s9.78,19.44,12.5,29.94c2.37,9.12,2.96,18.7,3.38,28.08,.83,18.61-.36,37.34-3.74,55.67-3.34,18.14-8.81,35.97-16.95,52.55-7.65,15.58-17.7,29.99-30.29,41.99-.7,.67,.36,1.73,1.06,1.06,13.22-12.6,23.67-27.85,31.5-44.3s13.44-35.12,16.61-53.6,4.21-37.47,3.16-56.26c-.54-9.7-1.39-19.43-4.18-28.77-3.11-10.4-7.92-20.24-13.19-29.7s-11.28-18.84-16.99-28.22c-4.63-7.62-10.44-14.3-17.57-19.69s-14.93-9.17-23.1-12.28c-9.49-3.61-19.4-6.45-29.3-8.69s-21.07-3.58-31.63-1.73c-8.08,1.41-15.99,3.85-23.75,6.47-8.31,2.81-16.51,5.98-24.5,9.6-8.37,3.79-16.31,8.43-23.96,13.51-13.3,8.83-25.61,19.38-34.66,32.64-6.03,8.84-10.21,18.69-15.17,28.12-9.57,18.21-14.35,38.64-15.28,59.12s1.98,41.87,8.09,61.8c2.95,9.63,6.75,18.95,11.5,27.83,5.47,10.22,12.11,19.84,19.95,28.39,9.12,9.94,19.92,18.38,32,24.43,14.27,7.14,30.02,10.81,45.94,11.39,9.75,.35,19.53-.46,29.18-1.82s18.85-3.36,27.96-6.28c18.18-5.82,34.87-15.23,50.06-26.72,7.7-5.82,14.79-12.14,20.8-19.71s10.73-15.53,14.67-24.1c8.01-17.46,12.3-36.47,14.18-55.53,1.1-11.15,1.08-22.22-.41-33.34-1.61-11.95-4.54-23.67-7.99-35.21-6.12-20.48-13.46-41.31-26.9-58.26-6.86-8.65-15.29-15.85-24.1-22.43-2.26-1.68-4.52-3.58-7.01-4.91-2.04-1.09-4.28-1.68-6.56-2s-4.76-.4-7.14-.66c-2.73-.3-5.3-.99-7.87-1.96-5.08-1.92-9.94-4.37-15.07-6.15-2.5-.87-5.05-1.57-7.68-1.93s-5.3-.22-7.95-.18c-11.11,.19-22.24,.64-33.28,1.94-21.25,2.5-41.86,8.52-59.58,20.82-16.15,11.21-29.33,26.34-39.48,43.1-8.24,13.6-14.34,28.26-17.99,43.74-3.59,15.19-4.99,30.89-4.37,46.48s3.52,32.4,8.63,47.83c5.26,15.86,12.93,30.95,22.89,44.38,10.29,13.87,23.13,26.64,37.91,35.68,15.07,9.21,32.44,14.11,49.9,16.03,17.5,1.92,35.34,.92,52.6-2.49,15.48-3.06,30.87-8.07,44.42-16.28,14.47-8.75,25.93-21.15,34.32-35.76,8.8-15.33,14.54-32.24,20.27-48.89s7.77-34.07,7.8-51.42c.04-18.42-2.29-37.05-7.69-54.7-5.03-16.44-13.16-32.06-25.36-44.34-5.7-5.74-12.27-10.49-18.78-15.26-8.27-6.07-16.24-12.44-25.29-17.33-17.46-9.43-37.14-13.88-56.96-12.67-.96,.06-.97,1.56,0,1.5h0Z"/>
  <path d="M652.7,582.4c19.1,13.48,43.1,16.6,65.94,15.88,6.64-.21,13.27-.74,19.87-1.46l-.2-1.47c-12.4,4.17-25.76,5.13-38.67,3.1-12.81-2.02-25.16-6.86-35.83-14.23-6.08-4.2-11.55-9.22-16.23-14.93-.61-.75-1.67,.32-1.06,1.06,8.42,10.27,19.43,18.26,31.62,23.47,12.15,5.19,25.47,7.7,38.68,7.07,7.44-.35,14.83-1.71,21.89-4.08,.75-.25,.69-1.57-.2-1.47-22.6,2.45-46.53,3.01-68.1-5.22-6-2.29-11.71-5.3-16.95-9.01-.79-.56-1.54,.74-.76,1.3h0Z"/>
  <path d="M639.94,466.93c14.1-7.74,27.48-16.73,39.97-26.86,.63-.51-.07-1.38-.73-1.25-15.92,3.14-27.53,15.71-37.88,27.29-.64,.72,.36,1.73,1.06,1.06,12.23-11.65,25.56-22.09,39.8-31.15,.36-.23,.45-.65,.27-1.03-1.15-2.37-4.28-1.39-6.07-.44-3.43,1.82-6.79,3.78-10.11,5.78-6.65,4.01-13.11,8.33-19.36,12.94-3.48,2.57-6.9,5.23-10.24,7.97-.75,.61,.32,1.67,1.06,1.06,6.96-5.7,14.22-11.03,21.76-15.95,3.7-2.41,7.46-4.73,11.28-6.94,1.91-1.11,3.84-2.19,5.77-3.24,1.11-.6,3.79-2.14,4.62-.43l.27-1.03c-14.35,9.14-27.79,19.66-40.11,31.39l1.06,1.06c10.18-11.39,21.55-23.81,37.22-26.9l-.73-1.25c-12.4,10.04-25.69,18.95-39.67,26.62-.85,.46-.09,1.76,.76,1.3h0Z"/>
  <path d="M725.1,434.28c16.47,5.51,32.31,12.8,47.21,21.72,.76,.46,1.45-.55,.91-1.18-9.97-11.63-23.9-19.63-38.97-22.4l-.2,1.47c14.43,.73,27.5,8.21,39.98,14.8,.85,.45,1.61-.84,.76-1.3-12.73-6.72-26.03-14.27-40.74-15.01-.83-.04-1.04,1.32-.2,1.47,14.84,2.73,28.48,10.56,38.31,22.01l.91-1.18c-15.01-8.98-30.98-16.32-47.57-21.87-.92-.31-1.31,1.14-.4,1.45h0Z"/>
  <path d="M445.21,452.7c-13.5,10.6-26.03,22.39-37.42,35.23-.45,.51-.03,1.54,.73,1.25,12.57-4.71,21.58-15.06,29.03-25.83,2.21-3.19,4.3-6.45,6.38-9.72,.53-.83-.73-1.51-1.3-.76-10.89,14.45-23.18,27.82-36.65,39.89-.72,.65,.34,1.7,1.06,1.06,13.57-12.16,25.92-25.64,36.89-40.19l-1.3-.76c-6.89,10.86-14.2,22.23-24.89,29.74-2.98,2.1-6.2,3.84-9.62,5.12l.73,1.25c11.39-12.83,23.93-24.63,37.42-35.23,.76-.6-.31-1.65-1.06-1.06h0Z"/>
  <path d="M384.68,495.83c-16.49-8.62-32.03-19.01-46.29-30.98-.62-.52-1.65,.14-1.18,.91,7.14,11.61,19.2,19.69,31.33,25.37,3.4,1.59,6.88,3.01,10.42,4.26,.91,.32,1.3-1.13,.4-1.45-12.41-4.37-24.66-10.87-33.99-20.29-2.6-2.63-4.93-5.5-6.87-8.65l-1.18,.91c14.36,12.05,29.99,22.53,46.59,31.21,.85,.45,1.61-.85,.76-1.3h0Z"/>
  <path d="M782.44,478.87c-2.83,4.74-7,8.39-11.45,11.57-2.05,1.47-4.14,3-6.45,4.03s-4.88,1.66-7.42,2.01c-4.84,.67-10.05,.63-14.88-.09-4.07-.6-8.11-1.96-11.61-4.14-3.75-2.33-6.97-5.86-7.11-10.48l-1.4,.38c2.49,5.04,7.46,9.2,12.41,11.62,11.6,5.68,26.16,3.34,36.78-3.44,2.99-1.91,6.03-4.22,8.26-7.03,.59-.75-.46-1.82-1.06-1.06-1.69,2.13-3.89,3.95-6.08,5.52-5.33,3.83-11.52,6.31-18.02,7.25-10.14,1.47-20.53-1.18-27.56-8.88-1.3-1.42-2.57-3.01-3.43-4.75-.33-.67-1.42-.34-1.4,.38,.28,9,9.96,13.96,17.67,15.66,4.89,1.08,10.18,1.18,15.15,.79,2.75-.22,5.51-.66,8.13-1.54s4.83-2.21,7.07-3.75c5.29-3.62,10.38-7.73,13.7-13.3,.5-.83-.8-1.59-1.3-.76h0Z"/>
  <path d="M646.4,479.27c4.33,8.37,11.74,15.39,20.99,17.86,9.26,2.47,19.84-.08,27.72-5.31,4.5-2.99,8.26-7,10.77-11.81,.45-.86-.75-1.54-1.3-.76-4.13,5.93-10.9,10.92-17.71,13.38-6.1,2.2-12.85,2.52-19.06,.59-4.9-1.52-9.28-4.42-12.83-8.1-1.8-1.86-3.53-3.95-4.75-6.24-.45-.85-1.75-.1-1.3,.76,3.4,6.39,9.76,11.66,16.4,14.3,11.87,4.72,24.91,.87,34.27-7.21,2.3-1.98,4.54-4.21,6.28-6.71l-1.3-.76c-4.35,8.34-12.51,13.96-21.52,16.21-4.45,1.11-9.17,1.51-13.7,.59s-8.48-2.88-11.98-5.63c-4.07-3.19-7.31-7.32-9.68-11.9-.44-.86-1.74-.1-1.3,.76h0Z"/>
  <g>
    <path d="M339.58,504.54c2.78-.07,5.57,.45,8.27,1.04,3.51,.77,6.96,1.75,10.39,2.82,6.45,2.01,12.82,4.32,19.07,6.89,1.51,.62,3.02,1.53,4.57,2.03,.33,.11,.23,.16-.06-.46-.07-.15,.13-.19-.16,.08-.53,.5-1.08,.95-1.66,1.39-5,3.78-10.41,7.06-15.7,10.42-6.31,4.01-12.7,7.91-18.92,12.04-.8,.53-.05,1.83,.76,1.3,5.73-3.8,11.59-7.4,17.4-11.08,5.71-3.62,11.54-7.16,16.97-11.2,.77-.57,2.85-1.74,2.8-2.92-.04-1.06-2.26-1.64-2.99-1.96-5.97-2.6-12.11-4.85-18.28-6.9-4.11-1.36-8.27-2.63-12.49-3.62-3.24-.76-6.62-1.48-9.96-1.39-.96,.02-.97,1.52,0,1.5h0Z"/>
    <path d="M343.33,525.57c5.13-5.03,12.8-7.29,19.82-7.17,2.48,.05,4.94-.21,7.4-.44,3.56-.34,7.12-.51,10.69-.52,.97,0,.97-1.5,0-1.5-3.75,0-7.48,.2-11.21,.57-2.57,.25-5.13,.46-7.72,.37-3.67-.13-7.29,.67-10.7,1.99s-6.72,3.08-9.34,5.64c-.69,.68,.37,1.74,1.06,1.06h0Z"/>
  </g>
  <g>
    <path d="M443.24,496.55c-10.73,6.21-21.46,12.42-32.19,18.63-.59,.34-.41,1.16,.18,1.37,14.06,5.02,27.55,11.53,40.31,19.28,.83,.5,1.58-.79,.76-1.3-12.87-7.82-26.48-14.37-40.66-19.43l.18,1.37c10.73-6.21,21.46-12.42,32.19-18.63,.84-.48,.08-1.78-.76-1.3h0Z"/>
    <path d="M412.5,515.66c5.29-1.54,11.01-1.52,16.44-2.25,3.37-.45,6.73-1.01,10.12-1.29,2.13-.17,4.29-.2,6.38,.33,2.64,.67,5.05,2.05,7.38,3.43,.83,.49,1.59-.81,.76-1.3-4.16-2.45-8.17-4.25-13.08-4.05-3.08,.13-6.15,.62-9.2,1.05s-6.24,.76-9.37,1.1-6.65,.61-9.82,1.53c-.93,.27-.53,1.72,.4,1.45h0Z"/>
  </g>
  <path d="M365.96,603.86c3.41-9.2,7.93-18.23,15.25-24.96,9.14-8.39,21.4-11.57,33.56-11.8,2.99-.06,6.41-.38,9.25,.74,2.35,.92,4.4,2.59,6.04,4.47,4.43,5.06,5.68,12.08,4.34,18.56-2.57,12.45-13.39,21.82-24.32,27.22-5.38,2.65-11.36,4.68-17.39,5.03-6.42,.37-12.83-1.55-17.79-5.67-3.28-2.72-6.48-6.61-7.21-10.94-1.02-6.12,.94-12.85,3.47-18.36,2.78-6.05,6.9-12.05,12.65-15.6s11.94-5.05,18.26-5.83c7.06-.86,14.32-.63,21.27,.91,2.27,.5,4.99,.94,6.97,2.22,1.14,.73,2.08,1.8,2.85,2.9,5.41,7.63,4.88,18.14,.91,26.25-3.31,6.77-8.79,12.46-14.85,16.85-6.53,4.72-14.27,7.06-22.1,8.55-3.88,.74-7.79,1.29-11.69,1.87-.95,.14-.55,1.59,.4,1.45,8.41-1.25,16.99-2.35,24.93-5.55s14.6-8.48,19.82-14.99c6.92-8.62,10.51-20.35,6.15-30.98-1.2-2.94-3.06-6.1-5.86-7.77-2.32-1.39-5.41-1.91-8.02-2.44-3.62-.74-7.32-1.13-11.01-1.23-7.19-.19-14.56,.69-21.38,3.05-2.94,1.02-5.81,2.32-8.39,4.07-2.76,1.87-5.06,4.31-7.08,6.95-4.4,5.76-7.56,12.76-8.65,19.94-.42,2.77-.61,5.69-.05,8.45,.41,2.03,1.38,3.96,2.51,5.68,3.16,4.8,7.97,8.45,13.39,10.32,6.37,2.2,13.19,1.6,19.55-.27,12.35-3.62,24.67-11.81,30.94-23.29,3.12-5.72,4.59-12.49,3.18-18.93-1.26-5.79-5.09-11.42-10.56-13.95-2.7-1.25-5.58-1.18-8.51-1.19-3.84-.02-7.68,.22-11.48,.79-6.3,.94-12.48,2.88-17.98,6.12-9.28,5.46-15.64,14.27-20,23.95-1.04,2.3-1.97,4.65-2.85,7.02-.34,.91,1.11,1.3,1.45,.4h0Z"/>
</svg>