<?xml version="1.0" encoding="UTF-8"?>
<svg id="_Слой_8" data-name="Слой 8" xmlns="http://www.w3.org/2000/svg" viewBox="0 0 1000 1000">
  <path d="M354.71,548.69c-3.98,29.73,4.68,59.88,21.47,84.47,17.59,25.76,43.66,44.55,73.68,53.09,63.41,18.04,140.36-7.74,176.33-63.99,16.55-25.88,23.78-57.07,22.21-87.6-1.63-31.7-13.18-62.03-31.9-87.51-19.05-25.61-44-46.26-72.72-60.21-15.68-7.72-32.65-13.84-50.16-15.71-17.4-1.82-34.95,1.26-50.69,8.89-29.99,14.33-54.15,41-69.95,69.82-15.63,28.51-23.54,61.19-21.17,93.7,2.43,33.96,15.61,67.36,38.18,93.02,22.56,25.65,54,43.32,86.85,52.15,17.54,4.74,35.86,6.25,53.47,1.05,16.61-4.92,32.16-14.18,45.88-24.61,26.11-19.84,46.35-46.38,58.57-76.8,24.06-60.37,14.86-138.11-34.99-183.17-11.15-10.23-24.34-17.97-38.72-22.71-17.32-5.56-35.75-6.03-53.74-4.95-35.45,2.14-73.47,8.29-100.67,33.01-24.26,22.06-39.02,54.32-45.43,86.03-6.39,31.78-4.65,64.65,5.06,95.58,4.71,14.96,11.36,29.25,19.78,42.49,.46,.74,1.51-.1,1.05-.83-34.16-53.9-37.73-125.55-8.85-182.52,7.7-15.18,17.61-29.51,30.47-40.81,13.47-11.86,29.93-19.48,47.16-24.08,16.86-4.52,34.26-6.49,51.58-7.53,18.42-1.11,37.33-.57,54.94,5.48,28.58,9.85,50.98,32.62,64.99,58.93,15.48,29.08,21.08,62.86,17.97,95.51-3.2,33.56-15.86,65.54-36.5,92.21-9.89,12.73-21.44,24.09-34.33,33.77-13.43,10.04-28.61,18.97-44.75,23.79-18.45,5.45-37.74,3.29-55.95-2.04-16.41-4.77-32.11-11.7-46.68-20.62-28.77-17.51-51.02-43.94-63.36-75.26-11.97-30.88-14.22-64.67-6.45-96.87,7.64-30.96,23.36-59.35,45.56-82.27,12.26-12.72,26.56-23.9,42.7-31.2,16.07-7.32,33.91-9.89,51.39-7.4,17.01,2.39,33.39,8.63,48.66,16.36,13.95,7.06,27.03,15.71,38.99,25.78,23.77,20.01,42.92,45.78,53.53,75.07,10.47,29.18,11.99,60.83,4.35,90.88-8.06,31.37-26.91,58.9-53.25,77.76-26.84,19.37-58.81,30.39-91.9,31.66-31.8,1.17-64.17-7.29-89.83-26.48-24.15-18.03-41.43-43.76-48.98-72.92-3.47-13.8-4.3-28.13-2.45-42.24,.02-.18-.03-.37-.15-.51-.11-.14-.28-.24-.47-.26-.18-.02-.37,.03-.51,.15-.14,.11-.24,.28-.26,.47Z"/>
  <path d="M554.87,373.23c.18-.02,.34-.12,.44-.26,.11-.14,.15-.32,.13-.5-.02-.18-.12-.34-.26-.44-.14-.11-.32-.15-.5-.13-.18,.02-.34,.12-.44,.26s-.15,.32-.13,.5c.02,.18,.12,.34,.26,.44,.14,.11,.32,.15,.5,.13Z"/>
  <path d="M450.14,382.04c28.02-2.02,57.15-4.05,84.17,5.3,23.59,8.16,43.88,24.1,59.55,43.28,33.99,41.61,47.06,98.5,35.01,150.79-6.47,28-19.58,54.05-38.22,75.94-.57,.66,.51,1.46,1.07,.81,17.03-20.03,29.47-43.55,36.43-68.9,6.96-25.35,8.27-51.91,3.85-77.82-8.9-50.53-40.6-101.05-88.86-122.09-29.42-12.89-61.92-10.88-93.18-8.64-.85,.12-.67,1.45,.19,1.33Z"/>
  <path d="M456.89,632.86c2.16-5.9,4.96-11.55,8.35-16.84,1.61-2.51,3.35-4.93,5.22-7.26,.92-1.16,1.89-2.3,2.88-3.41,1.62-1.8,1.77-1.91,3.65-.09,10.01,9.69,20.25,19.13,30.7,28.3,.64,.58,1.45-.5,.8-1.06-11.24-9.89-22.23-20.06-32.99-30.51-.14-.11-.32-.15-.5-.13s-.34,.12-.45,.26c-8.29,8.69-14.72,18.99-18.87,30.26-.31,.82,.93,1.32,1.24,.52l-.05-.03Z"/>
  <path d="M395.56,539.31c1.24,10.2,4.75,26.16,18.22,25.68,12.71-.43,14.07-16.04,13.87-25.46-.01-.76-1.3-.75-1.36,.01-.37,7.79-4.08,15.86-10.75,20.29-2.8,1.87-6.03,2.21-8.16-.8-1.09-1.77-1.94-3.67-2.52-5.67-1.61-4.7-2.52-9.61-2.7-14.57l-1.33,.19c.5,6.73,1.62,17.13,8.76,21.48,2.26,1.38,5.4,1.84,7.13-.62,1.04-1.51,1.23-3.75,1.62-5.43,.67-2.81,1.3-5.74,1.96-8.61,.18-.84-1.15-1.02-1.38-.17-.74,3.27-1.46,6.55-2.24,9.83-.09,.98-.34,1.93-.76,2.82l-4.45,1.54-1.48-.83c-1.38-.96-2.56-2.18-3.48-3.59-3.41-4.88-3.91-11.18-4.38-16.92-.12-.87-1.37-.66-1.33,.19,.21,6.42,1.64,12.75,4.21,18.64,1.6,3.55,4.14,6.34,8.35,5.09,8.88-2.61,13.88-14.33,14.27-22.72h-1.36c.08,5.2,.14,10.68-1.9,15.53-2.04,4.85-6.66,9.09-12.29,8.36-11.67-1.49-14.07-15.04-15.22-24.47-.02-.18-.12-.34-.26-.44-.14-.11-.32-.15-.5-.13-.18,.03-.34,.12-.44,.26-.11,.14-.15,.32-.13,.5h.04Z"/>
  <path d="M494.86,540.6c-.21,9.22,.5,22.91,11.85,25.37,11.69,2.54,16.09-11.34,16.56-20.16,0-.16-.04-.31-.13-.44-.09-.13-.23-.22-.38-.26-.15-.04-.32-.03-.46,.04-.14,.06-.26,.18-.33,.32-3.49,7.01-10.21,18.31-19.81,13.9-6.42-2.92-7.11-11.9-7.36-17.99-.04-.76-1.26-.73-1.36,.01-.5,6.11,.89,13.47,6.7,16.73,4.63,2.58,11.12,1.67,13.89-3.09,.44-.74-.64-1.55-1.08-.81-2.66,4.57-9.02,5.1-13.11,2.1-4.55-3.34-5.54-9.55-5.07-14.79h-1.36c.3,7.18,1.6,17.58,9.98,19.71,9.97,2.51,16.16-7.91,19.84-15.28l-1.3-.35c-.44,8.12-4.3,21.86-15.39,18.89-10.18-2.73-10.54-15.29-10.33-23.75,.02-.86-1.32-1.04-1.38-.17l.03,.04Z"/>
  <path d="M400.4,492.95c.61,7.59,8.86,10.99,15.55,11.23,8.95,.29,17.68-2.89,24.35-8.86,.53-.48,.01-1.55-.69-1.15-5.96,3.37-12.59,5.36-19.42,5.83-6.83,.47-13.67-.6-20.03-3.12-.16-.07-.35-.06-.51,0-.16,.07-.29,.2-.36,.36-.07,.16-.07,.35,0,.51,.07,.16,.19,.3,.35,.37,6.53,2.59,13.55,3.7,20.56,3.23,7.01-.47,13.83-2.5,19.95-5.94l-.69-1.15c-5.6,5.05-12.73,8.07-20.26,8.58-6.74,.4-16.8-1.78-17.46-10.05-.12-.87-1.45-.67-1.33,.19v-.03Z"/>
  <path d="M484.79,495.07c3.19,16.62,19.65,25.4,33.61,32.07l.52-1.24c-7.54-2.57-14.4-6.8-20.08-12.38-5.68-5.58-10.03-12.37-12.73-19.86-.29-.82-1.53-.27-1.28,.55,2.77,7.65,7.22,14.57,13.02,20.27,5.8,5.7,12.81,10.03,20.51,12.66,.16,.07,.35,.06,.51,0,.16-.07,.29-.2,.36-.36,.07-.16,.07-.35,0-.51-.07-.16-.19-.3-.35-.37-13.48-6.44-29.72-14.93-32.8-31.01-.12-.85-1.46-.68-1.33,.19h.04Z"/>
</svg>