<?xml version="1.0" encoding="UTF-8"?>
<svg id="_Слой_2" data-name="Слой 2" xmlns="http://www.w3.org/2000/svg" viewBox="0 0 1000 1000">
  <path d="M323.68,647.79c-18.4,4.39-37.74-.6-53.81-9.92-7.94-4.61-15.23-10.25-22.06-16.37-6.07-5.44-11.91-11.11-16.71-17.72-9.17-12.63-15.11-27.4-19.08-42.42-3.94-14.94-6.01-30.38-6.52-45.81-.53-16.24,2.09-32.29,7.76-47.53s14.62-30.17,25.5-42.82c8.5-9.89,18.18-18.88,29.33-25.7,11.24-6.88,23.39-12.34,35.88-16.51,15.38-5.13,31.54-8.28,47.79-8.3,8.64,0,17.27,.88,25.69,2.85s17.05,5.2,25.12,8.87c12.73,5.8,24.76,13.38,34.62,23.37,7.31,7.41,13.24,16.04,17.61,25.49,3.39,7.32,5.73,15.03,7.83,22.81,3.83,14.22,7.49,28.43,9.26,43.08,2.07,17.1,1.85,34.64-2.56,51.37-2.23,8.45-5.51,16.61-9.82,24.22-4.07,7.19-9.05,13.88-14.35,20.2-9.57,11.42-20.72,21.46-33.16,29.66-12.68,8.36-26.53,14.79-40.86,19.76-7.38,2.56-14.99,5.11-22.66,6.65s-14.94,1.58-22.39,1.47c-7.65-.11-15.29-.61-22.9-1.31-8.02-.74-15.79-2.09-23.39-4.85-15.87-5.76-29.81-16.08-41.57-28.04s-21.23-25.21-28.74-39.81-12.62-29.81-15.22-45.74-2.48-31.87,.7-47.46c3.39-16.65,10.44-32.14,19.93-46.18,10.19-15.06,22.8-28.49,36.21-40.72s28.31-23.09,45.25-29.85c15.51-6.19,32.25-9.06,48.92-8.94s33.48,3.25,49.1,9.31,29.56,14.98,41.5,26.41,21.01,24.29,27.79,38.79c6.69,14.3,10.75,29.87,11.62,45.65,.43,7.86,.31,15.78,.1,23.64s-.67,15.69-1.49,23.5c-1.61,15.24-4.64,30.43-10.07,44.79s-13.18,27.45-23.54,38.58c-9.8,10.52-21.54,18.71-34.32,25.19s-26.63,11.58-40.59,15.43-27.44,6.4-41.47,7.15c-10.65,.57-22.31,.38-32.25-3.96-7.31-3.18-14.23-7.59-20.68-12.22-7.18-5.16-13.9-10.98-20.03-17.37-11.07-11.53-20.71-25.26-25.17-40.77-.27-.93-1.71-.53-1.45,.4,4.64,16.14,14.77,30.39,26.38,42.28,6.21,6.36,13.01,12.15,20.27,17.29,6.4,4.54,13.28,8.91,20.54,11.94,10.27,4.29,22.15,4.5,33.09,3.86,14.25-.83,28.4-3.59,42.13-7.43s27.95-9.1,40.98-15.82,24.82-15.18,34.63-26,17.99-24.77,23.29-39.11,8.37-30.17,9.92-45.71c.79-7.96,1.22-15.96,1.39-23.95s.3-16.2-.32-24.24c-1.21-15.83-5.55-31.35-12.48-45.62s-16.89-27.84-28.79-38.85-26.5-20.04-42.04-25.86c-15.88-5.95-32.89-8.9-49.84-8.81-16.87,.1-33.79,3.24-49.37,9.76-16.97,7.1-31.88,18.22-45.32,30.64-13.54,12.51-26.24,26.24-36.39,41.68-9.36,14.25-16.16,30.01-19.28,46.81-2.92,15.72-2.78,31.91-.05,47.65s8.3,31.72,15.93,46.17c7.8,14.77,17.85,28.41,29.74,40.14s26.12,21.88,42.15,27.37c7.56,2.59,15.29,3.75,23.21,4.46s15.81,1.2,23.73,1.25c7.39,.05,14.97-.15,22.2-1.79,7.89-1.79,15.71-4.33,23.32-7.04,14.42-5.14,28.35-11.77,41.05-20.38,12.53-8.49,23.72-18.83,33.28-30.57,5.37-6.59,10.39-13.53,14.39-21.05s7.16-15.84,9.21-24.27c4.17-17.12,4.11-34.97,1.78-52.35-1.91-14.26-5.52-28.12-9.28-41.97-2.19-8.06-4.74-16.01-8.38-23.54-4.67-9.67-11.03-18.45-18.75-25.91-10.47-10.1-23.13-17.68-36.44-23.4-8.25-3.54-16.76-6.57-25.57-8.34s-17.18-2.38-25.83-2.17c-16.34,.4-32.54,3.83-47.93,9.24-12.29,4.32-24.29,9.86-35.3,16.84-11.6,7.35-21.68,17.17-30.34,27.78-10.56,12.94-18.99,27.63-24.45,43.43s-7.42,31.61-6.66,47.96,3.06,31.58,7.42,46.78,10.66,29.66,20.32,42c5.19,6.62,11.46,12.41,17.83,17.87,7,6.01,14.51,11.49,22.66,15.83,15.68,8.35,34.19,12.45,51.73,8.27,.94-.22,.54-1.67-.4-1.45h0Z"/>
  <path d="M723.82,646.22c-19.05,9.75-40.93,10.65-61.82,8.27-10.5-1.2-20.81-3.4-31.19-5.3-8.33-1.52-16.75-2.8-24.88-5.22-16.72-4.98-31.51-14.87-43.57-27.34s-22.71-28.52-30.5-44.87-13.19-32.86-15.01-50.31c-1.92-18.41-.49-37.54,4.59-55.35s14.74-35.49,26.59-50.58c10.74-13.68,23.42-25.63,37.38-35.99,15.3-11.35,32.09-20.93,49.99-27.53,17.73-6.54,36.82-10.18,55.73-8.22,16.9,1.75,33.77,7.44,48.69,15.5,13.66,7.38,25.94,17.13,36.37,28.62s18.5,23.94,25.01,37.55c6.35,13.27,10.94,27.37,13.76,41.8,2.69,13.76,3.77,27.86,2.98,41.87-1.12,19.76-5.75,39.52-14.19,57.45-8.89,18.9-22.11,34.99-38.47,47.91-16.41,12.96-35.08,22.78-53.97,31.58-10.12,4.71-20.49,9.63-31.63,11.29-11.95,1.79-24.28-.59-36-2.88s-22.2-5.16-32.42-10.2c-9.32-4.6-17.83-10.66-25.67-17.46s-14.87-14.12-21.76-21.7-14.05-16.07-20.11-24.85-11.2-17.96-14.87-27.86c-3.53-9.54-5.59-19.6-6.29-29.75-1.43-20.77,2.64-41.67,10.1-61.01,3.81-9.88,8.68-19.17,13.89-28.37,4.28-7.57,8.5-15.18,13.01-22.61,8.15-13.44,17.51-26.03,29.71-36.09,15.74-12.98,34.99-22.35,54.6-27.74,18.8-5.18,38.59-6.4,57.86-3.42,15.8,2.44,31.18,7.54,45.37,14.89,10.2,5.28,20.1,11.68,28.42,19.65,13.09,12.53,22.84,28.6,29.37,45.42,6.98,17.98,10.5,37.26,10.93,56.52,.19,8.71-.46,17.3-1.26,25.96-.5,5.38-.82,10.78-1.35,16.16-1.46,14.98-4.52,29.72-9.96,43.78-3.57,9.21-8.08,18.05-13.3,26.43-5.5,8.81-11.63,17.47-19.03,24.8-6.95,6.88-14.7,12.97-22.67,18.61s-15.58,10.82-24.08,14.75c-10.04,4.64-20.96,7.03-31.81,8.94s-21.49,2.7-32.35,1.73-20.75-3.4-30.44-7.39-18.72-9.66-26.93-16.25c-15.96-12.79-28.88-28.95-39.59-46.28-10.77-17.42-19.3-36.23-24.99-55.91-5.67-19.63-8.49-40.13-7.57-60.56,.9-20.06,5.52-39.87,13.93-58.12,.4-.87-.89-1.63-1.3-.76-8.74,18.98-13.45,39.58-14.2,60.45-.74,20.75,2.33,41.56,8.28,61.42,5.97,19.91,14.82,38.91,25.93,56.46,10.98,17.36,24.26,33.48,40.59,46.06,8.26,6.36,17.2,11.72,26.92,15.54,9.81,3.86,20.2,6.16,30.71,6.96s21.74-.17,32.51-2.09,21.78-4.48,31.82-9.25c8.66-4.12,16.79-9.7,24.56-15.28s15.54-11.72,22.38-18.61c7.45-7.51,13.67-16.4,19.19-25.4,5.13-8.34,9.53-17.13,13.04-26.27,5.46-14.21,8.45-29.1,9.9-44.22,.52-5.46,.84-10.95,1.37-16.41,.88-9.16,1.45-18.27,1.13-27.48-.68-19.54-4.5-39.08-11.92-57.19-6.7-16.36-16.42-32.05-29.4-44.18-8.74-8.17-19.05-14.75-29.71-20.11-14.67-7.37-30.52-12.4-46.8-14.6-19.62-2.65-39.64-1.04-58.62,4.58s-38.27,15.23-53.72,28.31c-12.2,10.33-21.51,23.25-29.68,36.89-4.64,7.75-9.01,15.66-13.47,23.52-5.28,9.31-9.98,18.88-13.67,28.93-7.23,19.7-10.95,41-8.93,61.97,.97,10.12,3.28,20.1,7.06,29.55,3.97,9.94,9.4,19.22,15.61,27.92s13.09,16.72,20.26,24.54,14.45,15.25,22.5,21.98,16.69,12.59,26.18,16.96c10.47,4.82,21.7,7.62,32.99,9.7s23.55,4.21,35.3,2.19c11.1-1.9,21.46-6.87,31.58-11.6,19.08-8.92,37.87-18.93,54.38-32.14,16.5-13.21,29.75-29.73,38.54-48.99,8.22-18.01,12.73-37.72,13.76-57.47,.74-14.28-.45-28.66-3.29-42.67-2.97-14.68-7.78-28.99-14.37-42.45-6.69-13.67-15.27-26.45-25.63-37.62-10.75-11.58-23.42-21.37-37.44-28.67-15.23-7.93-32.38-13.47-49.53-14.91-19.24-1.62-38.63,2.42-56.54,9.33s-34.79,16.73-50.1,28.36c-14.1,10.71-26.78,23.02-37.51,37.12-11.68,15.34-20.82,32.59-25.76,51.28-4.76,18-6.02,37.44-3.65,55.91s8.13,34.68,15.94,50.54c8.06,16.37,18.46,31.88,31.42,44.79,12.33,12.28,27.45,21.83,44.29,26.49,8.58,2.37,17.42,3.64,26.16,5.28,10.48,1.96,20.9,4.06,31.52,5.1,20.23,1.99,41.22,.62,59.6-8.79,.86-.44,.1-1.73-.76-1.3h0Z"/>
  <g>
    <path d="M363.64,368.97c19.15,.66,36.09,11.4,53.52,18.1,4.9,1.88,9.91,3.5,15.07,4.53,.49,.1,.92-.21,.95-.72,.82-15.5,2.82-30.96,5.13-46.3,.62-4.08,1.27-8.16,1.96-12.23,.08-.49-.2-.93-.72-.95-20.4-.69-41.72,1.64-60.13,11.02-5.28,2.69-10.23,5.98-14.73,9.85-.68,.58,.18,1.54,.91,1.18,19.72-9.95,40.83-17.63,62.45-22.23,2.52-.54,5.05-1.02,7.59-1.46,.75-.13,2.01-.56,2.61,.11,.33,.37,.37,1.11,.41,1.57,.07,.72,.08,1.46,.1,2.18,.1,2.83,.13,5.67,.14,8.51,.03,7.31-.07,14.61-.21,21.92-.12,6.56-.28,13.13-.5,19.69-.07,2-.13,4-.23,6-.02,.47-.13,.99-.09,1.46,.02,.23-.02,.1,0,.09-.14,.06,.27-.41,.23-.32,.09-.19,.12,.06-.03-.01,.15,.07-.19,0-.36,0-.27,0-.54-.03-.81-.05-.67-.07-1.33-.18-2-.3-2.23-.4-4.44-.9-6.65-1.41-6.43-1.5-12.81-3.19-19.19-4.89-14.96-3.99-29.86-8.19-44.83-12.16-1.49-.39-2.97-.79-4.46-1.17-.94-.24-1.33,1.2-.4,1.45,15.22,3.95,30.34,8.24,45.53,12.32,6.98,1.88,13.97,3.74,21,5.43,2.47,.59,4.94,1.17,7.44,1.66,1.43,.28,2.94,.63,4.4,.62,.93,0,1.52-.27,1.63-1.24,.15-1.4,.15-2.82,.21-4.22,.24-6.26,.4-12.52,.54-18.79,.17-7.61,.29-15.23,.3-22.84,0-3.23-.01-6.47-.09-9.7-.06-2.69,.55-8.11-3.49-7.61-5.33,.65-10.68,1.97-15.89,3.26-5.51,1.36-10.98,2.91-16.39,4.64-11.02,3.52-21.82,7.73-32.31,12.6-2.49,1.16-4.97,2.36-7.42,3.6l.91,1.18c15.85-13.62,36.94-19,57.4-20.25,5.46-.33,10.93-.37,16.4-.19l-.72-.95c-2.65,15.43-4.78,30.98-6.23,46.57-.38,4.11-.7,8.23-.92,12.35l.95-.72c-18.91-3.79-35.26-14.93-53.7-20.16-4.98-1.41-10.1-2.34-15.29-2.52-.97-.03-.96,1.47,0,1.5h0Z"/>
    <path d="M341.73,369.12c-18.43,5.6-37.82,4.45-56.75,6.7-5.34,.63-10.64,1.54-15.84,2.91l.92,.92c2.65-17.4,3.83-35.16,3.46-52.76-.02-1.05-.05-2.11-.09-3.16-.03-.88-.19-2.16,.31-2.95,.55-.88,2.62,.01,3.44,.24,1.16,.33,2.31,.69,3.46,1.08,4.64,1.57,9.11,3.56,13.53,5.65s8.58,4.15,12.91,6.13,8.56,4.39,12.77,6.72c2.33,1.29,4.68,2.56,7.08,3.72s4.71,2.08,7,3.26c4.38,2.24,8.69,4.84,13.6,5.71l.2-1.47c-10.24,.76-19.54-4.06-28.02-9.24s-17.13-11.43-26.91-14.58c-6.73-2.17-13.81-2.87-20.82-3.56-.43-.04-.71,.38-.75,.75-.9,8.93,.09,17.98,.64,26.9,.28,4.53,.56,9.06,.84,13.59s.29,8.78,.83,13.1c.16,1.33,.88,2.58,2.39,2.44,1.61-.15,3.16-1.62,4.52-2.38,3.51-1.95,7.3-3.31,11.19-4.26,7.89-1.92,16.12-2.33,24.19-3.09,10.18-.96,20.36-1.92,30.54-2.88l-.2-1.47c-19.07,6.83-39.53,9.09-59.5,11.76-5.3,.71-10.59,1.43-15.87,2.27-.95,.15-.55,1.6,.4,1.45,19.85-3.15,39.96-4.83,59.56-9.44,5.35-1.26,10.64-2.74,15.81-4.59,.74-.26,.7-1.56-.2-1.47-8.69,.82-17.38,1.64-26.07,2.46-7.82,.74-15.72,1.22-23.48,2.46-3.62,.57-7.2,1.38-10.66,2.61-1.68,.6-3.33,1.29-4.93,2.09-.85,.43-1.69,.88-2.51,1.37-.7,.42-1.84,1.5-2.66,1.57-1.32,.1-1.1-1.79-1.15-2.62-.07-1.15-.14-2.31-.21-3.46-.13-2.14-.26-4.28-.4-6.43-.26-4.28-.53-8.57-.79-12.85-.59-9.64-1.74-19.47-.78-29.12l-.75,.75c6.41,.63,12.87,1.28,19.08,3.1,5.15,1.51,9.94,3.92,14.57,6.61,8.71,5.07,16.88,11.25,26.31,14.98,5.03,1.99,10.38,3.1,15.8,2.7,.78-.06,1.09-1.32,.2-1.47-4.65-.82-8.73-3.22-12.86-5.36s-8.79-4.07-13.06-6.4-8.64-4.89-13.13-7.01-9.03-4.28-13.54-6.42-8.85-4.09-13.45-5.7c-2.24-.78-4.57-1.62-6.9-2.04-1.78-.32-2.71,.89-2.97,2.52-.31,1.9-.02,3.94,.01,5.86,.04,2.27,.06,4.53,.04,6.8-.03,4.68-.18,9.37-.41,14.04-.53,10.41-1.47,20.81-3.04,31.11-.08,.55,.32,1.08,.92,.92,18.48-4.87,37.75-3.59,56.56-6.18,5.42-.75,10.79-1.84,16.04-3.43,.92-.28,.53-1.73-.4-1.45h0Z"/>
    <path d="M360.62,380.37c3.34-12.39,5.43-25.09,6.27-37.89,.02-.32-.25-.65-.55-.72-7.76-1.89-15.77-2.1-23.63-.7-.42,.08-.59,.55-.52,.92,2.21,12.45,1.79,25,1.2,37.57-.02,.34,.25,.62,.55,.72,2.76,.95,5.6,1.04,8.48,.7,1.45-.17,2.89-.41,4.33-.65,.84-.14,2.22,0,2.78-.76,.41-.56,.51-1.51,.66-2.16,.34-1.47,.62-2.96,.89-4.45,.75-4.17,1.37-8.36,1.89-12.56,.48-3.92,.94-7.9,.9-11.85-.01-1.43,.14-4.07-1.24-4.92-.76-.47-2-.46-2.85-.56-3.59-.42-7.24-.61-10.86-.58-1.53,.01-4.65-.4-4.78,1.72-.16,2.66,.09,5.38,.2,8.04,.38,8.67,.71,17.43,1.72,26.06,.11,.95,1.61,.96,1.5,0-.82-6.99-1.12-14.06-1.48-21.08-.18-3.4-.34-6.79-.43-10.19-.02-.91-.04-1.83-.02-2.74,.02-.62-.14-.14-.11-.08,.05,.12-.25-.02,.13,0,.2,.01,.45-.08,.65-.11,3.13-.37,6.42-.08,9.55,.13,1.52,.1,3.04,.21,4.54,.42,.4,.05,.88,.07,1.25,.22,.13,.05,.3,.15,.21,.06,.37,.41,.39,1.47,.43,2,.25,3.23-.1,6.53-.42,9.75-.41,4.05-.96,8.09-1.61,12.11-.5,3.12-.95,6.32-1.81,9.36-.09,.31-.19,.59-.23,.68l.38-.28c-.31,.05-.62,.09-.93,.14-.45,.07-.89,.14-1.34,.22-.84,.14-1.69,.28-2.53,.4-3.21,.48-6.36,.62-9.48-.45l.55,.72c.59-12.72,.98-25.38-1.25-37.97l-.52,.92c7.59-1.35,15.35-1.12,22.84,.7l-.55-.72c-.84,12.67-2.91,25.23-6.22,37.49-.25,.93,1.2,1.33,1.45,.4h0Z"/>
  </g>
  <path d="M710.47,565.45c-20.3,1.73-37.99,13.02-52.83,26.31-4.32,3.87-8.45,7.95-12.46,12.14l1.18,.91c11.78-19.34,33.22-32.08,55.68-34.16,6.31-.58,12.67-.33,18.9,.83,.94,.18,1.35-1.27,.4-1.45-22.82-4.24-47.09,3.36-64.04,19.07-4.74,4.39-8.87,9.42-12.23,14.94-.44,.72,.59,1.53,1.18,.91,13.61-14.22,29.17-27.98,48.07-34.53,5.22-1.81,10.64-3.01,16.16-3.48,.95-.08,.96-1.58,0-1.5h0Z"/>
  <path d="M624.83,459.83c14.26-7.82,27.78-16.92,40.42-27.16,.63-.51-.07-1.38-.73-1.25-16.1,3.18-27.84,15.88-38.3,27.59-.64,.72,.36,1.73,1.06,1.06,12.36-11.78,25.84-22.33,40.25-31.5,.36-.23,.45-.65,.27-1.03-1.16-2.39-4.32-1.4-6.13-.44-3.5,1.86-6.93,3.86-10.33,5.9-6.66,4.02-13.13,8.35-19.39,12.96-3.55,2.62-7.03,5.33-10.44,8.12-.75,.61,.32,1.67,1.06,1.06,7.03-5.76,14.37-11.14,21.98-16.11,3.7-2.42,7.47-4.74,11.3-6.96,1.98-1.15,3.97-2.27,5.98-3.36,1.14-.62,3.83-2.16,4.68-.43l.27-1.03c-14.51,9.24-28.1,19.87-40.55,31.74l1.06,1.06c10.3-11.52,21.8-24.07,37.64-27.2l-.73-1.25c-12.53,10.15-25.97,19.16-40.12,26.92-.85,.46-.09,1.76,.76,1.3h0Z"/>
  <path d="M772.71,444.16c-16.65-5.57-32.67-12.95-47.74-21.97-.76-.46-1.45,.55-.91,1.18,10.08,11.75,24.17,19.85,39.4,22.65l.2-1.47c-14.59-.73-27.81-8.31-40.43-14.97-.85-.45-1.61,.84-.76,1.3,12.87,6.79,26.32,14.42,41.19,15.17,.83,.04,1.04-1.32,.2-1.47-15.01-2.76-28.8-10.68-38.74-22.26l-.91,1.18c15.18,9.08,31.32,16.5,48.1,22.12,.92,.31,1.31-1.14,.4-1.45h0Z"/>
  <path d="M273.3,452.23c8.25-.24,16.38-1.59,24.24-4.12,7.37-2.38,14.42-5.64,21.45-8.85l-.91-1.18c-4.5,4.86-10.23,7.78-16.54,9.58-5.74,1.63-11.68,2.48-17.37,4.3-3.21,1.03-6.3,2.39-9.12,4.24-.75,.49-.24,1.49,.58,1.37,13.37-1.97,27.38-3.3,38.51-11.76,3.41-2.59,6.36-5.68,8.96-9.08,.59-.77-.72-1.51-1.3-.76-4.39,5.75-9.98,10.38-16.57,13.41-5.97,2.74-12.46,4.11-18.91,5.13-3.69,.59-7.41,1.07-11.11,1.61l.58,1.37c10.38-6.84,23.6-5.98,34.51-11.62,3.32-1.72,6.29-4,8.82-6.74,.6-.65-.15-1.53-.91-1.18-6.92,3.16-13.84,6.37-21.1,8.7-7.73,2.49-15.72,3.83-23.84,4.07-.96,.03-.97,1.53,0,1.5h0Z"/>
  <path d="M402.57,459.35c-7.93-1.64-15.72-4.13-23-7.68s-13.93-8.05-19.02-14.25l-.91,1.18c14.85,9.38,30.17,17.92,47.57,21.45,.96,.2,1.28-1.09,.4-1.45-10.69-4.34-21.39-9.17-31.31-15.08-2.96-1.77-5.99-3.65-8.45-6.1-.69-.68-1.75,.38-1.06,1.06,2.14,2.13,4.7,3.83,7.25,5.42,3.29,2.05,6.71,3.89,10.16,5.65,6.17,3.15,12.48,6.03,18.84,8.75,1.38,.59,2.77,1.18,4.16,1.75l.4-1.45c-8.68-1.76-17.03-4.7-24.99-8.55s-14.99-8.19-22.21-12.75c-.77-.48-1.42,.56-.91,1.18,8.08,9.85,20.26,15.81,32.19,19.59,3.45,1.09,6.95,1.99,10.49,2.72,.94,.19,1.35-1.25,.4-1.45h0Z"/>
  <path d="M296.89,595.81c1.46-7.64,4.95-14.7,9.67-20.85s10.97-12.09,17.84-16.07,14.71-5.07,22.37-3.1,13.95,6.51,18.24,12.88c4.78,7.1,6.79,15.82,5.94,24.31l1.47-.2c-.54-3.46-1.46-6.89-2.52-10.22-1.98-6.21-4.72-12.45-9.07-17.38-2.13-2.41-4.71-4.45-7.7-5.66-3.47-1.41-6.95-1.29-10.6-.8-8.95,1.22-18.11,3.39-25.78,8.36-8.81,5.71-14.09,14.72-16.48,24.81-.22,.94,1.22,1.34,1.45,.4,2.1-8.88,6.46-17.1,13.9-22.6,6.9-5.1,15.33-7.56,23.69-8.97,3.8-.64,7.74-1.41,11.54-.39,3.05,.82,5.71,2.61,7.92,4.84,4.49,4.54,7.28,10.63,9.3,16.61,1.25,3.69,2.31,7.53,2.9,11.39,.14,.9,1.4,.57,1.47-.2,1.58-15.76-6.81-31.93-22-37.6-7.28-2.72-15.51-2.85-22.72,.17-7.78,3.26-14.64,9.36-20.09,15.7-5.96,6.93-10.49,15.13-12.21,24.16-.18,.94,1.27,1.35,1.45,.4h0Z"/>
  <path d="M296.89,595.81c1.52-7.88,6.17-14.61,11.57-20.37,2.74-2.92,5.69-5.63,8.74-8.22,1.48-1.26,2.95-2.62,4.59-3.68s3.53-1.92,5.39-2.66c3.51-1.38,7.21-2.85,10.91-3.63s7.86-.79,11.71-.04c7.78,1.53,14.79,5.93,19.44,12.36,5.25,7.25,7.49,16.38,6.6,25.26-.1,.96,1.4,.95,1.5,0,1.65-16.46-7.6-33.21-23.81-38.22-3.82-1.18-7.89-1.68-11.88-1.37s-7.72,1.65-11.51,2.97-7.59,2.7-10.72,5.21c-3.34,2.68-6.58,5.52-9.63,8.52-6.58,6.47-12.56,14.22-14.35,23.48-.18,.94,1.26,1.35,1.45,.4h0Z"/>
  <path d="M280.64,503.08c-5.32,8.21-17.66,20.24-9.49,30.4,3.1,3.85,8.29,5.47,12.91,3.53,5.08-2.12,7.59-7.16,6.67-12.51-.62-3.59-2.36-6.94-3.83-10.24-1.66-3.72-3.32-7.45-4.98-11.17-.39-.88-1.68-.12-1.3,.76,2.49,5.6,5.26,11.15,7.44,16.87,1.03,2.71,1.84,5.71,1.11,8.6-.57,2.26-2.1,4.2-4.05,5.46-4.05,2.61-9.1,1.82-12.35-1.68-3.95-4.25-3.07-9.94-.61-14.71,2.7-5.23,6.57-9.63,9.76-14.54,.53-.81-.77-1.57-1.3-.76h0Z"/>
  <path d="M280.71,507.04c-4.81,7.43-14.52,16.71-7.4,25.77,2.7,3.43,7.93,5.84,12.22,3.98s4.95-7.87,4.47-11.73c-.85-6.72-5.28-12.03-7.98-18.02-.4-.88-1.69-.12-1.3,.76,2.14,4.74,5.31,8.91,6.96,13.89,.89,2.7,1.24,5.5,.61,8.3-.38,1.68-.92,3.58-2.27,4.76s-3.5,1.28-5.25,.99c-2.31-.39-4.4-1.68-5.93-3.43s-2.47-3.99-2.55-6.32c-.09-2.67,.96-5.1,2.31-7.34s2.87-4.63,4.48-6.78c1.01-1.35,2.03-2.63,2.95-4.05,.53-.81-.77-1.57-1.3-.76Z"/>
  <path d="M268.59,470.92c2.5,4.2,6.01,7.6,9.86,10.56s8.15,6.05,12.86,7.73c8.68,3.08,18.45,.29,25.23-5.66,3.65-3.2,6.42-7.27,8.78-11.48l-1.3-.76c-3.91,7-8,15.2-15.8,18.52-4.4,1.88-9.58,2.27-14.24,1.25s-8.96-3.76-12.95-6.65c-4.33-3.14-8.38-6.76-11.15-11.39-.49-.83-1.79-.07-1.3,.76,2.54,4.26,6.11,7.69,10.02,10.69s8.38,6.17,13.35,7.62,10.05,1.29,14.86-.18c4.07-1.25,7.51-3.81,10.26-7,3.34-3.87,5.76-8.42,8.24-12.86,.47-.84-.82-1.6-1.3-.76-4.01,7.14-9.33,13.48-17.28,16.26-4.38,1.54-9.03,1.93-13.53,.67s-8.44-3.98-12.19-6.7c-4.33-3.14-8.38-6.75-11.15-11.39-.49-.83-1.79-.07-1.3,.76h0Z"/>
  <path d="M411.8,477.18c-5.64,7.54-14.72,12.29-24.09,12.88-8.92,.56-18.16-2.8-24.66-8.94-3.66-3.46-6.37-7.78-7.83-12.61-.28-.92-1.73-.53-1.45,.4,2.82,9.34,9.57,17.71,18.29,22.17s19.3,4.08,28.18-.03c5.08-2.35,9.5-5.93,12.85-10.41,.58-.77-.72-1.52-1.3-.76-5.64,7.54-14.72,12.29-24.09,12.88s-18.29-3.53-24.66-10.55c-3.57-3.93-6.29-8.61-7.83-13.7l-1.45,.4c2.74,9.06,9.66,16.14,18.29,19.82,9.07,3.87,19.22,3.76,28.18-.39,5.08-2.35,9.5-5.93,12.85-10.41,.58-.77-.72-1.52-1.3-.76h0Z"/>
  <path d="M644.33,471.09c2.97,4.98,7.35,8.82,12.02,12.17,2.27,1.63,4.57,3.28,7.16,4.38,2.43,1.03,5.01,1.64,7.63,1.99,5.26,.71,10.9,.66,16.14-.23,4.38-.74,8.77-2.33,12.45-4.85s6.85-6.47,7-11.29c.02-.72-1.06-1.05-1.4-.38-2.39,4.83-7.11,8.77-11.84,11.13-11.37,5.66-25.78,3.15-36.13-3.58-2.81-1.83-5.65-4.03-7.76-6.68-.6-.76-1.65,.31-1.06,1.06,1.81,2.29,4.2,4.21,6.56,5.89,5.57,3.98,12.08,6.53,18.86,7.47,10.57,1.47,21.41-1.28,28.81-9.25,1.46-1.57,2.9-3.34,3.85-5.27l-1.4-.38c-.27,8.6-10.18,13.08-17.43,14.52-4.73,.94-9.86,.99-14.65,.57-2.58-.23-5.15-.69-7.61-1.53s-4.6-2.2-6.73-3.67c-5.08-3.49-9.98-7.46-13.18-12.82-.49-.83-1.79-.07-1.3,.76h0Z"/>
  <path d="M781.89,469.97c-4.19,8.1-11.28,14.92-20.23,17.34s-19.14-.08-26.78-5.08c-4.42-2.89-8.07-6.82-10.52-11.51l-1.3,.76c4.51,6.47,11.66,11.69,19.03,14.3,6.31,2.23,13.34,2.52,19.75,.55,5.16-1.58,9.8-4.58,13.57-8.43,1.97-2.01,3.89-4.3,5.22-6.8,.45-.85-.84-1.61-1.3-.76-3.22,6.05-9.24,11.15-15.52,13.7-11.64,4.73-24.46,.95-33.62-7.07-2.12-1.85-4.27-3.99-5.85-6.25-.55-.79-1.75-.11-1.3,.76,4.58,8.78,13.24,14.75,22.74,17.1,4.67,1.16,9.58,1.54,14.33,.63s8.98-3.01,12.71-5.89c4.34-3.35,7.83-7.72,10.34-12.58,.44-.86-.85-1.62-1.3-.76h0Z"/>
</svg>