<?xml version="1.0" encoding="UTF-8"?>
<svg id="_Слой_3" data-name="Слой 3" xmlns="http://www.w3.org/2000/svg" viewBox="0 0 1000 1000">
  <path d="M491.72,660.15c-23.06,1.38-44.51-9.07-63.14-21.69-8.97-6.08-17.48-12.82-26.21-19.24-6.87-5.05-13.64-10.24-19.45-16.53-12.78-13.85-20.89-31.04-25.81-49.09-5.18-19.01-7.22-38.93-6.66-58.61,.53-18.66,3.59-37.03,10.24-54.51,6.68-17.57,15.99-34.16,28.56-48.2,12.66-14.14,28.23-25.29,45.06-33.94,15.09-7.76,31.52-13.01,48.14-16.3,18.69-3.7,38.12-4.89,57.03-2.17,9.34,1.34,18.56,3.66,27.32,7.18s17.23,8.59,24.84,14.58c14.64,11.52,27.29,25.47,37.41,41.1,9.7,14.99,17.08,31.44,22.01,48.6s7.22,33.73,7.26,50.93c.04,16.25-2.11,32.56-6.83,48.12-5.29,17.44-14.16,33.72-25.13,48.23-12.55,16.58-28.61,31.17-47.48,40.19-8.43,4.03-17.51,6.66-26.61,8.69-10.09,2.26-20.35,3.75-30.63,4.81s-19.78,1.66-29.69,2.03-20.57,.87-30.77,.03c-6.32-.52-12.58-1.78-18.43-4.27-5.46-2.32-10.51-5.5-15.37-8.86-9.8-6.77-19.41-14.03-27.7-22.63-16.09-16.7-25.08-38.44-32.04-60.21-7.65-23.91-14.05-48.98-12.11-74.29,1.61-20.89,9.03-41.01,20.04-58.74,5.59-9.01,12.11-17.44,19.33-25.21s15.09-14.52,23.29-21.12c14.58-11.73,29.07-24.17,46.04-32.37,17.66-8.53,37.57-11.51,57.06-10.89,17.81,.56,35.45,4.65,51.56,12.32,13.74,6.54,26.24,15.52,37.09,26.17,9.16,8.99,17.19,19.15,23.84,30.14,2.62,4.33,5.03,8.8,7.14,13.4,2.59,5.65,4.52,11.55,6.35,17.48,6.61,21.34,10.89,43.64,10.84,66.04-.03,11.05-1.14,22.12-3.71,32.88-2.39,10.02-6.16,19.42-10.93,28.53-5.74,10.97-10.96,22.15-17.72,32.56-9.9,15.26-22.38,28.7-36.89,39.67-4.4,3.33-8.98,6.44-13.68,9.34-3.65,2.25-7.33,4.5-11.32,6.12-7.47,3.04-15.43,4.92-23.3,6.6-8.72,1.87-17.53,3.36-26.35,4.65-7.95,1.16-16.1,2.58-24.15,2.68-12.57,.15-25.18-2.93-37.14-6.57-9.78-2.98-19.13-7.34-27.66-13-8.46-5.61-16.06-12.47-22.52-20.3-7.02-8.51-12.53-18.19-17.03-28.24-9.52-21.32-14.27-44.65-16.32-67.82-1.81-20.43-1.3-41.12,1.87-61.39,3.14-20.12,8.9-39.91,17.81-58.25s19.78-33.41,33.82-46.79c.7-.67-.36-1.73-1.06-1.06-14.79,14.1-26.6,31.07-35.24,49.56-8.73,18.69-14.32,38.76-17.24,59.15-2.94,20.53-3.25,41.42-1.16,62.04,2.37,23.41,7.47,46.85,17.56,68.22,9.1,19.28,22.5,35.92,40.62,47.39,8.62,5.45,18.05,9.63,27.85,12.44,12.21,3.5,24.92,6.58,37.72,6.07,7.91-.32,15.88-1.68,23.69-2.84,9.06-1.35,18.11-2.9,27.06-4.88,7.76-1.71,15.62-3.63,22.93-6.79,4.3-1.86,8.31-4.41,12.25-6.91,4.66-2.96,9.18-6.13,13.54-9.51,14.27-11.08,26.48-24.54,36.22-39.75,6.74-10.53,11.91-21.84,17.77-32.85,10.4-19.56,14.47-41.65,14.17-63.67s-4.89-45.09-11.78-66.57c-3.4-10.58-7.81-20.46-13.69-29.91-6.99-11.24-15.42-21.62-25.02-30.72-11.31-10.72-24.34-19.67-38.61-26-16.55-7.34-34.51-11.01-52.6-11.15-19.5-.15-39.08,3.31-56.54,12.22s-31.99,21.76-47,33.77c-16.68,13.36-31.26,29.25-42.09,47.74-10.62,18.12-17.46,38.55-18.45,59.61-1.21,25.59,5.62,50.94,13.6,75.02,7.25,21.9,16.94,43.27,33.68,59.6,8.47,8.27,18.12,15.48,27.96,22.03,4.93,3.28,10.09,6.25,15.65,8.3s11.68,3.06,17.69,3.48c10.42,.73,21,.24,31.43-.19,10.22-.42,20.44-1.12,30.61-2.26,19.17-2.15,39.28-5.38,56.68-14.14,18.85-9.5,34.77-24.18,47.31-41.04,10.95-14.72,19.72-31.2,24.89-48.84,4.66-15.9,6.69-32.55,6.48-49.09-.22-17.43-2.91-34.85-7.91-51.55-5.21-17.38-12.93-34.04-23.03-49.12-10.5-15.68-23.54-29.6-38.57-41.02-15.3-11.62-33.52-18.1-52.48-20.56-19.13-2.48-38.71-1.09-57.56,2.82-16.97,3.52-33.61,9.12-48.93,17.26-16.87,8.96-32.4,20.5-44.9,35.02-12.37,14.37-21.44,31.2-27.97,48.95-6.53,17.76-9.27,36.61-9.57,55.49-.31,19.93,2,40.12,7.61,59.27,5.23,17.88,13.78,34.9,26.84,48.37,6.02,6.21,13,11.33,19.96,16.44,9.02,6.62,17.78,13.6,27.14,19.74,18.18,11.93,39.06,21.48,61.29,20.15,.96-.06,.97-1.56,0-1.5h0Z"/>
  <path d="M489.56,562.88c8.97,10.94,20.69,19.45,33.68,25s27.13,8.2,41.2,7.54c7.93-.37,15.81-1.82,23.34-4.35,.75-.25,.69-1.57-.2-1.47-24.05,2.61-49.49,3.21-72.46-5.51-6.45-2.45-12.59-5.68-18.23-9.66-.61-.43-1.44,.42-1.03,1.03,2.7,3.98,7,7.13,10.98,9.68,11.48,7.37,25.19,10.74,38.65,11.91,12.39,1.08,24.87,.26,37.15-1.56,.95-.14,.55-1.59-.4-1.45-18.97,2.82-38.97,3.28-57.48-2.41-8.93-2.75-17.78-7.03-24.57-13.57-.83-.8-1.64-1.64-2.38-2.53-.41-.49-.35-.39-.65-.84l-1.03,1.03c20.36,14.38,45.96,17.69,70.31,16.92,7.06-.22,14.11-.79,21.13-1.55l-.2-1.47c-13.22,4.45-27.46,5.47-41.22,3.3s-26.95-7.36-38.37-15.28c-6.42-4.45-12.21-9.78-17.17-15.82-.61-.75-1.67,.32-1.06,1.06h0Z"/>
  <path d="M571.4,433.12c18.47-1.16,37.05-.34,55.34,2.49,.77,.12,1.4-.95,.58-1.37-14.6-7.52-31.56-9.83-47.64-6.51l.4,1.45c14.61-5.1,30.59-2.95,45.64-1.45,.96,.1,.95-1.4,0-1.5-15.18-1.52-31.29-3.65-46.03,1.5-.91,.32-.55,1.64,.4,1.45,15.67-3.24,32.26-.97,46.49,6.35l.58-1.37c-18.43-2.85-37.13-3.71-55.74-2.54-.96,.06-.97,1.56,0,1.5h0Z"/>
  <path d="M634.37,466.02c-2.09,7.98-4.92,15.67-9.05,22.83-3.85,6.66-8,13.76-15.45,16.79-3.18,1.29-6.63,1.81-10.05,1.76-2.69-.04-5.51-.28-8.01-1.34-5.43-2.29-9.71-7.15-12.79-12.02-4.96-7.83-7.37-17.05-7.47-26.28l-1.47,.2c.7,3.53,1.74,7.02,2.88,10.43,2.24,6.7,5.12,13.39,9.39,19.07,4.04,5.37,9.69,9.93,16.72,9.93,9.33,0,17.09-6.95,22.38-13.97,4.2-5.57,7.73-11.98,10.05-18.58,.32-.91-1.13-1.3-1.45-.4-1.84,5.23-4.53,10.27-7.56,14.89-4.87,7.41-12,15.19-21.28,16.42-14.41,1.9-22.4-15.2-26.31-26.31-1.36-3.87-2.57-7.85-3.37-11.88-.17-.84-1.48-.63-1.47,.2,.1,8.68,2.18,17.33,6.42,24.93,3.09,5.53,7.45,10.9,13.11,13.95,5.28,2.85,12.27,2.86,17.95,1.35,3.71-.99,7.14-2.86,9.95-5.48,2.99-2.78,5.14-6.39,7.28-9.83,5.1-8.18,8.61-16.96,11.05-26.27,.25-.93-1.2-1.33-1.45-.4h0Z"/>
  <path d="M489.21,467.03c2.17,9,4.53,18.22,8.81,26.48,3.02,5.83,7.34,11.23,13.66,13.57s14.12,1.52,20.22-1.05c5.91-2.49,10.07-7.31,12.83-12.99,4.14-8.53,5.95-18.14,7.94-27.35l-1.47-.2c-.11,1.08-.31,2.25-.54,3.5-.55,2.99-1.27,5.94-2.17,8.84-2.35,7.55-5.99,15.21-12.13,20.41-6.97,5.91-17.34,7.2-25.54,3.07-7.36-3.71-11.79-11.2-14.36-18.76-1.64-4.81-2.49-9.72-3.06-14.75,0-.08-.01-.16-.02-.24-.05-.96-1.55-.97-1.5,0,.24,4.48,1.19,9.02,2.47,13.31,2.32,7.8,6.34,15.64,13.26,20.3,7.75,5.21,18.59,5.38,26.54,.51,7.29-4.47,11.79-12.34,14.67-20.17,1.21-3.29,2.16-6.67,2.88-10.1,.39-1.82,.88-3.77,.96-5.64,0-.09,.02-.18,.03-.28,.09-.84-1.3-1.02-1.47-.2-1.75,8.09-3.4,16.35-6.5,24.06-2.29,5.71-5.7,11.12-11.19,14.21-2.82,1.59-5.98,2.49-9.17,2.94-3.38,.48-6.89,.59-10.22-.24-6.22-1.54-10.68-6.21-13.79-11.61-4.95-8.55-7.41-18.5-9.7-28.03-.23-.94-1.67-.54-1.45,.4h0Z"/>
  <path d="M492.44,431.49c3.22-7.12,8.82-13.65,16.31-16.41,1.86-.69,3.91-1.26,5.91-1.18,2.33,.1,4.56,.91,6.81,1.45s4.46,.73,6.66,1.31,4.3,1.37,6.24,2.51c4.19,2.45,7.52,6.66,7.74,11.65l1.47-.2c-1.3-9.07-6.24-18.38-15.94-20.33-4.7-.94-9.69-.64-14.22,.94s-7.68,4.26-10.46,7.97c-1.51,2.01-2.7,4.22-4.31,6.16-1.51,1.81-2.79,3.61-3.61,5.85l1.47,.2c.25-2.24,1.56-4.14,2.92-5.87,1.25-1.59,2.62-3.09,4.09-4.48,2.99-2.82,6.5-5.27,10.41-6.62,8.35-2.9,17.11,.5,24.11,5.15,.71,.47,1.54-.61,.91-1.18-6.49-5.88-14.71-11.08-23.82-9.7-3.89,.59-8.22,2.01-11.38,4.43-2.79,2.13-5,5.07-6.76,8.07s-3.58,6.88-3.43,10.59c.04,.96,1.54,.97,1.5,0-.12-3.06,1.2-6.12,2.62-8.77,1.59-2.94,3.59-5.75,6.09-7.98,2.65-2.36,6.31-3.71,9.72-4.51,4.2-.99,8.22-.69,12.22,.92,4.54,1.83,8.57,4.74,12.18,8l.91-1.18c-5.94-3.94-13.13-7.07-20.41-6.36-6.9,.67-13.02,4.87-17.66,9.81-2.53,2.7-5.29,5.86-5.71,9.67-.1,.89,1.2,.94,1.47,.2,.72-1.98,1.89-3.58,3.22-5.19,1.14-1.37,2.06-2.85,3.05-4.33,2.42-3.64,5.26-6.9,9.31-8.72s8.7-2.45,13.12-1.95,8.18,2.29,11.14,5.59c3.46,3.86,5.09,8.96,5.81,14.01,.12,.84,1.51,.64,1.47-.2-.44-9.98-10.28-15.06-19.02-16.4-2.52-.38-4.91-1.18-7.4-1.68-2.31-.46-4.48-.35-6.76,.25-4.01,1.05-7.67,3.21-10.76,5.96-3.65,3.26-6.52,7.35-8.53,11.8-.4,.87,.9,1.64,1.3,.76h0Z"/>
  <path d="M490.78,467.18c18.82-.81,37.64-1.43,56.47-1.84,18.83-.42,37.66-.63,56.5-.65,10.62,0,21.24,.05,31.86,.16,.99,.01,.93-1.38,0-1.5-19.38-2.51-38.95-2.64-58.46-2.55-19.74,.08-39.48,.2-59.22,.3-5.48,.03-10.96,.06-16.44,.08-2.6,.01-5.39-.26-7.97,.08-1.3,.17-3.06,1.09-2.47,2.66,.12,.32,.37,.54,.72,.55,6.6,.17,13.21,.08,19.81,.01,10.51-.1,21.01-.3,31.52-.53,11.95-.27,23.9-.6,35.84-1.02,10.78-.38,21.55-.82,32.32-1.45,7.17-.42,14.39-.79,21.5-1.83,.51-.07,1.03-.16,1.54-.25,.95-.17,.55-1.61-.4-1.45-6.44,1.14-13.07,1.43-19.58,1.84-10.48,.66-20.98,1.1-31.48,1.49-11.85,.44-23.7,.78-35.55,1.07-10.8,.26-21.61,.47-32.41,.59-7.18,.08-14.37,.18-21.55,.06-.52,0-1.04-.02-1.56-.03l.72,.55c-.4-1.07,5.43-.83,6-.83,2.41-.01,4.82-.02,7.22-.04,4.73-.02,9.47-.05,14.2-.07,9.38-.05,18.77-.09,28.15-.14,18.72-.09,37.46-.47,56.17,.08,10.49,.31,20.97,.98,31.38,2.33v-1.5c-18.83-.21-37.67-.22-56.5-.03s-37.66,.58-56.49,1.17c-10.61,.33-21.23,.73-31.84,1.19-.96,.04-.97,1.54,0,1.5h0Z"/>
  <path d="M490.63,464.04c-14.97-4.04-30.2-7-45.51-9.41-7.57-1.19-15.16-2.24-22.76-3.24-3.85-.5-7.7-.99-11.55-1.47-1.76-.22-3.53-.44-5.29-.65-2-.25-4.12-.72-6.14-.63-1.76,.07-3.24,.83-4.67,1.8-1.85,1.26-3.66,2.6-5.49,3.9-3.6,2.56-7.2,5.13-10.8,7.69-.78,.56-.03,1.86,.76,1.3,3.2-2.28,6.4-4.56,9.6-6.84,1.47-1.04,2.93-2.09,4.4-3.13s2.97-2.35,4.69-2.94,3.54-.15,5.25,.06c2,.25,4.01,.49,6.01,.74,3.77,.47,7.54,.94,11.31,1.43,14.99,1.94,29.97,4.11,44.81,7.04,8.39,1.66,16.74,3.57,25,5.8,.93,.25,1.33-1.19,.4-1.45h0Z"/>
  <path d="M492,465.78c-30.4-6.9-61.02-13.06-91.79-18.01-1.88-.3-3.77-.54-5.55,.31-1.68,.8-3.1,2.19-4.53,3.35-3.44,2.78-6.88,5.57-10.32,8.35-.75,.61,.32,1.66,1.06,1.06,2.93-2.37,5.86-4.74,8.79-7.12,1.43-1.16,2.82-2.38,4.3-3.46,1.86-1.36,3.66-1.4,5.85-1.05,7.46,1.18,14.89,2.52,22.32,3.86,14.86,2.68,29.68,5.57,44.46,8.68,8.35,1.76,16.69,3.58,25.01,5.47,.94,.21,1.34-1.23,.4-1.45h0Z"/>
  <path d="M377.56,466.07c3.25-2.52,6.5-5.05,9.76-7.57,2.85-2.21,5.69-4.96,9-6.47s7.81-1,11.49-.78c3.89,.23,7.76,.63,11.62,1.1,15.9,1.93,31.76,4.34,47.58,6.85,8.94,1.42,17.86,2.91,26.77,4.47,.94,.17,1.35-1.28,.4-1.45-16.2-2.84-32.45-5.44-48.73-7.81-8.1-1.18-16.21-2.33-24.33-3.35-4.02-.51-8.05-.96-12.1-1.23-3.71-.25-7.83-.75-11.48,.19s-6.9,4.03-9.92,6.37c-3.71,2.88-7.42,5.75-11.12,8.63-.76,.59,.31,1.65,1.06,1.06h0Z"/>
  <path d="M497.44,468.19c-.8,2.35-1.6,4.71-2.41,7.06-.23,.68,.56,1.09,1.1,.85,5.44-2.47,11.09-4.41,16.89-5.83l-.95-.72c.14,1.25-1.25,2.38-1.99,3.25-.9,1.06-1.79,2.11-2.69,3.17-1.74,2.05-3.48,4.1-5.22,6.16-.53,.63,.13,1.61,.91,1.18,8.92-5.01,18.03-9.67,27.31-13.99l-.91-1.18c-3.78,3.39-7.6,6.74-11.33,10.19-3.21,2.97-6.27,6.16-8.32,10.06-.32,.61,.37,1.49,1.03,1.03,9.02-6.35,18.04-12.71,27.05-19.06l-1.1-.45c.4,1.35-.42,2.55-1.18,3.6s-1.56,2.11-2.34,3.16c-1.68,2.27-3.36,4.53-5.04,6.8-3.31,4.47-6.63,8.93-9.94,13.4-.44,.6,.43,1.45,1.03,1.03,8.27-5.87,16.79-11.39,25.54-16.53l-1.03-1.03c-3.48,4.84-6.96,9.68-10.44,14.52-.56,.78,.74,1.53,1.3,.76,3.48-4.84,6.96-9.68,10.44-14.52,.45-.63-.42-1.38-1.03-1.03-8.75,5.14-17.27,10.66-25.54,16.53l1.03,1.03c3.61-4.87,7.22-9.73,10.83-14.6,1.78-2.4,3.56-4.8,5.34-7.2,1.35-1.82,3.21-3.88,2.49-6.32-.13-.43-.69-.74-1.1-.45-9.02,6.35-18.04,12.71-27.05,19.06l1.03,1.03c2.06-3.92,5.15-7.08,8.39-10.04,3.64-3.34,7.35-6.61,11.02-9.9,.67-.61-.18-1.52-.91-1.18-9.28,4.31-18.39,8.98-27.31,13.99l.91,1.18c2.05-2.42,4.11-4.85,6.16-7.27,1-1.18,2.02-2.35,3-3.54,.69-.84,1.29-1.69,1.17-2.82-.05-.49-.44-.85-.95-.72-5.93,1.45-11.69,3.45-17.25,5.98l1.1,.85c.8-2.35,1.6-4.71,2.41-7.06,.31-.92-1.14-1.31-1.45-.4h0Z"/>
  <path d="M575.29,471.31c6.04-2.1,12.08-4.2,18.13-6.29l-.73-1.25c-6.06,5.73-12.12,11.46-18.18,17.2-.62,.59,.18,1.61,.91,1.18,7.1-4.21,14.22-8.4,21.69-11.94l-1.03-1.03c-4.73,8.02-9.45,16.03-14.18,24.05-.45,.76,.55,1.45,1.18,.91,8.94-7.8,17.91-15.6,27.86-22.11l-1.03-1.03c-4.85,8.77-11.24,16.51-17.63,24.18-.5,.6,.18,1.73,.91,1.18,5.43-4.14,10.85-8.28,16.28-12.42,2.68-2.05,5.36-4.09,8.04-6.14,1.28-.98,2.56-1.98,3.85-2.94s2.82-2.04,4.53-1.8l-.45-1.1c-4.93,8.03-10.23,15.83-15.89,23.37-.48,.64,.42,1.36,1.03,1.03,2.18-1.2,4.36-2.4,6.54-3.6,.85-.47,.09-1.76-.76-1.3-2.18,1.2-4.36,2.4-6.54,3.6l1.03,1.03c5.66-7.54,10.96-15.33,15.89-23.37,.23-.37,.04-1.03-.45-1.1-3.03-.43-5.33,1.67-7.58,3.39-2.94,2.25-5.88,4.49-8.82,6.74-5.82,4.44-11.63,8.88-17.45,13.32l.91,1.18c6.47-7.77,12.96-15.6,17.87-24.48,.35-.63-.37-1.45-1.03-1.03-10.05,6.58-19.13,14.46-28.16,22.34l1.18,.91c4.73-8.02,9.45-16.03,14.18-24.05,.41-.69-.38-1.33-1.03-1.03-7.47,3.54-14.58,7.73-21.69,11.94l.91,1.18c6.06-5.73,12.12-11.46,18.18-17.2,.53-.5-.01-1.5-.73-1.25-6.04,2.1-12.08,4.2-18.13,6.29-.91,.31-.52,1.76,.4,1.45h0Z"/>
</svg>