<?xml version="1.0" encoding="UTF-8"?>
<svg id="_Слой_4" data-name="Слой 4" xmlns="http://www.w3.org/2000/svg" viewBox="0 0 1000 1000">
  <path d="M339,497.93c-13.9,40.8-2.83,86.53,22.83,120.34,27.42,36.14,70.97,56.03,115.51,60.62,46.32,4.77,98.22-5.21,135.36-34.37,33.35-26.24,49.41-67.82,50.07-109.41,.7-43.25-14.7-85.61-41.79-119.25-29.11-36.14-71.73-60.49-118.62-62.27-23.93-1.13-47.74,4.03-69.04,14.96-20.86,11-38.28,27.5-52.55,46.11-29.64,38.5-48.18,87.89-41.55,136.84,3.04,21.7,10.46,42.55,21.83,61.31,11.36,18.75,26.43,35.01,44.29,47.79,37.88,26.67,87.67,34.51,132.32,22.75,10.91-2.88,21.48-6.95,31.5-12.11,.79-.41,.1-1.6-.69-1.2-40.87,21.03-90.68,22.78-133.16,5.39-41.28-16.89-73.11-52.45-87.6-94.33-15.64-45.37-7.86-94.07,14.72-135.71,22.58-41.64,58.33-78.21,106.13-87.84,46.43-9.39,94.55,5.65,129.77,36.54,32.62,28.79,54.18,67.98,61.01,110.87,6.15,39.87-.88,83.23-25.53,116.04-28.17,37.49-76.58,54.38-122.07,57.19-45.26,2.75-92.9-8.91-127.91-38.65-31.82-27.03-51.7-69.13-49.35-111.06,.56-10.3,2.55-20.48,5.89-30.25,.28-.84-1.05-1.2-1.38-.36l.04,.05Z"/>
  <path d="M328.93,528.55c12.06-47.47,25.9-98.99,66.06-130.95,20.5-16.33,45.44-26.3,70.72-32.68,28.4-7.14,58.64-10.02,87.42-3.3,26.83,6.26,52.06,21.24,67.51,44.35,.5,.73,1.7,0,1.2-.7-13.46-20.11-34.22-34.22-57.04-41.81-27.5-9.12-57.3-8.44-85.45-2.98-26.28,5.1-52.62,13.9-75.11,28.69-21.6,14.26-37.82,34.22-49.33,57.19-12.92,25.82-20.28,53.98-27.37,81.82-.05,.18-.02,.38,.07,.54,.09,.16,.25,.28,.43,.33,.18,.05,.38,.02,.54-.07s.28-.25,.33-.43Z"/>
  <path d="M393.39,492.58c-1.73,3.06-2.65,6.5-2.67,10.01-.02,3.51,.86,6.97,2.56,10.04,1.78,3.25,4.33,6.01,7.42,8.05,3.1,2.04,6.65,3.29,10.34,3.65,17.28,2.06,30.5-11.59,35.15-26.99l-1.38-.18c.87,10.63-9.82,18.99-20,18.26-11.32-.81-19.75-10.68-23.32-20.72-.04-.12-.12-.24-.22-.32-.1-.08-.23-.14-.36-.15-.13-.02-.26,0-.38,.06-.12,.05-.22,.14-.3,.25-6.1,10.11,1.81,22.33,12.84,23.85,13.68,1.88,23.88-9.12,27.88-21.02,.04-.16,.03-.33-.05-.48-.07-.15-.2-.27-.35-.33-.15-.07-.32-.07-.48-.02-.16,.05-.29,.16-.38,.3-4.21,7.08-9.45,15.6-18.17,17.45-10.11,2.14-18.73-6.13-25.2-12.69-.62-.63-1.6,.34-.98,.98,6.65,6.72,15.27,14.82,25.59,13.21,9.66-1.48,15.41-10.6,19.95-18.24l-1.26-.54c-3.49,10.39-11.66,20.1-23.45,20.21-11.12,.11-21.03-11.38-14.66-22l-1.26-.17c3.85,10.83,13.2,21.53,25.57,21.76,10.58,.21,21.37-8.63,20.46-19.67,.03-.18-.02-.37-.13-.51-.11-.15-.28-.24-.46-.27-.18-.03-.37,.02-.52,.13-.15,.11-.24,.28-.27,.46-4.21,13.98-15.53,26.55-31.16,26.12-3.69,.04-7.33-.85-10.58-2.58-3.25-1.73-6.01-4.25-8.03-7.33-1.89-2.96-2.93-6.37-3.03-9.87-.1-3.5,.75-6.97,2.47-10.02,.09-.16,.12-.35,.07-.52-.05-.18-.16-.33-.32-.42-.16-.09-.35-.12-.53-.07-.18,.05-.33,.16-.42,.32h.01Z"/>
  <path d="M529.51,496.86c-2.08,13.46,9.1,26.31,22.47,27.65,14.61,1.37,27.59-10.19,31.32-23.62,.04-.16,.03-.33-.05-.48-.07-.15-.2-.27-.35-.33-.15-.07-.32-.07-.48-.02-.16,.05-.29,.16-.38,.3-6.04,10.54-14.47,22.3-27.88,22.9-12.26,.56-19.31-10.45-24.83-19.74-.1-.15-.25-.26-.42-.31-.18-.04-.36-.02-.52,.08-.16,.09-.27,.24-.31,.42s-.02,.36,.07,.52c2.36,4.37,5.79,8.07,9.98,10.75,4.19,2.68,8.99,4.26,13.96,4.58,4.97,.32,9.93-.62,14.43-2.75,4.5-2.12,8.38-5.35,11.29-9.38,.52-.72-.66-1.37-1.2-.7-2.83,3.74-6.56,6.72-10.84,8.67-4.28,1.95-8.98,2.8-13.67,2.48-4.69-.32-9.23-1.8-13.21-4.3-3.98-2.51-7.26-5.96-9.56-10.05l-1.19,.7c5.71,9.72,13.26,20.99,26.01,20.42,13.92-.62,22.77-12.59,29.06-23.58l-1.26-.54c-3.43,12.37-14.76,22.92-28.07,22.71-13.31-.21-25.12-12.74-23.08-26.01,.14-.87-1.2-1.24-1.38-.36h.07Z"/>
  <path d="M463.41,578.18c3.7-10.54,14.03-17.61,25.02-18.63,5.36-.51,10.75,.64,15.43,3.29,5.7,3.24,10.36,8,16,11.36,.11,.06,.22,.08,.34,.08,.12,0,.24-.03,.34-.09s.19-.14,.25-.25c.06-.1,.1-.22,.1-.34,.11-13.86-17.93-20.14-29.35-18.57-14.11,1.92-24.54,13.75-27.84,27.08l1.38,.37c2.39-14.33,17.74-19.33,29.92-22.74,5.52-1.55,11.96-3.05,17.64-1.15s7.38,8.14,12.32,11.14c.76,.47,1.38-.73,.69-1.18-3.01-1.83-4.44-4.99-6.76-7.49-1.83-1.99-4.19-3.42-6.8-4.12-6.04-1.61-12.61,0-18.44,1.7-12.41,3.55-27.49,8.95-29.9,23.37-.14,.85,1.12,1.25,1.38,.37,2.84-11.73,11.59-22.55,23.81-25.48,5.71-1.35,11.69-.95,17.17,1.14,6.41,2.47,13.42,8.14,13.37,15.58l1.05-.6c-6.47-3.84-11.74-9.62-18.68-12.7-4.84-2.06-10.17-2.71-15.37-1.88-10.92,1.62-20.77,8.91-24.44,19.41-.29,.84,1.03,1.2,1.38,.36h-.01Z"/>
  <path d="M569.45,541.61c-5.23,10.05-7.85,21.25-7.61,32.57,.17,4.04,1.05,8.36,4.14,11.25,1.18,1.21,2.69,2.05,4.34,2.41,1.66,.36,3.38,.22,4.95-.4,7.48-3.41,7.75-15.99,7.09-22.81-.92-9.36-4.91-18.15-11.37-25.01-.09-.09-.19-.15-.31-.18-.12-.03-.24-.03-.36,0s-.22,.09-.31,.18c-.09,.09-.15,.19-.18,.31-1.55,10.75-3.11,21.5-4.68,32.25-.83,5.84-1.14,15.99,7.01,16.91,7.72,.85,9.85-8.39,9.66-14.13-.5-9.74-2.64-19.33-6.33-28.36-.32-.81-1.66-.45-1.38,.37,2.81,6.98,4.72,14.28,5.71,21.74,.64,3.63,.76,7.33,.37,11-.72,4.51-4.98,10.34-10.21,7.19-7.19-4.32-3.19-16.62-2.23-23.11,1.13-7.84,2.27-15.68,3.41-23.52l-1.16,.3c5.26,5.6,8.85,12.54,10.37,20.06,1.38,6.98,1.77,17.52-3.08,23.37-3.71,4.47-9.79,2.64-12.29-2.09-2.08-3.97-1.93-8.74-1.67-13.1,.61-9.24,3.1-18.26,7.31-26.52,.4-.78-.8-1.48-1.19-.69v.03Z"/>
  <path d="M413.26,597.01c-.47,4.39-6.07,41.88,7.95,34.85,6.06-3.05,6.25-12.28,4.88-17.87-1.99-8.07-7.27-15-12.41-21.34-.57-.69-1.53,.29-.98,.98,4.33,5.33,8.65,11,11.03,17.52,2.06,5.5,3.12,14.12-1.86,18.55-3.92,3.49-7.31,0-8.28-3.88-.48-2.46-.63-4.98-.44-7.48,.17-7.12,.66-14.23,1.38-21.32,.1-.88-1.28-.87-1.38,0h.11Z"/>
  <path d="M418.88,477.42c13.74-6.65,26.46-15.21,37.79-25.42,.68-.6-.29-1.53-.97-.98-11.15,9.06-24.14,15.6-38.07,19.17-.18,.05-.34,.17-.43,.33-.09,.16-.12,.36-.07,.54s.17,.34,.33,.43c.16,.09,.36,.12,.54,.07,14.14-3.64,27.32-10.31,38.62-19.52l-.97-.98c-11.24,10.11-23.87,18.59-37.49,25.17-.79,.39-.1,1.57,.7,1.18Z"/>
  <path d="M525.99,443.17c3.65,6.6,8.66,12.37,14.7,16.92,6.04,4.55,12.97,7.78,20.34,9.48,.18,.05,.38,.02,.54-.07s.28-.25,.33-.43c.05-.18,.02-.38-.08-.54-.1-.16-.25-.28-.44-.33-11.74-3.29-21.74-10.99-27.89-21.49-.32-.55-1.38-.36-1.28,.34,.82,5.93,3.49,11.44,7.64,15.76,4.15,4.32,9.57,7.22,15.47,8.28,.72,.12,1.3-.89,.54-1.25-10.13-4.93-19.88-10.58-29.19-16.91-.58-.38-1.38,.38-.95,.95,6.82,10.58,16.24,19.23,27.37,25.15,.77,.41,1.48-.77,.69-1.2-10.93-5.78-20.18-14.27-26.86-24.65l-.95,.95c9.3,6.33,19.05,11.98,29.17,16.9l.54-1.25c-5.61-.99-10.76-3.72-14.72-7.8-3.96-4.08-6.53-9.3-7.34-14.92l-1.3,.34c6.32,10.83,16.63,18.78,28.73,22.18l.36-1.37c-7.2-1.66-13.96-4.81-19.86-9.25-5.89-4.44-10.78-10.07-14.35-16.51-.43-.78-1.61-.08-1.19,.69l-.03,.06Z"/>
</svg>
