<?xml version="1.0" encoding="UTF-8"?>
<svg id="_Слой_1" data-name="Слой 1" xmlns="http://www.w3.org/2000/svg" viewBox="0 0 1000 1000">
  <path d="M398.81,651.89c-13.31-9.96-24.53-22.63-33.95-36.27s-17.56-29.47-23.51-45.54-10.35-33.04-12.3-50.17c-1.79-15.68-1.17-31.5,1.77-47,5.69-29.98,19.65-58.33,39.82-81.22s48.28-40.77,78.72-49.23,64.34-8.49,95.08,.88c28.67,8.73,54.4,25.73,74.39,47.99s33.84,49.03,39.77,78c3.81,18.58,4.11,37.5,.62,56.14-2.77,14.81-7.01,29.38-12.8,43.29s-13.34,27.57-23.13,39.26c-9.69,11.57-21.98,20.6-34.75,28.51-11.67,7.22-24.16,12.82-37.27,16.86-7.07,2.18-14.26,3.96-21.49,5.56-6.61,1.46-13.22,2.83-19.95,3.59-13.81,1.57-27.81,1.6-41.67,.67s-28.11-2.86-41.59-6.86c-27.14-8.05-48.14-28.71-62.44-52.54-15.2-25.33-23.91-54.67-26.07-84.07-2.29-31.11,2.45-63.52,16.87-91.43,7.38-14.28,17.54-26.66,28.93-37.93,6.16-6.1,12.74-11.8,19.89-16.71,7.03-4.83,14.52-8.62,22.49-11.62,32.75-12.34,68.5-15.24,103.17-12,17.32,1.62,34.62,4.7,51.39,9.36,12.72,3.53,24.74,9.17,34.78,17.83s17.44,18.99,24.69,29.59c4.08,5.97,8.14,11.95,11.61,18.3s6.64,13.35,9.25,20.33c10.47,28.02,14.74,60.2,7.15,89.47-1.88,7.26-4.72,14.13-7.9,20.91s-6.84,13.67-10.82,20.19c-7.55,12.38-16.52,23.8-26.49,34.32-10.18,10.76-21.29,20.59-32.63,30.1-.74,.62,.33,1.68,1.06,1.06,23.37-19.59,45.32-40.87,60.91-67.33,7.65-12.98,14.6-26.95,18-41.69s3.79-29.96,2.21-44.89-5.41-30.88-11.15-45.42c-2.71-6.86-5.85-13.55-9.49-19.96s-7.88-12.52-12.08-18.59c-7.29-10.53-15.13-20.92-25.12-29.05s-22.73-13.82-35.66-17.22c-34.4-9.06-70.7-12.63-106.1-8.21-17.35,2.17-34.47,6.28-50.71,12.79s-29.28,16.95-41.14,28.97-21.38,24.13-28.6,38.7-11.64,29.56-14.15,45.19c-4.89,30.39-2.25,61.95,7.16,91.24,8.97,27.91,24.2,55.14,47.2,73.85,10.3,8.38,21.87,14.59,34.64,18.23,13.71,3.91,28.04,5.77,42.24,6.64s28.27,.76,42.25-1.02c6.95-.88,13.81-2.37,20.63-3.93,7.34-1.67,14.64-3.56,21.81-5.88,13.22-4.29,25.75-10.24,37.45-17.75,12.83-8.23,24.9-17.48,34.43-29.47,18.98-23.87,29.85-54.2,34.99-84,5.74-33.27-1.31-67.97-17-97.63-13.94-26.35-34.78-49.07-59.95-65.07-26.77-17.01-58.2-25.61-89.87-25.39-32.36,.23-64.78,9.48-91.88,27.28-25.82,16.95-46.47,41.4-59.65,69.27-13.45,28.44-19.05,60.27-14.98,91.53,4.46,34.25,17.39,68.12,37.51,96.23,9.19,12.85,19.97,24.69,32.65,34.18,.77,.58,1.52-.72,.76-1.3h0Z"/>
  <path d="M433.84,599.33c6.8-4.6,13.6-9.2,20.4-13.8,2.03-1.37,4.67-3.65,6.75-1.24,1.21,1.41,1.82,3.32,2.53,5.01,.66,1.57,1.36,3.29,2.67,4.44,1.54,1.34,3.6,1.25,5.24,.12,1.38-.95,2.53-2.28,3.71-3.45,1.29-1.27,2.59-2.54,3.88-3.81,2.28-2.23,4.55-4.47,6.83-6.7,1.23-1.21,2.46-2.41,3.69-3.62,.54-.53,1.15-1.42,1.92-1.58,.67-.13,1.39,.22,1.95,.54,2.44,1.39,4.05,3.84,6.43,5.3s5.26,1.95,7.77,.75c2.33-1.12,3.67-3.46,4.96-5.58,1.57-2.56,3.39-5.01,6.69-5.04,3.55-.03,6.55,2.22,8.9,4.66,2.77,2.88,7.83,10.96,12.54,6.84,1.58-1.39,2.46-3.46,3.45-5.27,.87-1.59,2.04-3.91,4.11-4.04,4.47-.29,6.06,8.05,11,5.72,.87-.41,.11-1.71-.76-1.3-1.9,.9-3.64-1.57-4.75-2.75-1.36-1.44-2.97-3.06-5.07-3.17-3.95-.22-5.59,4.55-7.2,7.32-.8,1.37-1.91,3.2-3.73,3.14-1.69-.06-3.09-1.66-4.19-2.78-1.3-1.33-2.49-2.77-3.75-4.14-2.17-2.35-4.64-4.47-7.79-5.34-2.72-.75-5.58-.38-7.76,1.49-1.99,1.72-3.03,4.23-4.54,6.34-1.97,2.76-4.93,3.84-8.14,2.39-2.5-1.13-4.18-3.51-6.36-5.12-.9-.66-1.92-1.29-3.05-1.43-1.32-.16-2.13,.45-3.03,1.33-4.81,4.72-9.62,9.44-14.43,14.16-1.3,1.27-2.55,2.79-4.05,3.84-.95,.67-2.13,.96-3.15,.31-1.43-.92-2.12-2.92-2.74-4.41-.77-1.85-1.47-3.89-2.86-5.38-1.72-1.83-4.03-1.68-6.08-.43-3.88,2.36-7.57,5.1-11.33,7.65s-7.62,5.15-11.43,7.73c-.8,.54-.05,1.84,.76,1.3h0Z"/>
  <path d="M438.79,596.58c5.12-3.44,10.84-6.35,16.68-8.38,1.73-.6,2.96-.46,4.61,.69,2.02,1.42,3.55,3.45,5.28,5.19,1.48,1.49,3.23,3.05,5.38,3.35,3.31,.45,5.67-2.82,7.74-4.9,2.35-2.35,4.65-4.74,6.96-7.13,1.13-1.17,2.27-2.34,3.42-3.5,.64-.65,1.29-1.3,1.94-1.95,.32-.32,.65-.64,.97-.97,.18-.18,.65-.8,.71-.81,.5-.16,1.45,.49,1.85,.71,.93,.52,1.81,1.14,2.68,1.75,1.93,1.36,3.79,2.83,5.78,4.1,1.24,.79,2.95,1.96,4.51,1.69,2.14-.36,3.92-2.94,5.12-4.53,1.76-2.32,3.26-4.98,5.46-6.93,2.73-2.41,6.52-1.7,9.41,.05,3.25,1.98,5.43,5.29,8.07,7.95,1.88,1.9,4.17,3.81,6.97,2.74,4.24-1.63,5.68-6.84,9.55-8.97,2.21-1.22,4.66,.12,6.7,1.1,2.36,1.14,4.79,2.59,7.42,2.95,1.04,.14,2.02,.03,2.97-.41,.87-.41,.11-1.7-.76-1.3-2.28,1.07-5.41-.83-7.41-1.81-2.14-1.05-4.57-2.53-7.03-2.55-4.4-.04-6.94,5.28-9.66,7.94-.74,.72-1.58,1.44-2.59,1.74-1.57,.46-2.89-.44-4.03-1.46-2.82-2.53-4.93-5.76-7.91-8.13-2.41-1.92-5.57-3.28-8.7-2.85-2.74,.37-4.6,2.24-6.22,4.32-1.81,2.32-3.32,4.92-5.4,7.02-.59,.6-1.48,1.59-2.38,1.64-.72,.04-1.55-.47-2.15-.8-3.74-2.06-6.81-5.45-10.77-7.11-.54-.23-1.32-.53-1.92-.33-.65,.22-1.22,1.06-1.69,1.53-.72,.71-1.44,1.43-2.15,2.15-2.3,2.32-4.56,4.67-6.83,7.01-1.17,1.21-2.35,2.41-3.53,3.6-1.41,1.42-2.81,3.12-4.46,4.27-2.37,1.65-4.76-.11-6.51-1.79-2.65-2.55-6.04-7.92-10.38-7.18-1.75,.3-3.51,1.19-5.12,1.88-3.03,1.29-6,2.73-8.88,4.34-1.53,.86-3.03,1.77-4.49,2.75-.8,.53-.05,1.83,.76,1.3h0Z"/>
  <path d="M413.97,463.08c3.88-.08,7.78,.49,11.6,1.14,4.95,.85,9.85,1.96,14.72,3.16,9.09,2.25,18.12,4.84,27.02,7.75,2.15,.7,4.76,1.48,6.64,2.32,.05,.02,.45,.26,.49,.24-.13,.07-.43-.83-.28-.77,0,0,.07-.03-.13,.12-.64,.48-1.36,1-2.11,1.46-7.14,4.39-14.8,8.03-22.27,11.81-8.39,4.24-16.83,8.38-25.18,12.7-.71,.37-1.41,.73-2.11,1.1-.85,.45-.1,1.75,.76,1.3,8.22-4.34,16.58-8.41,24.89-12.6s16.23-7.99,23.97-12.6c.79-.47,4.33-2.1,3.53-3.51-.26-.46-1.01-.64-1.45-.82-1.02-.41-2.06-.76-3.1-1.12-8.47-2.91-17.09-5.41-25.75-7.68-9.33-2.45-18.99-4.98-28.67-5.47-.85-.04-1.7-.06-2.55-.04-.96,.02-.97,1.52,0,1.5h0Z"/>
  <path d="M411.25,486.37c9.1-4.57,19.67-2.84,29.45-2.68,7.68,.13,15.57-.06,23.07-1.81,3.45-.81,7.11-2,9.74-4.5,.7-.67-.36-1.73-1.06-1.06-2.36,2.24-5.68,3.29-8.78,4.04-3.91,.94-7.93,1.37-11.93,1.62-8,.49-15.92-.14-23.92-.2-5.96-.04-11.94,.59-17.33,3.29-.86,.43-.1,1.73,.76,1.3h0Z"/>
  <path d="M565.15,451.7c-15.2,6.99-30.4,13.99-45.6,20.98-.61,.28-.4,1.21,.18,1.37,15.32,4.34,30.35,9.7,44.94,16.09,4.11,1.8,8.19,3.68,12.23,5.64,.87,.42,1.63-.87,.76-1.3-14.38-6.96-29.23-12.95-44.42-17.89-4.34-1.41-8.72-2.74-13.11-3.98l.18,1.37c15.2-6.99,30.4-13.99,45.6-20.98,.88-.4,.11-1.7-.76-1.3h0Z"/>
  <path d="M521.37,473.06c4.99-1.17,10.12-1.57,15.23-1.14,4.68,.39,9.28,1.43,13.87,2.37,8.52,1.73,17.56,3.22,25.71-.7,.87-.42,.11-1.71-.76-1.3-8.44,4.05-17.99,1.89-26.72,.1-4.39-.9-8.8-1.8-13.28-2.06-4.85-.28-9.72,.18-14.45,1.28-.94,.22-.54,1.67,.4,1.45h0Z"/>
  <path d="M466.88,415.44c-5.47,4.38-11.09,8.59-17.23,11.99-6.72,3.72-13.98,6.34-21.55,7.66-5.16,.9-10.41,1.2-15.64,1.08-.97-.02-.97,1.48,0,1.5,8.87,.19,17.76-.87,26.18-3.72,7.06-2.39,13.62-5.98,19.73-10.22,3.28-2.28,6.44-4.73,9.57-7.23,.75-.6-.31-1.66-1.06-1.06h0Z"/>
  <path d="M466.66,417.14c-5.26,4.66-10.68,9.17-16.66,12.88-6.56,4.06-13.7,7.05-21.24,8.74-5.06,1.14-10.22,1.69-15.4,1.84-.96,.03-.97,1.53,0,1.5,8.83-.25,17.63-1.73,25.87-4.98,6.97-2.75,13.36-6.65,19.28-11.21,3.17-2.44,6.22-5.05,9.21-7.71,.72-.64-.34-1.7-1.06-1.06h0Z"/>
  <g>
    <path d="M512.48,417.14c16.16,9.24,34.55,13.42,53,14.65,5.33,.36,10.68,.47,16.02,.42,.96,0,.97-1.51,0-1.5-18.89,.14-37.37-5.47-54.31-13.51-4.75-2.25-9.39-4.72-13.95-7.33-.84-.48-1.6,.81-.76,1.3,16.46,9.44,34.37,17.07,53.24,19.9,5.22,.78,10.49,1.19,15.78,1.15v-1.5c-18.3,.17-36.86-1.68-54.08-8.18-4.9-1.85-9.64-4.09-14.18-6.69-.84-.48-1.6,.82-.76,1.3h0Z"/>
    <path d="M581.51,438.2c-18.89,.14-37.37-5.47-54.31-13.51-4.75-2.25-9.39-4.72-13.95-7.33-.84-.48-1.6,.81-.76,1.3,16.46,9.44,34.37,17.07,53.24,19.9,5.22,.78,10.49,1.19,15.78,1.15,.96,0,.97-1.51,0-1.5h0Z"/>
  </g>
</svg>
