<?xml version="1.0" encoding="UTF-8"?>
<svg id="_Слой_5" data-name="Слой 5" xmlns="http://www.w3.org/2000/svg" viewBox="0 0 1000 1000">
  <g>
    <path d="M541.02,513.49c-3.75-5.36-7.76-10.58-12.74-14.86-5.99-5.16-13.06-8.71-20.59-11.03-.92-.29-1.32,1.16-.4,1.45,7.38,2.28,14.33,5.77,20.17,10.86,4.78,4.16,8.64,9.17,12.26,14.34,.55,.79,1.85,.04,1.3-.76h0Z"/>
    <path d="M541.23,512.37c-3.47-5.52-7.22-10.91-11.98-15.41-5.73-5.43-12.63-9.29-20.03-11.96-.92-.33-1.27,1.09-.4,1.45,.18,.07-.14-.07,0,0s.31,.13,.46,.2c.55,.25,1.1,.51,1.64,.78,1.88,.93,3.71,1.97,5.49,3.09,5.42,3.41,10.45,7.63,14.29,12.79,2.52,3.38,4.47,7.13,5.65,11.18,.27,.92,1.72,.53,1.45-.4-3.65-12.52-14.24-21.88-25.54-27.66-1-.51-2.01-1-3.04-1.43l-.4,1.45c7.26,2.62,14.02,6.44,19.61,11.8,4.56,4.37,8.15,9.56,11.5,14.88,.51,.82,1.81,.06,1.3-.76h0Z"/>
  </g>
  <g>
    <path d="M409.6,513.32c10.28-11.2,24.21-17.83,38.53-22.27l-.4-1.45c-14.98,4.68-27.57,14.87-38.03,26.29-.65,.71,.41,1.77,1.06,1.06,10.28-11.23,22.64-21.3,37.37-25.91,.92-.29,.53-1.73-.4-1.45-14.56,4.51-28.74,11.28-39.19,22.66-.65,.71,.41,1.77,1.06,1.06h0Z"/>
    <path d="M446.27,485.04c-14.98,4.68-27.57,14.87-38.03,26.29-.65,.71,.41,1.77,1.06,1.06,10.28-11.23,22.64-21.3,37.37-25.91,.92-.29,.53-1.74-.4-1.45h0Z"/>
  </g>
  <path d="M458.83,740.48c-7.07,1.63-14.52,1.31-21.68,.5-8.6-.97-17.1-2.83-25.45-5.07-8.03-2.15-15.97-4.7-23.77-7.56-6.79-2.49-13.48-5.16-19.81-8.68-14.79-8.23-28.55-18.97-40.46-30.97-5.27-5.31-9.98-10.97-13.84-17.39-4.64-7.71-8.37-15.95-11.23-24.49-5.86-17.46-8.17-35.99-7.92-54.36,.25-18.42,3.04-36.8,7.95-54.55,2.31-8.36,5.03-16.61,8.73-24.47,3.46-7.34,7.67-14.33,12.51-20.84,9.74-13.12,22.04-24.22,35.66-33.2,14.2-9.37,29.82-16.5,45.99-21.72,16.22-5.24,32.97-8.14,50.03-8.18,16.76-.04,33.56,2.5,49.47,7.79,15.63,5.2,30.44,13.14,42.93,23.93,13.5,11.67,23.75,26.57,30.46,43.07,7.16,17.58,10.45,36.52,11.53,55.4,1.02,17.9,.31,36.01-1.97,53.79-2.16,16.86-5.96,33.63-12.26,49.44-6.13,15.41-14.82,29.93-26.58,41.71-13.85,13.87-31.35,22.57-49.99,28.13-19.54,5.83-39.97,8.72-60.37,8.49-20.15-.23-40.31-3.56-59.3-10.37-16.76-6.01-32.73-14.73-46.33-26.28-12.22-10.38-22.39-23.03-29.71-37.3-8.07-15.73-12.3-32.98-14.23-50.48-2.21-20.04-1.56-40.52,2.29-60.32,1.9-9.77,4.7-19.27,8.24-28.58,3.85-10.12,8.24-20.06,13.69-29.44,8.18-14.07,18.99-26.49,31.51-36.88s27.18-19,42.52-25.14,31.73-10.06,48.27-11.35,33.14-.02,49.13,4.12,31.93,11.5,45.87,21.09c13.8,9.49,26.05,21.28,36.11,34.67s17.79,28.03,22.88,43.77c5.13,15.86,7.34,32.53,6.28,49.17-1.35,21.18-7.43,41.79-15.6,61.28-4.13,9.85-8.8,19.47-13.78,28.91-4.55,8.62-9.41,17.09-14.96,25.11s-12.06,15.87-19.42,22.57-15.88,12.37-24.89,16.84c-17.94,8.89-38,13.32-57.98,13.57-19.63,.24-39.34-3.52-57.44-11.17-7.9-3.34-15.26-7.62-22.66-11.93-5.79-3.38-11.55-6.79-17.15-10.47-11.71-7.69-22.53-16.65-31.44-27.51-10.97-13.37-18.73-29.02-24.42-45.28-.32-.91-1.77-.52-1.45,.4,5.9,16.84,13.97,32.98,25.45,46.73,9.14,10.94,20.23,19.92,32.16,27.65,5.72,3.71,11.61,7.17,17.5,10.6,7.7,4.49,15.41,8.79,23.7,12.13,18.45,7.43,38.51,10.91,58.38,10.3s39.78-5.35,57.53-14.44c8.98-4.6,17.34-10.37,24.73-17.25,7.25-6.75,13.54-14.47,19.13-22.63s10.61-16.99,15.24-25.86c4.98-9.53,9.64-19.24,13.75-29.19,8.15-19.75,14.09-40.63,15.2-62.05,.87-16.78-1.62-33.64-6.99-49.55-5.33-15.81-13.4-30.66-23.57-43.88-10.28-13.38-22.7-25.1-36.69-34.55-14.18-9.57-30-16.75-46.62-20.86-16.31-4.03-33.3-5.15-50.01-3.62s-33.22,5.63-48.73,12.08-29.52,14.88-42.13,25.53-23.69,23.74-31.88,38.35c-5.32,9.48-9.61,19.5-13.4,29.67-3.53,9.45-6.18,19.16-7.97,29.08-3.64,20.15-4.09,40.94-1.55,61.25,2.17,17.36,6.65,34.34,14.89,49.86,7.65,14.41,18.23,27.14,30.84,37.48,13.92,11.42,30.1,20.01,47.09,25.88,19.28,6.66,39.72,9.79,60.1,9.8,20.63,.01,41.32-3.13,61.01-9.3,18.43-5.77,35.6-14.79,49.16-28.72,11.69-12.02,20.26-26.71,26.36-42.26s10-33.05,12.12-50.14c2.26-18.26,2.91-36.86,1.67-55.22-1.29-18.98-4.86-37.95-12.37-55.51-7.04-16.47-17.63-31.23-31.4-42.73-12.71-10.62-27.64-18.39-43.37-23.46s-33.37-7.65-50.42-7.41c-17.29,.24-34.23,3.41-50.61,8.88s-31.99,12.8-46.2,22.46-25.64,20.47-35.24,33.73c-10.13,13.99-16.56,29.71-21,46.32-4.84,18.09-7.5,36.84-7.51,55.57s2.6,37.27,8.86,54.79c3.05,8.51,6.95,16.73,11.78,24.38,3.96,6.28,8.91,11.82,14.19,17.01,12.11,11.9,26.01,22.68,41,30.71,6.43,3.45,13.27,6.05,20.13,8.52,8.11,2.92,16.36,5.5,24.71,7.64s16.17,3.73,24.41,4.58c6.95,.72,14.14,.91,20.99-.67,.94-.22,.54-1.66-.4-1.45h0Z"/>
  <g>
    <path d="M400.73,577.99c2.42-8.72,6.14-16.94,10.88-24.64,2.05-3.33,4.22-6.64,6.56-9.78,2.47-3.31,5.76-6,9.67-7.41,3.26-1.18,6.74-1.5,10.18-1.33,2.79,.14,5.68,.43,8.32,1.38,5.32,1.92,9.76,6.07,12.95,10.65,5.08,7.29,7.3,16.12,7.41,24.93l1.47-.2c-.77-3.33-1.92-6.61-3.18-9.79-2.49-6.25-5.72-12.41-10.36-17.35-4.89-5.2-11.48-8.46-18.74-7.57-9.42,1.16-16.96,7.76-22.48,15.08-3.93,5.21-7.32,11.11-9.59,17.24-.3,.8,.96,1.31,1.37,.58,3.2-5.73,7.44-11.1,12.16-15.64,3.68-3.54,7.96-6.74,12.87-8.33,5.19-1.69,10.59-1.12,15.32,1.62,8.74,5.06,14.16,14.91,18.3,23.75,.41,.87,1.7,.11,1.3-.76-5.85-12.49-16.47-29.98-32.87-26.7-10.1,2.03-18.06,10.59-23.91,18.54-1.59,2.17-3.14,4.41-4.45,6.76l1.37,.58c1.78-4.78,4.33-9.38,7.13-13.62,5.01-7.56,11.87-14.81,20.95-17.11,7.05-1.79,13.81,.46,19,5.4,4.77,4.54,8.09,10.5,10.63,16.52,1.52,3.61,2.87,7.37,3.76,11.19,.19,.83,1.48,.64,1.47-.2-.17-13.9-6.13-29.96-19.54-36.23-2.51-1.17-5.1-1.68-7.84-2-3.52-.4-7.11-.42-10.58,.34-3.69,.81-7.1,2.55-9.91,5.07-3.17,2.84-5.49,6.63-7.81,10.17-5.8,8.81-10.4,18.27-13.23,28.45-.26,.93,1.19,1.33,1.45,.4h0Z"/>
    <path d="M552.84,578.45c-2.23-9.22-5.24-18.39-9.81-26.73-3.28-5.99-7.6-12.16-13.71-15.53-11.79-6.5-24.2,3.18-30.91,12.5-5.97,8.3-9.67,18.13-12.07,28.01-.23,.94,1.15,1.31,1.45,.4,1.4-4.29,3.25-8.47,5.27-12.49,3.65-7.3,8.22-14.77,14.79-19.81,3.05-2.34,6.67-4.09,10.56-4.32s7.49,1.03,10.63,3.18c6.63,4.54,10.92,12.15,14.17,19.3,2.19,4.82,4.08,9.88,5.36,15.03l1.37-.58c-1.15-2.55-2.47-5.03-3.83-7.47-2.99-5.37-6.34-10.56-10.21-15.34s-8.69-9.7-14.48-12.41-11.62-2.55-16.92,.64c-3.46,2.08-6.27,5.09-8.67,8.3-3.51,4.7-6.21,9.99-8.54,15.36-.71,1.65-1.39,3.31-2.04,4.98-.35,.9,1.1,1.29,1.45,.4,4.91-12.61,15.65-36.06,33.2-28.72,5.65,2.36,10.25,6.91,14.13,11.53,3.87,4.61,7.18,9.68,10.16,14.9,1.59,2.8,3.13,5.65,4.46,8.59,.36,.8,1.57,.22,1.37-.58-1.11-4.46-2.71-8.84-4.5-13.07-3.19-7.56-7.36-15.4-13.79-20.7-3-2.47-6.5-4.28-10.39-4.74s-7.9,.55-11.34,2.5c-7.45,4.23-12.66,11.93-16.67,19.29-1.76,3.24-3.33,6.58-4.75,9.98-.49,1.18-.96,2.37-1.41,3.56-.23,.63-.61,1.34-.72,2.01-.02,.09-.06,.19-.09,.28l1.45,.4c2.1-8.64,5.18-17.14,9.94-24.7,3.53-5.62,8.1-10.88,13.99-14.11,4.74-2.6,10.33-3.74,15.43-1.51,5.96,2.61,10.24,8.26,13.47,13.71,5.17,8.73,8.42,18.55,10.79,28.37,.23,.94,1.67,.54,1.45-.4h0Z"/>
  </g>
  <path d="M497.29,623.85c7.49,12.16,11.14,26.81,9.54,41.06-1.45,12.98-7.34,27.43-19.93,33.16-6.17,2.81-13.92,3.54-20.34,1.17-5.29-1.95-9.06-6.35-11.56-11.26-5.69-11.16-5.84-24.97-2.08-36.73s11.71-22.79,22.45-29.31c4.98-3.03,11.76-5.81,17.5-3.17,6.34,2.92,8.02,11.06,9.3,17.22,3.05,14.58,5.24,30.41,.25,44.82-4.44,12.82-15.28,24.32-29.52,24.89-6.5,.26-14.03-1.55-18.41-6.7-2.49-2.93-3.67-6.73-4.4-10.44s-1.01-7.58-.96-11.39c.11-7.75,1.57-15.42,3.57-22.88,.99-3.71,2.13-7.39,3.34-11.03,1.11-3.34,2.2-6.73,3.77-9.89,1.32-2.66,3.01-5.33,5.69-6.78,.85-.46,.09-1.75-.76-1.3-2.73,1.47-4.57,4.1-5.96,6.79-1.67,3.22-2.82,6.69-3.96,10.12-2.65,7.95-5,16.04-6.25,24.34-1.18,7.84-1.42,15.97,.38,23.75,.83,3.58,2.19,7.11,4.63,9.91,2.2,2.51,5.13,4.23,8.26,5.34,6.92,2.44,14.68,2.19,21.43-.66,6.28-2.66,11.44-7.4,15.26-12.98,9.07-13.22,9.36-29.82,7.13-45.14-.58-3.96-1.31-7.89-2.15-11.8-.77-3.58-1.66-7.2-3.28-10.51-1.41-2.87-3.5-5.49-6.43-6.91-2.76-1.34-5.85-1.52-8.84-1.03-6.14,1-11.79,4.61-16.47,8.57-5.04,4.26-9.25,9.51-12.46,15.27-6.69,12.02-8.93,26.38-5.52,39.77,1.44,5.65,3.94,11.26,8.01,15.51,4.74,4.95,11.37,6.8,18.1,6.42,7.05-.39,13.79-3.15,18.92-8.02,4.84-4.6,8.08-10.72,10.17-17,4.83-14.48,3.59-30.55-2.29-44.54-1.37-3.25-2.98-6.39-4.83-9.39-.51-.82-1.8-.07-1.3,.76h0Z"/>
  <g>
    <g>
      <path d="M592.45,434.9c-.45,4.13-.55,8.29-.26,12.44,.21,2.99,.51,6.2,2.09,8.82s4.44,3.78,7.53,3.95c2.8,.15,5.61,.26,8.41,.42,4.8,.27,11.35-.04,14.26-4.61,.98-1.53,1.31-3.45,1.54-5.22,.31-2.38,.34-4.8,.24-7.2-.19-4.7-.56-10.06-2.54-14.4-.4-.88-1.69-.12-1.3,.76,1.55,3.39,1.9,7.54,2.19,11.2,.32,4.07,.55,8.62-.74,12.56-1.5,4.6-7.26,5.53-11.46,5.49-2.39-.02-4.76-.3-7.14-.42-2.95-.14-6.34,.3-8.65-1.94s-2.69-6.07-2.92-9.16c-.31-4.23-.22-8.47,.24-12.68,.1-.96-1.4-.95-1.5,0h0Z"/>
      <path d="M604.67,461.54c.76,.8,1.49,1.64,2.29,2.4,.73,.69,1.74,.89,2.59,.27,.75-.55,1.11-1.37,1.41-2.23,.13-.36,.23-.64,.43-.96,.16-.25,.31-.38,.56-.44,.94-.23,.54-1.68-.4-1.45-.78,.19-1.34,.81-1.67,1.52-.32,.67-.44,1.41-.87,2-.08,.11-.18,.23-.3,.32-.05,.04-.2,.11-.25,.12,.11-.02-.1,0-.12,0,.08,.01-.02,0-.06-.03-.16-.09-.28-.21-.41-.34-.72-.74-1.43-1.5-2.14-2.25-.67-.7-1.73,.36-1.06,1.06h0Z"/>
      <path d="M592.87,431.44c-.42,6.05-2.26,11.96-2.11,18.06,.07,2.66,.52,5.11,2.32,7.15,.9,1.02,2.03,2.15,3.23,2.81,1.27,.69,2.92,.8,4.33,.98,6.38,.8,13.37,.32,19.41-1.99,2.26-.86,3.79-2.16,4.7-4.44s1.07-4.73,1.01-7.1-.48-4.83-.92-7.2c-.54-2.87-1.1-6.19-2.8-8.64-.55-.79-1.85-.04-1.3,.76,1.35,1.94,1.87,4.49,2.35,6.77,.45,2.11,.85,4.27,1.05,6.43,.35,3.61,.46,9.53-3.31,11.49-2.51,1.3-5.55,1.89-8.32,2.3-3.06,.45-6.18,.57-9.27,.39-1.4-.08-2.8-.24-4.18-.49-1.66-.3-2.72-.93-3.92-2.07-.94-.89-1.89-1.87-2.31-3.12s-.54-2.55-.58-3.83c-.2-6.16,1.68-12.13,2.11-18.23,.07-.96-1.43-.96-1.5,0h0Z"/>
      <path d="M593.24,431.51c8.34,5.85,20.73,4.9,29.26,0,.84-.48,.08-1.78-.76-1.3-8.11,4.66-19.84,5.55-27.75,0-.79-.56-1.54,.74-.76,1.3h0Z"/>
      <path d="M596.4,440.55c-1.47,4.14,8.59,3.08,10.49,2.91,5.05-.46,9.98-1.72,14.87-2.99,.93-.24,.54-1.69-.4-1.45-3.78,.98-7.57,1.96-11.43,2.56-1.92,.3-3.87,.49-5.81,.54-.74,.02-6.72,.11-6.27-1.18,.32-.91-1.12-1.3-1.45-.4h0Z"/>
      <path d="M598.97,450.33c7.92,3.49,16.58,1.81,24.38-1.16,.89-.34,.51-1.79-.4-1.45-7.36,2.8-15.7,4.62-23.22,1.31-.88-.39-1.64,.91-.76,1.3h0Z"/>
      <path d="M598.11,431.44c-.73-10.27-3.88-20.78-9.68-29.35-1.37-2.02-2.9-3.94-4.63-5.67-1.83-1.82-3.91-3.34-5.68-5.23-3.86-4.13-7.03-9.19-8.73-14.6s-2.41-11.86-1.46-17.69c.9-5.49,3.22-10.6,6.33-15.18,4.78-7.03,11.56-12.62,19.43-15.87,14.19-5.85,31.64-4.17,43.75,5.56,5.58,4.48,10.29,10.68,11.41,17.87,1.3,8.33-.41,17.41-3.94,25.01-1.9,4.08-4.43,7.9-7.74,10.97-1.62,1.51-3.32,2.83-4.76,4.53s-2.64,3.48-3.71,5.38c-4.68,8.26-6.86,17.86-8.24,27.17-.3,2.02-.56,4.05-.78,6.09-.11,.96,1.4,.95,1.5,0,1.06-9.63,2.8-19.49,6.76-28.39,1.87-4.21,4.29-8.29,7.69-11.45,1.71-1.59,3.5-3.01,5.03-4.8,1.44-1.68,2.71-3.5,3.82-5.42,4.4-7.59,6.61-16.76,6.21-25.53-.16-3.43-.71-6.95-2.19-10.08-1.65-3.48-4.02-6.68-6.7-9.42-10.99-11.22-28.19-14.79-43.12-10.77-17.96,4.85-33.31,21.75-32.65,40.98,.4,11.71,5.67,22.58,14.68,30.08,8.2,6.82,12.7,17.64,14.8,27.85,.54,2.62,.91,5.27,1.1,7.95,.07,.96,1.57,.96,1.5,0h0Z"/>
    </g>
    <path d="M553.35,343.72c-19.64-4.68-39.07-10.2-58.23-16.53-.92-.3-1.31,1.14-.4,1.45,19.16,6.34,38.59,11.86,58.23,16.53,.94,.22,1.34-1.22,.4-1.45h0Z"/>
    <path d="M563.02,323.79c-10.35-11.61-20.4-23.48-30.13-35.62-.6-.75-1.66,.31-1.06,1.06,9.73,12.14,19.77,24.01,30.13,35.62,.64,.72,1.7-.34,1.06-1.06h0Z"/>
    <path d="M597.73,314.45c-5.15-15.89-10.02-31.86-14.59-47.92-1.3-4.57-2.58-9.14-3.83-13.72-.25-.93-1.7-.54-1.45,.4,4.42,16.1,9.12,32.13,14.1,48.07,1.42,4.53,2.86,9.05,4.32,13.57,.3,.91,1.75,.52,1.45-.4h0Z"/>
    <path d="M629.03,312.67c1.08-16.18,4.74-32.11,10.8-47.15,.36-.9-1.09-1.28-1.45-.4-6.11,15.16-9.76,31.24-10.85,47.55-.06,.96,1.44,.96,1.5,0h0Z"/>
    <path d="M650.49,323.4c17.35-11.38,35.34-21.8,53.86-31.17,5.24-2.65,10.53-5.22,15.85-7.7,.87-.41,.11-1.7-.76-1.3-18.81,8.78-37.12,18.61-54.83,29.44-5.01,3.07-9.97,6.21-14.88,9.43-.8,.53-.05,1.83,.76,1.3h0Z"/>
    <path d="M664.47,344.13c17.41,0,34.82,0,52.23,0,.97,0,.97-1.5,0-1.5-17.41,0-34.82,0-52.23,0-.97,0-.97,1.5,0,1.5h0Z"/>
    <path d="M609.3,430.57c.83-9.08,1.67-18.16,2.5-27.24l1.25-13.62,.3-3.22c.08-.91,.3-1.91,.11-2.81-.33-1.57-1.79-1.88-3.12-2.29-3.65-1.12-7.5-3.15-9.05-6.85l-.34,.85c2.99-1.62,7.76-2.15,9.2,1.78s-3.55,5.18-6.38,5.51c-3.74,.44-7.67,0-11.18-1.38-.77-.3-1.68-.69-1.97-1.54-.26-.76,.14-1.64,.63-2.2,1.33-1.54,3.73-1.31,5.55-1.2,.96,.06,.96-1.44,0-1.5-3.06-.19-7.66,.3-7.76,4.35-.04,1.52,1.02,2.6,2.32,3.21,1.89,.89,4.03,1.38,6.09,1.67,3.64,.51,8.07,.49,11.43-1.21,2.96-1.49,3.88-4.88,1.94-7.61-2.51-3.54-7.23-3.01-10.62-1.17-.26,.14-.47,.55-.34,.85,1.2,2.87,3.47,4.93,6.2,6.34,1.41,.72,2.9,1.28,4.41,1.72,.37,.11,.91,.17,1.19,.44,.42,.39,.37,1.07,.33,1.58-.08,1.16-.21,2.31-.32,3.47l-2.46,26.74c-.47,5.12-.94,10.24-1.41,15.35-.09,.96,1.41,.95,1.5,0h0Z"/>
  </g>
  <path d="M579.85,253.78c1.03,15.18,6.63,29.45,9.6,44.27,.87,4.35,1.49,8.74,1.7,13.17,.05,.96,1.55,.97,1.5,0-.72-15.2-6.26-29.51-9.39-44.28-.92-4.34-1.61-8.73-1.91-13.16-.06-.96-1.57-.97-1.5,0h0Z"/>
  <path d="M637.13,262.94c-3.22,15.03-6.43,30.07-9.65,45.1-.2,.94,1.24,1.34,1.45,.4,3.22-15.03,6.43-30.07,9.65-45.1,.2-.94-1.24-1.34-1.45-.4h0Z"/>
  <path d="M652.93,317.93c15.94-6.18,30.94-14.63,44.46-25.11,4.2-3.26,8.26-6.7,12.32-10.14,.74-.63-.33-1.68-1.06-1.06-6.8,5.77-13.65,11.45-21.03,16.46-6.94,4.72-14.23,8.93-21.78,12.6-4.35,2.12-8.79,4.05-13.3,5.8-.89,.35-.5,1.8,.4,1.45h0Z"/>
  <path d="M563.06,321.51c-5.36-4.21-9.58-9.6-13.89-14.83-4.68-5.67-9.36-11.35-14.05-17.02-.61-.75-1.67,.32-1.06,1.06,4.68,5.67,9.36,11.35,14.05,17.02,4.31,5.22,8.53,10.62,13.89,14.83,.75,.59,1.82-.46,1.06-1.06h0Z"/>
  <path d="M551.53,342.65c-16.9-2.41-31.68-13.13-48.99-13.51-.97-.02-.97,1.48,0,1.5,17.15,.38,31.84,11.07,48.59,13.45,.94,.13,1.35-1.31,.4-1.45h0Z"/>
  <path d="M665.62,343.28c20.21,.25,40.43,.01,60.63-.71,.96-.03,.97-1.53,0-1.5-20.2,.72-40.42,.96-60.63,.71-.97-.01-.97,1.49,0,1.5h0Z"/>
  <path d="M594.84,424.58c-4.54-13.01-12.67-24.25-19.17-36.28-3.24-5.99-6.1-12.25-7.69-18.9-1.74-7.27-2.23-15.42,1.49-22.17,3.77-6.85,10.55-11.42,17-15.49,.81-.51,.06-1.81-.76-1.3-5.82,3.68-11.73,7.69-15.82,13.34-4.51,6.22-5.3,13.69-4.28,21.14,1.94,14.05,9.86,26.25,16.93,38.21,4.14,7.01,8.16,14.14,10.85,21.85,.32,.91,1.77,.52,1.45-.4h0Z"/>
  <path d="M593.82,330.01c13.08-4.26,27.93-1.86,38.77,6.68,4.92,3.88,8.97,8.85,11.77,14.45s5.53,13.53,2.44,19.62c-2.94,5.82-9.6,8.57-12.92,14.16-.49,.83,.8,1.59,1.3,.76,3.15-5.3,9.21-8,12.41-13.26,3.66-6,1.74-13.6-.83-19.63-5.26-12.35-16.19-21.84-29.23-25.08-7.93-1.97-16.35-1.69-24.11,.84-.91,.3-.52,1.75,.4,1.45h0Z"/>
  <path d="M595.06,433.56c-1.44,4.69-2.05,9.6-1.8,14.5,.05,.96,1.55,.97,1.5,0-.25-4.77,.34-9.53,1.74-14.1,.28-.92-1.16-1.32-1.45-.4h0Z"/>
  <path d="M612.65,460.24c.02,.83-.82,1.26-1.49,1.54-.82,.35-1.72,.59-2.62,.64-1.56,.08-3.24-.43-4.21-1.71-.24-.32-.65-.49-1.03-.27-.32,.19-.52,.7-.27,1.03,1.38,1.81,3.61,2.65,5.85,2.43,1.98-.19,5.34-1.13,5.26-3.65-.03-.96-1.53-.97-1.5,0h0Z"/>
  <path d="M595.48,375.56c-1.74,.36-3.27,1.41-4.34,2.82-.25,.33-.46,.67-.64,1.04-.23,.46-.44,.95-.38,1.48,.16,1.28,1.56,1.31,2.57,1.32,1.23,0,2.46-.15,3.65-.43,.39-.09,.63-.54,.52-.92-.11-.4-.53-.62-.92-.52-.85,.2-1.69,.32-2.56,.36-.44,.02-.88,.02-1.32,0-.1,0-.2-.01-.3-.02-.09,0,0,0,.02,0-.05,0-.1-.02-.14-.03,0,0-.12-.03-.05,0,.07,.01-.03,0-.04-.02,.02,.02,.04,.03,.06,.06,.04,.08,0,.06,0,0,0,.13,.03-.1,0,.02,.02-.09,.05-.18,.08-.27,.03-.08,0-.02,0,0,.02-.05,.04-.09,.06-.14,.04-.08,.08-.16,.12-.24,.15-.29,.38-.65,.54-.86,.15-.2,.43-.51,.66-.72,.29-.28,.44-.39,.75-.6s.66-.4,1.01-.55c-.09,.04,.14-.05,.18-.07,.1-.03,.19-.07,.29-.1,.2-.06,.39-.11,.59-.15,.4-.08,.63-.55,.52-.92-.11-.41-.52-.61-.92-.52h0Z"/>
  <path d="M607.7,385.07c.55,12.39,.68,24.79,.37,37.18-.02,.97,1.48,.97,1.5,0,.31-12.39,.18-24.79-.37-37.18-.04-.96-1.54-.97-1.5,0h0Z"/>
</svg>