<?xml version="1.0" encoding="UTF-8"?>
<svg id="_Слой_9" data-name="Слой 9" xmlns="http://www.w3.org/2000/svg" viewBox="0 0 1000 1000">
  <path d="M678.74,644.33c-7.28,1.76-14.86,2.13-22.33,1.94-8.56-.22-17.1-1.24-25.49-2.93-7.86-1.59-15.69-3.74-23.08-6.88-7.19-3.05-13.83-7.3-20.19-11.81-14.29-10.14-27.54-21.89-39.94-34.25-11.25-11.21-18.99-24.98-23.41-40.19s-5.77-32.11-5-48.33,3.67-32.97,8.11-48.91c4.48-16.08,11.01-31.27,20.34-45.15s20.9-26.13,34.04-36.38c13.31-10.37,28.27-18.68,44.16-24.37s31.47-8.39,47.75-8.6,32.45,2.18,47.83,7.3c15.11,5.03,29.4,12.75,41.47,23.18,13.02,11.24,22.97,25.47,29.73,41.25,7.35,17.16,10.94,35.75,12.37,54.29s.94,35.87-.86,53.66c-1.68,16.66-4.78,33.25-10.08,49.16-5.17,15.52-12.54,30.49-22.97,43.18-11.5,13.99-26.35,24.14-43.19,30.7-18.48,7.2-38.4,11.14-58.2,12.05-19.59,.9-39.34-1.27-58.15-6.89-17.44-5.21-33.89-13.43-48.36-24.5-13.53-10.35-25.31-23.08-34.42-37.49s-15.57-30.71-18.37-47.67c-3.46-20.98-1.57-42.52,3.09-63.17,2.3-10.2,5.28-20.25,8.7-30.13s7.37-19.99,12.17-29.49c7.48-14.8,17.44-28.11,29.58-39.41s25.15-19.8,39.63-26.53,30.04-11.27,45.89-13.26,31.94-1.46,47.51,1.91c15.81,3.42,30.88,9.8,44.5,18.5,13.74,8.78,25.96,19.87,36.21,32.53,10.27,12.68,18.57,27,24.38,42.25,5.76,15.13,9.07,31.2,9.39,47.4,.39,20.09-3.76,40.06-10.17,59.02-6.48,19.17-15.12,37.79-25.03,55.43s-21.01,32.76-36.74,44.22c-15.58,11.36-34.18,18.34-53.19,21.12-18.88,2.75-38.36,1.3-56.67-4.05-9.2-2.69-18.11-6.37-26.5-11.01-7.2-3.98-14.12-8.56-20.87-13.25-14.28-9.91-27.93-21.02-39.58-33.96-10.39-11.55-19.58-25.05-22.94-40.43-.21-.94-1.65-.54-1.45,.4,3.5,16.03,13.24,30.06,24.14,41.99,11.88,13,25.74,24.14,40.22,34.1,7.05,4.84,14.26,9.59,21.82,13.59,8.43,4.46,17.36,7.98,26.54,10.53,18.48,5.12,38.04,6.31,56.99,3.35,19.19-3,37.98-10.31,53.54-22.03s26.98-27.67,36.37-44.51c10.02-17.96,18.77-36.91,25.24-56.45,6.33-19.09,10.33-39.23,9.73-59.41-.49-16.4-3.99-32.66-9.98-47.92-6.01-15.31-14.47-29.61-24.91-42.31-10.47-12.74-22.96-23.86-36.94-32.61-13.86-8.68-29.2-14.97-45.24-18.25-15.74-3.22-32-3.59-47.91-1.44-16.04,2.16-31.71,6.89-46.33,13.83s-28.01,16.04-39.69,27.1c-12.39,11.74-22.41,25.59-29.89,40.91-4.64,9.51-8.44,19.41-11.85,29.41s-6.51,20.73-8.76,31.35c-4.37,20.6-5.88,41.99-2.16,62.81,3.05,17.07,9.79,33.37,19.24,47.88,9.37,14.38,21.35,27.01,35.07,37.29,14.73,11.04,31.48,19.16,49.15,24.25,19.16,5.52,39.29,7.52,59.17,6.36s40.19-5.31,58.75-12.93c16.57-6.81,31.11-17.18,42.34-31.18,10.3-12.85,17.6-27.86,22.73-43.46,5.33-16.2,8.38-33.11,10.03-50.06,1.77-18.27,2.14-36.81,.53-55.1-1.63-18.54-5.49-37.02-13.07-54.07-7.05-15.86-17.41-30.08-30.77-41.2-12.3-10.24-26.68-17.8-41.89-22.69-15.62-5.03-32.14-7.29-48.54-6.91-16.58,.39-33,3.55-48.54,9.35-15.78,5.89-30.56,14.31-43.76,24.75-13.3,10.52-24.95,23.14-34.26,37.31-9.28,14.14-15.66,29.61-20.06,45.9s-7.16,32.88-7.77,49.66,.88,33.2,5.84,48.96c2.35,7.47,5.5,14.71,9.54,21.42s9.13,12.75,14.76,18.3c12.67,12.5,26.18,24.41,40.83,34.55,6.46,4.47,13.18,8.51,20.5,11.42,7.7,3.06,15.78,5.17,23.92,6.67,14.91,2.74,31.15,4.11,46.04,.5,.94-.23,.54-1.67-.4-1.45h0Z"/>
  <path d="M610.51,462.75c-2.57-1.15-3.85-4.34-3.71-7.02,.08-1.55,.81-2.61,1.69-3.83s1.85-2.48,3.1-3.39c1.43-1.04,3.2-1.64,4.92-1.97,1.99-.38,3.81,.19,5.12,1.75,2.56,3.06,1.63,7.78-.09,11.03-.75,1.43-1.78,2.79-3.2,3.61-1.74,1.01-3.77,.81-5.51-.11-2.66-1.41-4.32-4.33-4.55-7.29s1.06-5.97,3.68-7.62,5.79-1.96,8.54-.81c1.68,.7,3.68,2.22,3.44,4.26-.22,1.89-2.05,3.29-3.58,4.15-1.07,.6-4.5,2.27-5.13,.32-.54-1.64,2.51-2.93,3.63-3.26l-.92-.92c-.22,1.49-.67,2.92-1.4,4.24-.36,.65-.78,1.27-1.26,1.84-.36,.43-1.23,1.58-1.89,1.49,.94,.13,1.35-1.31,.4-1.45-1.04-.14-1.76,.78-1.42,1.79,.42,1.25,1.89,1.08,2.76,.43,2.4-1.77,3.84-5.08,4.26-7.95,.08-.54-.32-1.1-.92-.92-1.78,.52-3.97,1.66-4.63,3.53s.86,3.42,2.65,3.53c2.02,.13,4.21-.97,5.8-2.12s3-2.7,3.16-4.7c.33-4.25-4.93-6.45-8.44-6.42-3.72,.04-7.53,1.98-9.23,5.39s-1.19,7.79,1.04,10.88c2.39,3.3,7.05,5.25,10.71,2.75s5.58-7.85,5.1-12.11c-.24-2.13-1.19-4.16-2.87-5.52-1.85-1.49-4.06-1.64-6.3-1.08s-4.41,1.52-6.09,3.23c-.8,.82-1.49,1.74-2.16,2.66-.6,.83-1.21,1.62-1.54,2.6-1.22,3.58,.55,8.71,4.1,10.3,.87,.39,1.64-.9,.76-1.3h0Z"/>
  <path d="M703.81,456.47c-1.22-1.25-.8-3.25,.13-4.55,.78-1.09,1.96-1.84,3.24-2.22,2.73-.82,5.87-.1,7.78,2.06,2.19,2.48,2.61,6.16,1.69,9.26s-3.9,6.86-7.58,5.93c-3.2-.81-4.89-4.59-5.74-7.45s-1.34-6.54,.89-8.78c1.4-1.4,3.45-1.59,5.32-1.63,1.63-.04,3.88-.25,5.08,1.1s.65,3.25,.04,4.66c-.67,1.56-1.68,3.06-3.17,3.94-.71,.42-1.74,.83-2.43,.17-.62-.58-.27-1.47,.27-1.97,1.36-1.27,2.62,.42,2.29,1.83-.45,1.92-2.91,1.59-3.89,.29-1.25-1.66,.15-3.82,1.75-4.54,.88-.4,.12-1.69-.76-1.3-1.89,.86-3.22,2.94-2.9,5.04,.31,1.99,2.25,3.49,4.25,3.37s3.2-1.75,3.09-3.62c-.11-1.76-1.58-3.45-3.47-2.96-1.65,.42-2.96,2.38-2.3,4.04,.84,2.11,3.37,1.87,4.97,.87,3.14-1.97,6.56-8.26,2.91-11.26-1.82-1.5-4.69-1.28-6.88-1.12-2.34,.17-4.6,.91-5.98,2.92-2.45,3.58-1.06,8.87,.67,12.45,.96,1.99,2.38,3.99,4.43,4.97s4.43,.69,6.33-.56c3.89-2.57,5.48-7.79,4.46-12.22-.96-4.2-4.41-7.27-8.78-7.32-3.83-.04-8.25,2.66-7.95,6.96,.07,1.04,.45,1.96,1.18,2.7,.68,.69,1.74-.37,1.06-1.06h0Z"/>
  <path d="M586.95,554.79c18.02-1.78,36.04-3.55,54.1-4.81,9.07-.63,18.15-1.14,27.23-1.44,8.39-.28,16.83-.54,25.22-.04,9.23,.55,18.5,2.16,26.91,6.15l.58-1.37c-16.56-2.62-33.23-4.59-49.95-5.9-16.82-1.31-33.68-1.96-50.55-1.93-9.5,.02-18.99,.25-28.48,.69-.96,.04-.97,1.5,0,1.5,31.79,.12,63.58,2.21,95.11,6.28,9.04,1.17,18.05,2.5,27.04,3.99,.93,.15,1.35-1.18,.4-1.45-14.93-4.23-30.54-4.35-45.94-4.42-.97,0-.97,1.5,0,1.5,15.26,.06,30.74,.17,45.54,4.37l.4-1.45c-31.6-5.23-63.51-8.5-95.51-9.74-9.01-.35-18.02-.54-27.03-.57v1.5c16.69-.77,33.4-.9,50.09-.36s33.53,1.75,50.21,3.62c9.45,1.06,18.88,2.34,28.28,3.82,.76,.12,1.41-.97,.58-1.37-14.98-7.09-31.98-6.88-48.18-6.46-18.43,.48-36.82,1.81-55.18,3.45-10.29,.92-20.58,1.93-30.86,2.95-.95,.09-.96,1.59,0,1.5h0Z"/>
  <g>
    <path d="M210.16,553.87c15.73-21.14,31.5-42.24,47-63.55,14.91-20.49,29.54-41.18,43.67-62.22,8.47-12.6,16.76-25.32,24.89-38.14,.52-.82-.76-1.55-1.3-.76-7.46,10.93-14.76,21.97-21.89,33.12-6.01,9.41-11.96,18.87-18.09,28.2-7.2,10.97-14.65,21.78-22.09,32.59-7.47,10.86-14.84,21.8-21.56,33.14-6.31,10.63-12.32,21.7-16.13,33.5-.4,1.25-.77,2.5-1.12,3.77-.22,.81,.95,1.33,1.37,.58,11.98-21.68,24.76-42.92,37.85-63.94,13.68-21.95,27.74-43.65,42.03-65.2,7.5-11.32,15.08-22.59,22.7-33.83,.54-.8-.76-1.55-1.3-.76-13.91,20.51-27.65,41.13-41.13,61.93-14.06,21.7-27.85,43.57-41.12,65.76-6.96,11.65-13.78,23.39-20.34,35.28l1.37,.58c3.16-11.71,8.89-22.69,14.9-33.16,6.59-11.46,13.9-22.49,21.36-33.4,7.37-10.78,14.84-21.49,22.05-32.38,6.25-9.44,12.32-19,18.4-28.55,6.74-10.59,13.59-21.1,20.63-31.49,1.13-1.66,2.26-3.33,3.39-4.99l-1.3-.76c-14.1,22.25-28.72,44.16-43.82,65.73-14.53,20.77-29.48,41.23-44.56,61.6-9.04,12.2-18.11,24.38-27.18,36.56-.58,.77,.72,1.52,1.3,.76h0Z"/>
    <path d="M334.8,388.61c-3.31,.32-6.61,.64-9.92,.96l.2,1.47c18.44-2.82,37.15-3.24,55.77-2.87,18.54,.37,37.06,1.5,55.61,1.81,10.48,.17,20.96,.08,31.42-.55,.96-.06,.97-1.49,0-1.5-20.22-.11-40.43,.11-60.64,.67-10.02,.27-20.04,.63-30.06,1.07-9.33,.41-18.71,.65-27.99,1.71s-18.92,3.24-27.17,8.18c-.73,.44-.25,1.58,.58,1.37,22.17-5.53,44.74-9.4,67.49-11.55,6.43-.61,12.86-1.07,19.31-1.41,.96-.05,.97-1.55,0-1.5-22.87,1.19-45.65,4.08-68.08,8.66-6.4,1.31-12.78,2.76-19.12,4.34l.58,1.37c7.45-4.46,15.94-6.63,24.49-7.74,9-1.17,18.12-1.42,27.18-1.82,19.86-.89,39.74-1.47,59.63-1.73,11.27-.14,22.54-.19,33.8-.13v-1.5c-18.67,1.12-37.39,.52-56.06-.21-18.65-.73-37.33-1.59-56-.93-10.42,.37-20.82,1.23-31.13,2.8-.83,.13-.64,1.56,.2,1.47,3.31-.32,6.61-.64,9.92-.96,.95-.09,.96-1.59,0-1.5h0Z"/>
    <path d="M464.35,386.88c-10.5,24.06-23.12,47.01-36.55,69.55-12.26,20.57-24.8,40.99-35.44,62.47-6.77,13.67-12.78,27.7-18.02,42.02-.29,.8,.99,1.33,1.37,.58,11.81-23.24,23.35-46.61,35.27-69.8,10.87-21.15,22.19-42.08,34.3-62.55,7.78-13.15,15.86-26.11,24.16-38.94,.53-.82-.74-1.53-1.3-.76-12.37,17.34-24.34,34.95-35.66,53-10.15,16.18-19.78,32.67-29.33,49.21-6.34,10.97-12.66,21.96-19.02,32.92-.49,.84,.81,1.59,1.3,.76,10.7-18.43,21.23-36.96,32.07-55.31,9.71-16.44,19.76-32.67,30.34-48.56,7.02-10.54,14.24-20.94,21.6-31.25l-1.3-.76c-14.15,21.86-27.6,44.16-40.16,66.98-11.48,20.85-22.23,42.09-32.92,63.35-6.87,13.66-13.72,27.33-20.65,40.96l1.37,.58c8.98-24.53,20.42-47.95,33.42-70.59,11.88-20.68,24.68-40.82,36.12-61.76,7.37-13.48,14.18-27.25,20.33-41.33,.38-.88-.91-1.64-1.3-.76h0Z"/>
    <path d="M214.33,560.38c19.21,2.12,38.52,3.31,57.85,3.55,19.41,.24,38.83-.47,58.17-2.12,10.76-.92,21.49-2.14,32.18-3.64l-.4-1.45c-8.95,2.99-18.4,3.54-27.77,3.28-9.49-.26-18.95-1.16-28.43-1.53-19.67-.76-39.39-.3-59,1.39-10.97,.94-21.91,2.27-32.79,3.97-.84,.13-.63,1.49,.2,1.47,20.81-.45,41.61,.42,62.4,1.03,20.64,.6,41.32,.95,61.93-.56,11.54-.84,23.03-2.28,34.38-4.54l-.4-1.45c-1.4,.36-2.79,.72-4.19,1.07-.93,.24-.54,1.69,.4,1.45,1.4-.36,2.79-.72,4.19-1.07,.94-.24,.54-1.63-.4-1.45-20.24,4.02-40.88,5.36-61.48,5.54s-41.27-.78-61.89-1.31c-11.64-.3-23.29-.46-34.94-.21l.2,1.47c19.55-3.04,39.28-4.86,59.06-5.45,9.88-.29,19.77-.27,29.65,.05,9.53,.31,19.04,1.15,28.56,1.54,10.33,.42,20.84,.06,30.73-3.25,.94-.31,.54-1.58-.4-1.45-19.16,2.69-38.44,4.44-57.77,5.24-19.23,.8-38.5,.67-57.71-.4-10.79-.6-21.57-1.5-32.32-2.68-.96-.11-.95,1.4,0,1.5h0Z"/>
    <path d="M371.24,556.43c-1.22,32.04-1.33,64.12-.3,96.16,.29,8.97,.67,17.93,1.13,26.89h1.5c-1.65-31.33-.61-62.8,3.16-93.95,1.07-8.86,2.37-17.68,3.87-26.48l-1.47-.2c-.46,26.43-.91,52.86-1.37,79.3-.11,6.62-.12,13.54-3.24,19.57-.44,.86,.85,1.62,1.3,.76,2.68-5.17,3.21-10.99,3.37-16.73,.18-6.52,.23-13.04,.35-19.56,.23-13.47,.46-26.93,.7-40.4,.13-7.65,.26-15.29,.4-22.94,.01-.82-1.33-1.05-1.47-.2-5.31,30.99-7.96,62.43-7.85,93.87,.03,8.99,.29,17.97,.76,26.95,.05,.96,1.55,.97,1.5,0-1.66-32.02-2.19-64.1-1.6-96.15,.17-8.97,.42-17.94,.77-26.9,.04-.97-1.46-.96-1.5,0h0Z"/>
    <path d="M464.78,389.59c.85,30.25,1.69,60.51,2.54,90.76,.24,8.48,.47,16.96,.71,25.43l1.28-.53c-3.77-4.78-5.15-10.88-5.78-16.82-.7-6.58-.89-13.23-1.22-19.83-.72-14.41-1.23-28.83-1.55-43.25-.08-3.78-.24-7.58-.19-11.36,.04-2.96,.37-6.49,2.92-8.43l-1.1-.85c-3.35,23-5.06,46.23-5.07,69.47,0,6.57,.14,13.15,.4,19.72,.04,.96,1.54,.97,1.5,0-.93-22.99-.23-46.04,2.14-68.93,.69-6.64,1.51-13.26,2.47-19.86,.08-.55-.51-1.3-1.1-.85-4.7,3.59-3.68,10.68-3.58,15.86,.14,7.71,.34,15.42,.6,23.12s.56,15.24,.93,22.86c.34,7.16,.57,14.37,1.26,21.51,.65,6.65,2.08,13.33,6.3,18.68,.41,.52,1.3,.08,1.28-.53-.85-30.25-1.69-60.51-2.54-90.76-.24-8.48-.47-16.96-.71-25.43-.03-.96-1.53-.97-1.5,0h0Z"/>
    <path d="M208.74,563.83c6.01,12.07,6.15,25.95,6.59,39.14,.48,14.55,.71,29.1,.69,43.66,0,8.23-.1,16.47-.27,24.7l1.47-.2c-2.45-6.87-2.8-14.17-2.38-21.4,.43-7.42,1.49-14.81,2.25-22.21,1.56-15.25,2.7-30.54,3.42-45.85,.41-8.72,.69-17.46,.83-26.19h-1.5c.34,16.94,.66,33.89,.32,50.84-.34,16.97-1.35,33.96-3.74,50.78-1.34,9.45-3.12,18.84-5.43,28.1-.23,.94,1.21,1.34,1.45,.4,4.08-16.44,6.5-33.24,7.83-50.12,1.34-16.96,1.62-33.99,1.51-50.99-.06-9.67-.25-19.34-.44-29-.02-.96-1.48-.97-1.5,0-.26,15.65-.94,31.3-2.06,46.92-.56,7.73-1.22,15.44-1.99,23.15-.74,7.44-1.77,14.87-2.33,22.33-.59,7.95-.4,16.06,2.31,23.64,.28,.78,1.46,.68,1.47-.2,.3-14.89,.35-29.78,.13-44.66-.11-7.4-.28-14.8-.51-22.2-.22-6.89-.37-13.81-1.17-20.67-.83-7.16-2.44-14.23-5.67-20.72-.43-.86-1.72-.11-1.3,.76h0Z"/>
    <g>
      <path d="M329.6,449.39c-4.14,4.38-7.47,9.48-10.75,14.52-3.6,5.53-7.24,11.03-10.89,16.53-8.19,12.33-16.37,24.65-24.56,36.98-4.6,6.93-9.2,13.85-13.8,20.78-.33,.49,.11,1.12,.65,1.13,21.99,.5,43.98,1,65.96,1.5,6.16,.14,12.33,.28,18.49,.42,.25,0,.53-.14,.65-.37,11.96-23.31,23.93-46.62,35.89-69.93,3.45-6.73,6.91-13.46,10.36-20.18,.31-.61-.2-1.22-.85-1.1-20.78,3.74-42.04,2.62-63.03,1.89-4.5-.16-9-.3-13.5-.25-.96,.01-.97,1.51,0,1.5,8.84-.11,17.68,.43,26.51,.71,10.69,.34,21.41,.46,32.09-.24,6.14-.4,12.27-1.08,18.33-2.17l-.85-1.1c-11.96,23.31-23.93,46.62-35.89,69.93-3.45,6.73-6.91,13.46-10.36,20.18l.65-.37c-21.99-.5-43.98-1-65.96-1.5-6.16-.14-12.33-.28-18.49-.42l.65,1.13c8.09-12.19,16.19-24.38,24.28-36.57,7.81-11.76,15.74-23.46,23.4-35.32,3.7-5.73,7.37-11.64,12.07-16.62,.66-.7-.4-1.76-1.06-1.06h0Z"/>
      <path d="M333.91,447.16c-4.14,4.38-7.47,9.48-10.75,14.52-3.6,5.53-7.24,11.03-10.89,16.53-8.19,12.33-16.37,24.65-24.56,36.98-4.6,6.93-9.2,13.85-13.8,20.78-.33,.49,.11,1.12,.65,1.13,21.99,.5,43.98,1,65.96,1.5,6.16,.14,12.33,.28,18.49,.42,.25,0,.53-.14,.65-.37,11.96-23.31,23.93-46.62,35.89-69.93,3.45-6.73,6.91-13.46,10.36-20.18,.31-.61-.2-1.22-.85-1.1-20.78,3.74-42.04,2.62-63.03,1.89-4.5-.16-9-.3-13.5-.25-.96,.01-.97,1.51,0,1.5,8.84-.11,17.68,.43,26.51,.71,10.69,.34,21.41,.46,32.09-.24,6.14-.4,12.27-1.08,18.33-2.17l-.85-1.1c-11.96,23.31-23.93,46.62-35.89,69.93-3.45,6.73-6.91,13.46-10.36,20.18l.65-.37c-21.99-.5-43.98-1-65.96-1.5-6.16-.14-12.33-.28-18.49-.42l.65,1.13c8.09-12.19,16.19-24.38,24.28-36.57,7.81-11.76,15.74-23.46,23.4-35.32,3.7-5.73,7.37-11.64,12.07-16.62,.66-.7-.4-1.76-1.06-1.06h0Z"/>
      <path d="M303.59,493.17c19.3-1.34,38.66,1.16,57.92,2.03,4.76,.22,9.54,.35,14.31,.18,.96-.03,.97-1.53,0-1.5-8.84,.3-17.71-.31-26.53-.89-9.93-.65-19.87-1.39-29.83-1.61-5.29-.12-10.59-.08-15.87,.28-.96,.07-.97,1.57,0,1.5h0Z"/>
      <path d="M304.72,492.72c19.25-1.88,38.68,.09,57.95,.43,4.77,.08,9.54,.08,14.31-.21,.96-.06,.97-1.56,0-1.5-8.83,.55-17.71,.18-26.54-.15-9.95-.37-19.9-.84-29.86-.79-5.29,.03-10.59,.21-15.86,.72-.95,.09-.96,1.59,0,1.5h0Z"/>
    </g>
    <path d="M353.69,434.31c16.48-4.03,32.96-8.07,49.44-12.1,4.69-1.15,9.37-2.29,14.06-3.44,.96-.23,.53-1.59-.4-1.45-16.34,2.53-32.62,5.57-48.65,9.61-4.61,1.16-9.21,2.41-13.77,3.75-.78,.23-.67,1.57,.2,1.47,9.37-1.04,18.75-2.08,28.12-3.12,8.67-.96,17.71-1.42,25.88-4.71,.88-.36,.5-1.81-.4-1.45-8.21,3.3-17.28,3.74-25.98,4.71-9.21,1.02-18.42,2.05-27.63,3.07l.2,1.47c15.88-4.64,32.05-8.17,48.34-11.04,4.69-.82,9.39-1.59,14.09-2.32l-.4-1.45c-16.48,4.03-32.96,8.07-49.44,12.1-4.69,1.15-9.37,2.29-14.06,3.44-.94,.23-.54,1.68,.4,1.45h0Z"/>
  </g>
</svg>