<?xml version="1.0" encoding="UTF-8"?>
<svg id="_Слой_6" data-name="Слой 6" xmlns="http://www.w3.org/2000/svg" viewBox="0 0 1000 1000">
  <path d="M375.66,552.46c-.25,29.95,14.96,57.84,37.35,77.13,24.36,20.99,55.78,30.36,87.75,28.12,33.72-2.36,66.2-16.55,92.41-37.62,27.11-21.81,48.23-51.47,53.46-86.43,9.82-65.64-29.8-133.8-88.68-162.45-27.4-13.38-58.48-17.23-88.31-10.95-28.84,6.07-56.04,21.17-75.15,43.75-23.55,27.74-31.63,65.25-34.98,100.58-1.82,19.32-1.56,39.15,3.32,58.05,3.65,13.88,9.68,27.01,17.84,38.82,33.31,48.69,96.82,73.45,153.88,57.29,57.82-16.39,103.23-68.45,112.66-127.61,10.1-63.05-18.28-129.7-67.97-169.06-14.1-11.19-30.31-20.45-48.11-24.09-18.56-3.78-37.68-.65-55.48,5.11-31.05,10.25-58.79,28.62-80.33,53.21-22.63,25.89-37.37,57.72-42.47,91.72-2.69,17.7-2.77,35.69-.26,53.41,2.34,16.43,6.65,33.13,15.13,47.55,7.12,12.1,17.45,22.39,31.28,26.2,.81,.21,1.23-1.03,.41-1.3-31.98-8.72-42.74-48.39-46.1-77.22-4.12-33.76,1.46-68,16.1-98.71,14.63-30.7,37.71-56.6,66.53-74.67,13.42-8.53,27.92-15.22,43.11-19.89,18.51-5.65,38.2-8.01,57.11-2.86,31.75,8.64,58.76,33.45,77.38,59.76,18.19,25.53,29.64,55.24,33.27,86.38,3.61,30.58-1.79,61.55-15.53,89.1-13.37,26.36-33.62,48.61-58.6,64.41-24.65,15.48-53.69,23.98-82.87,22.15-28.62-1.82-56.41-13-78.95-30.63-22.54-17.63-39.96-42.26-46.96-70.24-4.63-18.52-4.84-37.87-3.06-56.8,1.56-18.74,5.15-37.25,10.7-55.22,5.13-15.94,12.67-31.13,23.5-43.98,9.56-11.35,21.04-20.93,33.92-28.3,25.67-14.77,55.38-20.98,84.82-17.72,61.37,7.19,112.12,57.54,127.71,116.02,9.59,35.92,5.97,74.14-14.41,105.69-18.19,28.19-46.35,50.21-77.03,63.19-30.4,12.82-65.54,16.95-97.26,6.47-28.1-9.3-52.74-30.03-65.92-56.54-6.54-12.94-9.94-27.24-9.91-41.74,.04-.85-1.28-.93-1.32-.07h.03Z"/>
  <path d="M435.61,363.97c-42.12,50.41-65.91,118.41-60.59,184.29,1.35,16.73,5.08,33.46,12.87,48.44,6.43,12.2,15.11,23.07,25.58,32.03,21.55,18.58,49.06,29.51,77.03,32.99,53.17,6.6,114.74-15.63,140.13-65.37,7.68-15.03,11.45-31.66,13.67-48.3,2.47-17.86,3.59-35.88,3.34-53.91-.58-31.82-7.99-62.84-27.14-88.68-17.02-23.01-41.07-40.37-67.29-51.58-13.02-5.56-26.63-9.65-40.56-12.18-15.12-2.75-30.94-4.11-46.1-.79-7.24,1.55-14.13,4.44-20.32,8.5-.7,.47-.09,1.65,.61,1.18,13.33-8.91,29.57-10.95,45.3-10.08,14.32,.88,28.48,3.52,42.16,7.84,27.04,8.36,52.55,22.8,72.44,43.06,21.45,21.87,34.06,49.47,37.95,79.79,2.19,17.06,1.96,34.36,.76,51.49-1.26,17.67-3.06,35.61-8.06,52.64-8.02,27.83-26.26,50.43-51.04,65.32-23.95,14.05-51.29,21.28-79.05,20.91-27.77-.37-54.9-8.32-78.47-23-25.26-16.16-43.08-40.38-49.58-69.8-7.05-31.87-3.89-66.58,3.81-98.04,7.68-31.26,21.02-60.86,39.35-87.33,4.47-6.46,9.21-12.7,14.23-18.71,.55-.66-.56-1.35-1.1-.73h.05Z"/>
  <path d="M418.48,488.57c.94-7.07,3.36-13.87,7.1-19.94,3.74-6.07,8.72-11.29,14.61-15.31,5.49-3.69,15.86-9.51,21.2-2.62,2.48,3.27,3.44,8.25,4.74,12.17l4.35,13.02c.26,.8,1.53,.56,1.34-.27-2.13-7.42-4.39-15.34-9.81-21.13-4.72-5.03-11.81-8.22-18.68-6.08-6.87,2.14-12.17,8.73-15.89,14.64-4.69,7.3-7.87,15.48-11.03,23.48l1.31,.24c2.69-15.75,8.61-34.82,26.64-38.22,8.72-1.64,16.06,2.17,20.59,9.58,4.88,8.04,8.65,16.89,12.86,25.29,.08,.15,.22,.27,.39,.32,.17,.05,.35,.03,.5-.05,.15-.08,.27-.22,.32-.38,.05-.17,.04-.34-.04-.5l-8.15-16.32c-2.28-4.19-4.2-8.75-7.24-12.5-4.81-5.96-12.19-8.11-19.6-6.72-18.66,3.5-24.88,23.12-27.69,39.44-.12,.78,1.04,.9,1.31,.25,2.48-6.81,5.44-13.44,8.87-19.83,3.47-6.14,8.02-12.83,14.42-16.25,7.22-3.85,15.25-.9,20.46,4.89,5.01,5.56,7.12,13.1,9.14,20.14l1.34-.27c-1.79-5.39-3.59-10.79-5.4-16.18-1.14-3.6-2.09-7.98-4.91-10.72-5.38-5.22-14.01-1.3-19.38,1.86-6.75,4.03-12.49,9.54-16.81,16.11-4.32,6.57-7.09,14.03-8.12,21.82-.11,.84,1.21,.91,1.32,.07h-.07Z"/>
  <path d="M533.84,480.29c-2.28-14.97,12.08-28.27,26.04-30.1,3.93-.65,7.97,.02,11.49,1.91,3.51,1.89,6.3,4.89,7.93,8.53,3.65,7.66,2.89,16.42,2.18,24.62l1.33-.12c-1.35-15.97-8.35-35.02-26.55-37.67-16.66-2.42-25.49,14.16-29.7,27.59-.03,.09-.04,.18-.03,.27,0,.09,.03,.18,.07,.26,.04,.08,.1,.15,.17,.21,.07,.06,.15,.1,.23,.13,.09,.03,.18,.04,.27,.03,.09,0,.18-.03,.26-.07s.15-.1,.21-.17c.06-.07,.1-.15,.13-.23,4.33-13.14,14.79-25.72,29.62-26.05,3.28-.16,6.55,.37,9.61,1.56,3.06,1.18,5.84,3,8.16,5.32,5.32,5.7,6.48,13.85,7.55,21.25,.12,.84,1.41,.56,1.34-.27-1.13-7.91-2.51-16.62-8.48-22.49-2.42-2.25-5.26-4-8.36-5.15-3.1-1.15-6.4-1.67-9.7-1.53-15.44,.37-26.42,13.19-30.94,26.96l1.3,.41c4.07-12.93,12.53-29.31,28.77-26.56,17.35,2.92,23.64,21.25,24.93,36.56,.07,.77,1.29,.61,1.33-.1,.8-9.23,1.54-19.23-3.5-27.48-1.9-3.2-4.7-5.78-8.05-7.4-3.35-1.62-7.11-2.23-10.8-1.73-15.18,1.48-30.56,15.7-28.16,31.79,.13,.84,1.43,.55,1.34-.27v.04Z"/>
  <path d="M450.5,540.68c.41,1.05-1.56,4.55-1.82,5.89-.35,1.82-.44,3.68-.29,5.52,.27,3.69,1.37,7.27,3.21,10.47,1.95,3.37,4.61,6.27,7.8,8.5,3.19,2.23,6.83,3.73,10.66,4.39,18.46,3.34,34.23-9.09,44.09-23.15l-1.14-.06c3.88,6.83,9.83,14.6,17.98,18.3,4.08,1.9,8.56,2.77,13.06,2.55,4.49-.23,8.87-1.55,12.74-3.84,7.43-4.68,11.22-13.06,13.41-21.26,1.15-4.31,5.66-19.04-3.52-17.93-.84,.1-.55,1.38,.29,1.27,8.24-.99,1.16,19.56-.34,23.2-2.9,7.05-7.83,13.17-15.25,15.71-15.69,5.35-30.52-5.39-37.16-19.17-.05-.1-.13-.19-.23-.25-.1-.06-.21-.1-.32-.1-.11,0-.23,.02-.33,.07-.1,.05-.19,.13-.25,.22-10.55,15.34-29.35,29.21-48.71,21.11-4.2-1.75-7.82-4.66-10.43-8.4-2.61-3.73-4.09-8.13-4.29-12.68-.05-2.03,.21-4.05,.79-6,.37-1.24,1.47-2.74,1.4-4.06,.07-.31,.02-.64-.13-.92-.16-.28-.41-.5-.71-.6-.3-.11-.63-.1-.93,.02-.3,.12-.54,.34-.69,.63-.1,.1-.17,.23-.2,.37-.03,.14,0,.29,.05,.42l.14,.35c.3,.8,1.47,.18,1.17-.6l-.06,.05Z"/>
  <path d="M564.51,531.75c-.25,7.84,.46,16.45-1.69,24.07-2.32,8.38-9.81,13.1-18.27,13.36-8.45,.26-16.44-3.86-23.41-8.3-7.12-4.57-13.68-9.96-19.54-16.06-.59-.61-1.58,.28-.99,.88,6.64,6.9,14.15,12.9,22.35,17.85,7.09,4.23,15.21,7.73,23.65,6.8,6.97-.77,13.49-4.59,16.4-11.06,3.62-8.25,2.54-18.65,2.76-27.43,0-.18-.05-.35-.17-.48-.12-.13-.28-.21-.46-.22-.18,0-.35,.05-.48,.17-.13,.12-.21,.28-.22,.46l.05-.04Z"/>
  <path d="M506.46,551.92c-4.77,11.2-16.34,18.91-28.62,18.16-11.96-.79-28.72-11.68-25.47-25.6,.19-.82-1.06-1.25-1.3-.43-3.29,14.09,12.41,25.51,24.71,27.15,13.52,1.81,26.63-6.43,31.89-18.82,.33-.78-.93-1.2-1.3-.41l.1-.05Z"/>
</svg>