<?xml version="1.0" encoding="UTF-8"?>
<svg id="_Слой_7" data-name="Слой 7" xmlns="http://www.w3.org/2000/svg" viewBox="0 0 1000 1000">
  <g>
    <path d="M433.61,748.59c-14.61-11.5-29.66-22.91-40.98-37.85-6.11-8.06-10.48-16.94-14.21-26.31-3.9-9.8-7.12-19.88-9.64-30.12-4.95-20.08-7.11-40.72-4.85-61.33,2.1-19.13,7.58-37.9,15.97-55.22s19.26-32.67,32.77-45.89,30.37-24.37,48.46-31.49,38.14-10.77,57.87-10.38c19.57,.39,39.08,4.67,56.88,12.83,16.45,7.54,31.35,18.24,44.08,31.08,12.87,12.97,23.52,28.11,31.49,44.55,8.77,18.08,14.23,37.8,15.79,57.85,1.62,20.93-1.89,41.69-7.89,61.7-5.41,18.03-13.09,35.72-24.25,50.97-5.32,7.26-11.49,13.71-18.52,19.33-7.36,5.88-15.04,11.39-23.22,16.08-15.17,8.7-31.79,13.78-48.75,17.64-4.07,.92-8.12,1.84-12.27,2.27-3.92,.41-7.87,.54-11.81,.49-9.01-.11-18-1.12-26.87-2.65-16.93-2.91-34.1-7.45-49.62-14.93-16.37-7.89-30.96-19.54-43.01-33.08-12.59-14.16-22.61-30.73-28.87-48.63s-8.35-37.63-6.74-56.87c1.67-19.97,7.01-39.69,15.34-57.9,4.04-8.82,8.79-17.33,14.28-25.33s11.57-15.26,17.62-22.64,12.76-15.07,20.25-21.47c3.55-3.03,7.33-5.81,11.41-8.07,4.68-2.59,9.78-4.47,14.77-6.35,19.94-7.52,40.91-12.12,62.26-12.41,10.66-.14,21.33,.73,31.85,2.45,10.58,1.73,21.36,3.98,31.47,7.59,18.34,6.55,34.05,19,47.05,33.26,6.75,7.4,12.84,15.37,18.38,23.7,5.11,7.69,9.47,15.71,12.76,24.35,7,18.34,9.84,38.15,9.71,57.72-.13,20.63-3.67,41.08-10.09,60.67-4.27,13.02-9.51,25.83-17.52,37.05-8.46,11.86-19.65,21.39-31.48,29.75-7.99,5.64-16.29,10.82-24.69,15.82-2.33,1.39-4.71,2.64-7.2,3.72-5.87,2.56-12.05,4.46-18.24,6.06-8,2.06-16.15,3.56-24.34,4.59-9.43,1.18-18.94,1.75-28.44,1.67-10.31-.09-20.62-.93-30.79-2.66-10.47-1.79-20.78-4.52-30.69-8.34-10.35-3.99-20.23-9.2-29.28-15.62-9.54-6.77-18.08-14.9-25.37-24.05-8.3-10.42-14.92-22.15-19.96-34.47-5.72-13.98-9.47-28.69-11.83-43.59-.15-.95-1.6-.55-1.45,.4,2.48,15.67,6.51,31.11,12.72,45.73,5.21,12.26,11.98,23.85,20.41,34.18,7.51,9.2,16.31,17.31,26.09,24.06,9.22,6.36,19.28,11.46,29.77,15.38s20.77,6.46,31.5,8.15c10.28,1.62,20.69,2.37,31.09,2.34,9.61-.02,19.21-.7,28.73-2,8.21-1.12,16.36-2.7,24.35-4.87,6.12-1.66,12.19-3.64,17.95-6.31,4.14-1.92,7.99-4.39,11.88-6.77,8.07-4.94,16.03-10.11,23.61-15.8,11.26-8.45,21.57-18.16,29.28-30.02s13.01-25.94,17.16-39.74c6.06-20.16,8.91-41.37,8.24-62.41-.61-19.45-4.22-39.04-12.09-56.91-3.83-8.71-8.88-16.73-14.38-24.48-5.78-8.13-12.12-15.88-19.12-22.98-13.51-13.71-29.79-25.29-48.45-30.68-20.95-6.05-42.91-9.33-64.74-8.24s-43.04,6.61-63.16,14.88c-4.43,1.82-8.69,3.78-12.69,6.45s-7.62,5.69-11.09,8.93c-7.32,6.86-13.76,14.59-20.03,22.4s-12,14.78-17.16,22.81-9.96,17.17-13.81,26.31c-7.8,18.48-12.6,38.3-13.69,58.35-1.05,19.43,1.67,38.84,8.73,57,6.88,17.71,17.32,33.99,30.3,47.83s27.12,24.4,43.61,31.77,33.81,11.76,51.32,14.41c8.74,1.32,17.6,2.15,26.44,2,8.5-.14,16.56-1.73,24.81-3.69,16.99-4.04,33.43-9.64,48.42-18.74,8.13-4.94,15.91-10.61,23.19-16.74,6.84-5.76,12.72-12.61,17.8-19.95,10.91-15.73,18.37-33.79,23.56-52.14,2.57-9.08,4.6-18.34,5.97-27.69,1.74-11.82,1.83-23.84,.54-35.71-2.12-19.62-7.88-38.76-16.77-56.37-8.35-16.53-19.45-31.71-32.75-44.6s-28.3-23.16-45.02-30.37c-18.16-7.84-37.91-11.78-57.68-11.78-19.78,0-39.57,3.89-57.84,11.47-17.94,7.45-34.23,18.42-47.94,32.17s-24.49,29.52-32.6,46.81-13.47,36.28-15.41,55.48c-2.11,20.89,.33,41.84,5.51,62.13,2.67,10.43,6.04,20.69,10.14,30.65,3.78,9.18,8.28,17.75,14.4,25.6,11.27,14.46,25.92,25.61,40.22,36.86,.75,.59,1.82-.46,1.06-1.06h0Z"/>
    <path d="M446.45,563.5c17.22-4.14,34.07-9.75,50.33-16.77,.74-.32,.29-1.36-.38-1.4-17.78-.98-33.71,8.61-48.19,17.75-.82,.52-.1,1.75,.76,1.3,16.42-8.66,33.63-15.74,51.37-21.19,.92-.28,.53-1.73-.4-1.45-17.86,5.49-35.2,12.63-51.73,21.34l.76,1.3c14.26-9,29.91-18.51,47.43-17.55l-.38-1.4c-16.14,6.97-32.88,12.51-49.97,16.62-.94,.23-.54,1.67,.4,1.45h0Z"/>
    <path d="M593.44,567.43c-18.03-6.16-35.4-14.18-51.76-23.95-.76-.45-1.45,.55-.91,1.18,9.01,10.4,22.41,16.48,35.36,20.34,3.75,1.12,7.56,2.05,11.4,2.8,.94,.18,1.35-1.26,.4-1.45-13.33-2.6-26.84-7.24-37.91-15.3-2.99-2.18-5.76-4.66-8.18-7.46l-.91,1.18c16.47,9.84,33.97,17.9,52.12,24.1,.92,.31,1.31-1.14,.4-1.45h0Z"/>
    <path d="M560.2,706.87c.92-8.62-1.16-17.5-5.89-24.77-4.78-7.34-12.12-12.6-20.54-14.97-4.15-1.17-8.54-1.64-12.84-1.29s-8.4,1.75-12.53,3.11-8.17,2.75-11.56,5.35c-3.61,2.78-7.15,5.67-10.49,8.78-7.12,6.62-13.78,14.64-15.77,24.4-.2,.97,1.08,1.28,1.45,.4-.02,.04-.05,.12,.05-.12,.11-.25,.22-.5,.34-.75,.43-.93,.88-1.84,1.35-2.74,1.62-3.13,3.46-6.15,5.46-9.05,5.78-8.36,13.2-15.86,22.28-20.59,10.51-5.48,23.64-6.97,34.74-2.33,8.7,3.64,15.18,10.9,19.44,19.15,1.59,3.08,2.89,6.31,3.92,9.62,.54,1.75,.88,3.54,1.37,5.3,.02,.08,.03,.16,.05,.25,.16,.95,1.61,.55,1.45-.4-.77-4.54-2.43-9.03-4.35-13.19-3.87-8.42-9.86-16.1-18.11-20.58-10.6-5.76-23.83-5.57-34.87-1.13-10.14,4.08-18.48,11.53-25.03,20.15-2.44,3.21-4.65,6.61-6.61,10.13-.96,1.73-2.13,3.59-2.75,5.48-.05,.14-.12,.27-.17,.41l1.45,.4c1.69-8.32,6.91-15.32,12.78-21.23,3.06-3.08,6.35-5.92,9.72-8.64,1.61-1.29,3.2-2.67,4.97-3.73s3.77-1.92,5.75-2.66c3.84-1.43,7.85-2.93,11.87-3.75,4.22-.86,8.62-.85,12.85-.08,8.26,1.5,15.88,5.82,21.13,12.41,5.95,7.47,8.6,17.21,7.6,26.67-.1,.96,1.4,.95,1.5,0h0Z"/>
    <path d="M441.15,578.31c2.81,4.46,6.72,8,10.95,11.07s8.92,6.23,14.02,7.93c9.36,3.11,19.91,.35,27.39-5.84,3.99-3.3,7.07-7.54,9.69-11.97l-1.3-.76c-4.39,7.45-9.03,16.02-17.57,19.31-4.86,1.88-10.42,2.27-15.51,1.2s-9.58-3.78-13.9-6.72c-4.8-3.26-9.36-7.03-12.48-11.99-.51-.81-1.81-.06-1.3,.76,2.84,4.52,6.82,8.09,11.12,11.2s9.17,6.35,14.53,7.81,10.78,1.31,15.97-.16c4.49-1.27,8.34-3.93,11.46-7.37,3.6-3.98,6.26-8.69,8.97-13.28,.49-.83-.8-1.59-1.3-.76-4.51,7.61-10.47,14.09-19.08,16.92-4.74,1.56-9.75,1.97-14.61,.71s-9.29-4.09-13.47-6.95c-4.73-3.24-9.23-6.97-12.31-11.87-.51-.81-1.81-.06-1.3,.76h0Z"/>
    <path d="M598.24,584.69c-6.33,8.02-16.22,12.85-26.37,13.51-9.71,.63-19.89-2.71-27.19-9.18-4.01-3.56-7.06-8.06-8.7-13.18-.29-.92-1.74-.52-1.45,.4,3.16,9.93,10.74,18.54,20.14,23.04s20.9,4.17,30.56-.04c5.46-2.37,10.37-6.01,14.06-10.69,.59-.75-.46-1.82-1.06-1.06-6.33,8.02-16.22,12.85-26.37,13.51s-20.02-3.42-27.19-10.83c-3.92-4.05-6.98-8.95-8.7-14.33l-1.45,.4c3.07,9.62,10.77,16.78,19.98,20.53,9.88,4.03,20.93,3.92,30.72-.34,5.46-2.37,10.37-6.01,14.06-10.69,.59-.75-.46-1.82-1.06-1.06h0Z"/>
  </g>
  <path d="M731.97,294.09c-18.11,20.85-36.22,41.69-54.33,62.54-5.13,5.9-10.26,11.8-15.38,17.71-.38,.44-.17,1.35,.53,1.28,21.38-2.05,42.77-4.07,64.16-6.06,6.03-.56,12.06-1.12,18.09-1.68l-.72-.55c.67,3.41-1.05,6.55-3.14,9.12-2.23,2.73-4.94,5.06-7.5,7.47-5.65,5.32-11.34,10.61-17.07,15.86-11.33,10.39-22.78,20.63-34.37,30.73-6.59,5.74-13.21,11.43-19.88,17.08-.74,.62,.33,1.68,1.06,1.06,24.32-20.59,48.11-41.82,71.32-63.66,4.88-4.6,12.53-10.38,11.03-18.04-.06-.3-.42-.58-.72-.55-21.39,1.98-42.78,3.98-64.17,6.01-6.03,.57-12.06,1.15-18.08,1.72l.53,1.28c18.11-20.85,36.22-41.69,54.33-62.54,5.13-5.9,10.26-11.8,15.38-17.71,.63-.73-.43-1.79-1.06-1.06h0Z"/>
  <path d="M714.59,273.34c-11.42,15.52-22.84,31.03-34.26,46.55-11.27,15.31-22.62,30.55-33.79,45.93-5.88,8.1-11.54,16.41-15.78,25.51-.21,.46,.03,1.2,.65,1.13,20.7-2.26,41.4-4.52,62.11-6.78,5.86-.64,11.71-1.28,17.57-1.92l-.65-1.13c-14.93,20.11-30.58,39.69-46.92,58.67-4.56,5.3-9.18,10.55-13.85,15.76-.64,.72,.41,1.78,1.06,1.06,16.76-18.7,32.85-37.99,48.22-57.86,4.32-5.58,8.58-11.21,12.79-16.87,.32-.44-.11-1.19-.65-1.13-20.7,2.26-41.4,4.52-62.11,6.78-5.86,.64-11.71,1.28-17.57,1.92l.65,1.13c3.75-8.05,8.61-15.5,13.76-22.71,5.44-7.62,11.06-15.11,16.61-22.64,11.37-15.45,22.74-30.9,34.11-46.35,6.45-8.76,12.9-17.52,19.34-26.28,.57-.78-.73-1.53-1.3-.76h0Z"/>
  <path d="M722.86,269.41c-11.42,15.52-22.84,31.03-34.26,46.55-11.27,15.31-22.62,30.55-33.79,45.93-5.88,8.1-11.54,16.41-15.78,25.51-.21,.46,.03,1.2,.65,1.13,20.7-2.26,41.4-4.52,62.11-6.78,5.86-.64,11.71-1.28,17.57-1.92l-.65-1.13c-14.93,20.11-30.58,39.69-46.92,58.67-4.56,5.3-9.18,10.55-13.85,15.76-.64,.72,.41,1.78,1.06,1.06,16.76-18.7,32.85-37.99,48.22-57.86,4.32-5.58,8.58-11.21,12.79-16.87,.32-.44-.11-1.19-.65-1.13-20.7,2.26-41.4,4.52-62.11,6.78-5.86,.64-11.71,1.28-17.57,1.92l.65,1.13c3.75-8.05,8.61-15.5,13.76-22.71,5.44-7.62,11.06-15.11,16.61-22.64,11.37-15.45,22.74-30.9,34.11-46.35,6.45-8.76,12.9-17.52,19.34-26.28,.57-.78-.73-1.53-1.3-.76h0Z"/>
  <path d="M270.88,302.46c9.74,11.23,18.07,23.61,26.19,36.03s16.63,26.09,25.56,38.72c4.65,6.58,9.52,13.03,14.8,19.12l.53-1.28c-15.3-1.45-30.8-1.65-46.15-.99-5.42,.23-10.93,.5-16.28,1.46-1.25,.22-6.38,1.07-4.47,3.39,.8,.98,1.89,1.81,2.79,2.71,1.09,1.08,2.17,2.17,3.24,3.27,2.27,2.34,4.5,4.71,6.71,7.11,4.99,5.41,9.86,10.93,14.69,16.48,10.66,12.23,21.13,24.61,31.87,36.77,9.34,10.57,18.81,21.17,29.3,30.64,1.04,.94,2.09,1.86,3.15,2.76,.73,.62,1.8-.44,1.06-1.06-10.02-8.5-18.95-18.31-27.71-28.07-10.55-11.75-20.77-23.78-31.09-35.73-9.16-10.6-18.33-21.25-28.18-31.23-1.02-1.04-2.05-2.06-3.09-3.07-.45-.44-.9-.87-1.35-1.3-.1-.1-.34-.31-.32-.3-.03,0,.02,0,0,0,0,0,0,.34-.04,.3-.03-.04,.05-.05,.03-.04,.07-.02,.14-.12,.34-.22,.46-.23,1.01-.38,1.53-.52,4.58-1.19,9.49-1.37,14.19-1.64,14.79-.85,29.73-.7,44.51,.37,1.76,.13,3.51,.27,5.26,.44,.7,.07,.91-.84,.53-1.28-9.74-11.23-18.07-23.61-26.19-36.03-8.46-12.95-16.63-26.09-25.56-38.72-4.65-6.58-9.52-13.03-14.8-19.12-.63-.73-1.69,.33-1.06,1.06h0Z"/>
  <path d="M278.35,305c9.74,11.23,18.07,23.61,26.19,36.03,8.46,12.95,16.63,26.09,25.56,38.72,4.65,6.58,9.52,13.03,14.8,19.12l.53-1.28c-15.3-1.45-30.8-1.65-46.15-.99-5.42,.23-10.93,.5-16.28,1.46-1.25,.22-6.38,1.07-4.47,3.39,.8,.98,1.89,1.81,2.79,2.71,1.09,1.08,2.17,2.17,3.24,3.27,2.27,2.34,4.5,4.71,6.71,7.11,4.99,5.41,9.86,10.93,14.69,16.48,10.66,12.23,21.13,24.61,31.87,36.77,9.34,10.57,18.81,21.17,29.3,30.64,1.04,.94,2.09,1.86,3.15,2.76,.73,.62,1.8-.44,1.06-1.06-10.02-8.5-18.95-18.31-27.71-28.07-10.55-11.75-20.77-23.78-31.09-35.73-9.16-10.6-18.33-21.25-28.18-31.23-1.02-1.04-2.05-2.06-3.09-3.07-.45-.44-.9-.87-1.35-1.3-.1-.1-.34-.31-.32-.3-.03,0,.02,0,0,0,0,0,0,.34-.04,.3-.03-.04,.05-.05,.03-.04,.07-.02,.14-.12,.34-.22,.46-.23,1.01-.38,1.53-.52,4.58-1.19,9.49-1.37,14.19-1.64,14.79-.85,29.73-.7,44.51,.37,1.76,.13,3.51,.27,5.26,.44,.7,.07,.91-.84,.53-1.28-9.74-11.23-18.07-23.61-26.19-36.03-8.46-12.95-16.63-26.09-25.56-38.72-4.65-6.58-9.52-13.03-14.8-19.12-.63-.73-1.69,.33-1.06,1.06h0Z"/>
  <path d="M293.85,291.77c5.1,6.94,9.73,14.23,14.23,21.57,5.4,8.8,10.59,17.74,15.68,26.73,9.41,16.63,18.48,33.45,27.24,50.43,2.58,5,5.2,9.99,7.57,15.09l.65-1.13c-14.75,0-29.51-.01-44.26,.17-4.22,.05-8.44,.12-12.66,.2-.52,0-1,.65-.65,1.13,8.2,11.07,15.6,22.71,23.05,34.28,7.82,12.16,15.62,24.36,24.15,36.04,4.4,6.03,8.99,11.92,13.97,17.48,.65,.72,1.7-.34,1.06-1.06-9.16-10.24-17.08-21.55-24.7-32.96s-15.55-24.11-23.45-36.08c-4.12-6.25-8.33-12.44-12.78-18.46l-.65,1.13c14.04-.25,28.08-.35,42.13-.37,4.93,0,9.86,0,14.79,0,.61,0,.88-.63,.65-1.13-5.56-11.99-11.96-23.65-18.2-35.29-9.77-18.26-19.81-36.39-30.55-54.1-5.04-8.31-10.21-16.58-15.97-24.42-.57-.77-1.87-.02-1.3,.76h0Z"/>
  <path d="M252.67,447.67c-21.99,5.31-45.59,2.64-66.09-6.81-10.19-4.69-19.63-11.04-27.68-18.86-3.83-3.72-10.36-9.95-7.58-15.92,1.28-2.74,4.26-4.16,6.92-5.23,3.15-1.27,6.36-2.39,9.58-3.47,14.82-4.97,30.16-8.28,45.71-9.89,.65-.07,.98-.77,.53-1.28-8.42-9.53-15.98-19.81-22.55-30.7-6.37-10.55-12.24-21.81-16.29-33.48-3.15-9.07-5.6-21.46,1.48-29.38,3.97-4.44,9.91-5.93,15.59-6.77,6.99-1.03,14.08-1.62,21.13-2.04,15.82-.95,31.69-.61,47.46,.96,.5,.05,.83-.52,.72-.95-1.46-5.83,.84-11.79,4.79-16.12,4.22-4.63,10.17-7.11,16.15-8.53,11.07-2.64,23-3.1,34.34-2.66,21.81,.84,44.12,6.57,61.71,19.95,4.97,3.78,9.91,8.16,13.39,13.37s6.05,12.27,2.37,18.13c-.28,.44,.08,1.2,.65,1.13,29.02-3.5,60.61-2.26,86.73,12.23,6.38,3.54,12.65,7.84,17.7,13.13s9.99,13.17,7.55,20.79c-2.2,6.89-9.36,10.02-15.8,11.77-8.3,2.25-16.95,3.53-25.43,4.88-20.51,3.25-41.23,5.11-61.98,5.61-.53,.01-.98,.64-.65,1.13,3.69,5.38,7.37,10.76,11.06,16.15,3.34,4.88,6.86,9.69,9.84,14.81,2.87,4.94,5.25,10.43,5.14,16.25-.08,4.61-2.24,8.79-5.8,11.71-3.77,3.1-9,4.44-13.21,1.43-.79-.56-1.54,.74-.76,1.3,7.7,5.49,17.58-1.53,20.36-9.16,1.9-5.19,.68-11.17-1.36-16.12-2.42-5.87-6.14-11.06-9.7-16.27-4.76-6.95-9.51-13.9-14.27-20.84l-.65,1.13c19.27-.46,38.51-2.1,57.58-4.92,9.28-1.37,18.61-2.87,27.75-4.99,6.31-1.46,13.24-3.76,17.21-9.23,4.33-5.98,3.03-13.53-.51-19.54-3.87-6.56-9.91-11.57-16.11-15.83-12.61-8.67-27.34-13.79-42.36-16.34-17.27-2.93-34.97-2.64-52.32-.55l.65,1.13c6.61-10.51-3.54-22.48-11.03-29.21-8.59-7.72-18.79-13.47-29.62-17.4s-22.99-6.21-34.83-6.93c-12.17-.74-24.89-.3-36.83,2.29-6.71,1.45-13.52,4.14-18.18,9.39-4.2,4.73-6.56,11.1-4.99,17.38l.72-.95c-14.84-1.48-29.77-1.87-44.66-1.12-7.4,.37-14.79,1.01-22.14,1.95-5.56,.71-11.43,1.73-16,5.22-8.53,6.52-8.29,18.21-5.92,27.66,1.42,5.65,3.72,11.03,6.09,16.33,2.71,6.07,5.71,12.01,8.99,17.8,7.3,12.9,15.96,25.01,25.77,36.12l.53-1.28c-14.67,1.53-29.17,4.52-43.23,9.01-3.52,1.13-7.02,2.34-10.47,3.65-2.61,.99-5.35,1.97-7.5,3.81-4.69,3.99-3.23,10-.04,14.45,3.46,4.83,8.26,8.93,12.89,12.59,4.58,3.63,9.47,6.85,14.6,9.64,10.46,5.67,21.9,9.56,33.65,11.44,13.17,2.1,26.68,1.69,39.65-1.45,.94-.23,.54-1.67-.4-1.45h0Z"/>
  <path d="M252.67,447.67c-22.26,5.39-46.45,4.42-68.03-3.36-10.58-3.81-20.61-9.43-28.95-17.02-4.11-3.74-10.87-9.79-9-16.06,.95-3.16,4.17-4.82,7-5.98,3.2-1.31,6.46-2.48,9.71-3.66,15.24-5.53,30.98-10.33,47.17-12.03,.65-.07,.98-.77,.53-1.28-8.64-9.76-16.94-19.86-24.13-30.75-6.66-10.08-12.98-21.12-16.53-32.73-2.79-9.13-4.68-21.75,1.91-29.78,1.77-2.15,4.15-3.87,6.42-5.45,2.62-1.82,5.43-3.47,8.46-4.5,3.33-1.13,6.96-1.29,10.44-1.61s7.14-.58,10.72-.75c16.32-.79,32.67-.03,48.92,1.6,.5,.05,.83-.52,.72-.95-.62-2.41-.85-4.93,.21-7.26,.95-2.09,2.73-3.71,4.49-5.11,4.23-3.37,8.96-6.25,13.74-8.76s10.02-4.68,15.58-5.28,11.47-.8,17.2-.57c22.87,.93,45.48,8.75,63.53,22.94,5.07,3.99,9.66,8.49,14.01,13.25s9.84,11.17,5.85,17.57c-.28,.44,.07,1.2,.65,1.13,29.36-3.53,60.62-.5,86.21,15.37,6.32,3.92,12.7,8.52,17.48,14.27s8.47,13.58,4.82,20.66c-3.14,6.09-10.21,8.62-16.46,10.16-8.18,2.02-16.63,3.17-25,3.99-18.81,1.84-37.75,1.38-56.62,1.81-.54,.01-.98,.64-.65,1.13,5.86,8.67,9.19,18.79,15.01,27.48,3.17,4.74,5.47,9.92,6.37,15.57,.46,2.88,.57,5.81,.37,8.71-.16,2.38-.47,4.95-1.78,7.01-2.88,4.54-8.33,1.82-11.67-.62-.78-.57-1.53,.73-.76,1.3,3.03,2.22,7.45,4.61,11.18,2.57,3.93-2.14,4.44-7.51,4.59-11.47,.22-5.95-.9-11.88-3.33-17.32-1.28-2.86-3.02-5.39-4.67-8.04s-2.99-5.2-4.34-7.88c-3.08-6.09-5.85-12.41-9.68-18.08l-.65,1.13c17.8-.41,35.65-.01,53.41-1.51,8.85-.75,17.7-1.94,26.38-3.82,6.26-1.36,13.25-3.37,17.58-8.43,4.55-5.31,4.4-12.34,1.52-18.41-3.26-6.87-9.09-12.02-15.06-16.52-12.28-9.24-26.65-15.37-41.62-18.67-17.26-3.8-35.15-4-52.64-1.89l.65,1.13c3.14-5.03,1.06-10.35-2.19-14.75-3.66-4.94-8.18-9.45-12.75-13.55-9.03-8.12-19.47-14.59-30.69-19.22-11.34-4.68-23.45-7.45-35.69-8.3-6.29-.44-12.61-.37-18.88,.21-5.73,.53-10.84,2.09-16.01,4.62-5.7,2.79-11.32,6.17-16.26,10.17-1.96,1.58-3.81,3.43-4.77,5.8-1.03,2.54-.8,5.27-.13,7.88l.72-.95c-15.21-1.52-30.51-2.29-45.8-1.73-7.25,.27-14.85,.45-21.99,1.83-5.99,1.15-11.42,4.95-15.98,8.83-8,6.8-7.9,18.54-5.95,28.01,2.47,11.98,8.6,23.36,14.96,33.69,7.93,12.86,17.48,24.63,27.48,35.92l.53-1.28c-15.24,1.6-30.07,5.89-44.48,10.98-3.57,1.26-7.11,2.58-10.65,3.93-2.74,1.05-5.63,2.09-7.81,4.12-4.77,4.43-2.3,10.84,1.16,15.21,7.24,9.16,18,16,28.55,20.69,11.13,4.96,23.12,7.84,35.24,8.98,13.53,1.27,27.28,.35,40.49-2.85,.94-.23,.54-1.67-.4-1.45h0Z"/>
  <path d="M608.45,393.53c-10.2-1.47-19.31-6.87-26.36-14.27-7.69-8.06-12.62-18.19-15.5-28.88-3.12-11.61-4.2-23.97-4-35.97,.1-5.68,.94-11.51,4.38-16.21,2.53-3.45,6.2-5.86,10.2-7.3,9.59-3.45,20.49-2.42,30.36-.86,.49,.08,1.17-.33,.92-.92-4.99-12.09-8.15-24.91-9.23-37.95-.25-3.04-.64-6.39,.66-9.25,1.08-2.39,3.24-3.93,5.65-4.81,5.14-1.86,11.04-1.46,16.4-1.46,13.47,.01,26.95,.88,40.31,2.58,6.89,.88,13.75,1.99,20.57,3.32,3.26,.64,6.51,1.32,9.75,2.06,1.62,.37,3.24,.75,4.85,1.14,.72,.18,1.43,.35,2.15,.53,.66,.17,1.69,.65,2.35,.57,.98-.12,2.08-1.42,2.89-1.99,1.16-.8,2.36-1.54,3.59-2.22,2.4-1.33,4.91-2.42,7.51-3.29,5.27-1.78,10.81-2.69,16.36-3.01,11.14-.64,22.36,.93,33.2,3.4,21.24,4.83,42.05,14.13,57.89,29.36,3.94,3.79,7.56,7.93,10.73,12.39,3.5,4.93,6.54,10.39,7.7,16.38,.96,4.96,.2,9.84-1.56,14.53-1.56,4.15-3.93,8.53-7.55,11.24-1.52,1.14-3.28,1.88-5.2,1.88-.6,0-.89,.63-.65,1.13,13.02,26.61,21.16,55.22,22.16,84.92,.24,7.25-.16,14.44-.34,21.68-.07,2.91,0,5.82-.17,8.72-.15,2.61-.32,5.61-1.61,7.95-1.52,2.77-4.97,4.37-7.72,5.6-4.33,1.94-8.93,3.29-13.5,4.49-9.36,2.46-18.89,4.02-28.38,5.86-.52,.1-.63,.7-.45,1.1,1.67,3.73,2.31,7.94,2.67,11.98,.24,2.67,.64,5.77,.07,8.42-.87,4.11-6.33,4.96-9.78,5.1-4.67,.2-9.38,0-14.02-.45-18.79-1.79-37.08-8.34-52.87-18.65-8.99-5.87-17.13-12.99-24.12-21.13-.63-.73-1.69,.33-1.06,1.06,12.99,15.12,29.92,26.62,48.6,33.5,9.41,3.46,19.25,5.73,29.22,6.7,4.89,.48,9.89,.75,14.8,.45,3.5-.22,7.86-1.07,9.89-4.27,1.7-2.68,1.08-6.81,.85-9.79-.35-4.63-1.04-9.41-2.96-13.68l-.45,1.1c8.58-1.66,17.19-3.08,25.68-5.17,4.81-1.19,9.62-2.52,14.24-4.35,3.29-1.31,6.92-2.85,9.38-5.5,3.26-3.5,3.06-9.4,3.13-13.86,.11-6.93,.54-13.85,.51-20.79-.06-14.77-1.72-29.53-5.07-43.92-3.86-16.59-9.93-32.56-17.41-47.84l-.65,1.13c5.23,0,9.08-4.44,11.52-8.59,2.87-4.87,4.87-10.73,4.73-16.43-.18-7.55-3.71-14.6-7.94-20.68-3.92-5.64-8.53-10.79-13.63-15.39-10.25-9.24-22.39-16.18-35.21-21.2-13.03-5.1-26.96-8.42-40.91-9.63-15.49-1.35-32.14,.43-44.66,10.47l.73-.19c-21.34-5.5-43.23-8.83-65.24-9.88-5.53-.26-11.07-.38-16.61-.36-4.34,.02-8.82-.1-13.07,.9-3.49,.82-6.95,2.61-8.56,5.97-2.04,4.24-1.04,9.63-.52,14.11,1.36,11.81,4.36,23.39,8.89,34.38l.92-.92c-9.29-1.47-19.17-2.4-28.39,0-4.15,1.08-8.15,2.96-11.3,5.92-3.85,3.62-5.94,8.52-6.69,13.69-.89,6.13-.48,12.49-.08,18.65s1.14,12.56,2.43,18.72c2.41,11.47,6.88,22.58,14.4,31.67,7.52,9.09,17.93,16.03,29.75,17.73,.94,.14,1.35-1.31,.4-1.45h0Z"/>
  <path d="M607.64,388.71c-7.47-1.04-15.54-2.22-21.69-6.94-7.31-5.6-11.3-15.2-13.94-23.72-3.42-11.03-4.56-22.62-4.87-34.11-.15-5.53-.22-11.32,1.79-16.57,1.73-4.51,5-8.56,8.82-11.48,8.42-6.43,19.61-7.43,29.78-5.85,.49,.08,1.17-.33,.92-.92-2.16-5.26-3.47-10.74-3.97-16.4s-.45-11.04-.76-16.56c-.17-2.95-.63-6.1,.33-8.97,.83-2.46,2.75-4.2,5.08-5.24,4.98-2.2,10.89-1.73,16.19-1.89,25.78-.76,51.84-2.42,77.13,3.86,.48,.12,1.24,.48,1.75,.34,.39-.1,.86-.62,1.16-.83,1.04-.77,2.13-1.46,3.26-2.07,2.14-1.16,4.42-2.02,6.78-2.65,5-1.33,10.23-1.58,15.38-1.37,10.62,.43,21.26,2.52,31.7,4.38,21.19,3.78,42.21,11.72,59.08,25.34,8.37,6.76,16.14,15.06,21.18,24.63,2.77,5.27,4.73,11.44,3.77,17.45-.78,4.88-3.6,9.64-7.8,12.33-2.12,1.36-4.51,2.08-7.03,2.08-.6,0-.89,.63-.65,1.13,11.2,22.91,18.41,47.76,21.21,73.11,1.39,12.56,1.73,25.24,.94,37.85-.38,6.02-1.24,12.26-5.22,17.05-3.27,3.93-7.91,6.45-12.74,7.97-13.41,4.22-27.67,.44-41.32,3-.52,.1-.63,.7-.45,1.1,2.37,5.16,4.75,10.32,7.12,15.48,1.82,3.96,6.2,10.45,1.24,13.78-3.3,2.21-7.75,2.04-11.54,2.02-4.48-.02-8.96-.32-13.41-.88-18.04-2.27-35.52-8.91-50.62-19.03-8.54-5.72-16.28-12.58-22.98-20.38-.63-.73-1.69,.33-1.06,1.06,12.49,14.54,28.63,25.73,46.47,32.69,8.99,3.51,18.39,5.9,27.96,7.13,4.75,.61,9.53,.92,14.32,.91,3.87,0,8.25,0,11.61-2.23,1.6-1.06,2.75-2.62,3.03-4.54,.43-2.89-1.14-5.66-2.31-8.19-2.85-6.19-5.7-12.39-8.55-18.58l-.45,1.1c12.86-2.41,26.14,.85,38.91-2.32,4.87-1.21,9.64-3.28,13.45-6.61,4.19-3.67,6.46-8.63,7.35-14.07,1.02-6.19,1.05-12.63,1.08-18.89,.03-6.58-.24-13.16-.79-19.72-1.1-13.01-3.34-25.93-6.68-38.55-3.74-14.13-8.88-27.88-15.3-41.01l-.65,1.13c6.02,.02,11.14-3.88,13.99-9,3.33-5.97,3.11-12.96,.92-19.29-2.32-6.72-6.5-12.71-11.04-18.12-4.35-5.19-9.3-9.86-14.66-14-10.71-8.28-22.99-14.39-35.79-18.71s-26.44-6.51-39.91-8.56c-13.84-2.11-30.02-3.71-41.71,5.63l.73-.19c-20.73-5.32-42.09-5.43-63.35-4.76-5.36,.17-10.72,.37-16.08,.53-4.41,.13-8.95-.05-13.28,1.02-3.51,.86-6.91,2.73-8.47,6.14-1.91,4.17-.82,9.27-.65,13.67,.2,5.01,.21,10.04,.77,15.03s1.86,10.23,3.85,15.08l.92-.92c-9.36-1.46-19.41-.89-27.79,3.91-3.97,2.27-7.35,5.45-9.9,9.24-3.18,4.71-4.38,10.03-4.61,15.65-.25,6.08,.12,12.25,.67,18.31s1.44,11.99,2.9,17.85,3.4,11.34,6.05,16.63c1.93,3.86,4.26,7.6,7.35,10.65,6.59,6.49,15.84,8.11,24.65,9.33,.94,.13,1.35-1.31,.4-1.45h0Z"/>
</svg>