<svg width="29" height="25" viewBox="0 0 29 25" fill="none" xmlns="http://www.w3.org/2000/svg">
<path d="M23.7558 21.824C21.7189 21.989 20.1588 21.4509 19.0755 20.2096C17.9922 18.9683 17.3295 17.4861 17.0873 15.763C16.7951 13.6835 16.9313 11.6346 17.4959 9.61636C18.1115 7.53037 19.0025 5.67836 20.1686 4.06031C21.3348 2.44227 22.6824 1.25314 24.2115 0.492934L26.7638 3.13342C26.0666 3.77672 25.3944 4.59827 24.7472 5.59806C24.1511 6.53009 23.6228 7.51319 23.1622 8.54735C22.7611 9.57316 22.5085 10.5781 22.4044 11.5622C23.4823 11.4713 24.4408 11.6092 25.28 11.976C26.1109 12.2833 26.7844 12.7643 27.3005 13.4188C27.8166 14.0734 28.1456 14.9057 28.2876 15.9157C28.5214 17.5794 28.2001 18.9575 27.3236 20.0501C26.4388 21.0833 25.2495 21.6746 23.7558 21.824ZM7.00042 24.1788C4.91251 24.4116 3.3269 23.9074 2.2436 22.6661C1.15195 21.3653 0.485045 19.8534 0.242884 18.1304C-0.0493796 16.0508 0.0867947 14.0019 0.651407 11.9837C1.26709 9.89771 2.15801 8.04569 3.32417 6.42765C4.49033 4.8096 5.83795 3.62047 7.36703 2.86027L9.91935 5.50076C9.2221 6.14406 8.54989 6.9656 7.90274 7.9654C7.30665 8.89743 6.77833 9.88052 6.31778 10.9147C5.91664 11.9405 5.66404 12.9454 5.55998 13.9295C6.63782 13.8386 7.59635 13.9765 8.43556 14.3433C9.26642 14.6507 9.93991 15.1316 10.456 15.7862C10.9721 16.4407 11.3012 17.273 11.4431 18.2831C11.6769 19.9467 11.3217 21.2993 10.3775 22.3409C9.49269 23.3741 8.36699 23.9867 7.00042 24.1788Z" fill="#1E1E1E"/>
</svg>
