<svg width="21" height="21" viewBox="0 0 21 21" fill="none" xmlns="http://www.w3.org/2000/svg">
<path d="M10.5 0.00012207C8.4233 0.00012207 6.39323 0.615936 4.66652 1.76969C2.9398 2.92345 1.59399 4.56332 0.799269 6.48194C0.00454948 8.40057 -0.203386 10.5118 0.201759 12.5486C0.606904 14.5854 1.60693 16.4563 3.07538 17.9247C4.54383 19.3932 6.41476 20.3932 8.45156 20.7984C10.4884 21.2035 12.5996 20.9956 14.5182 20.2009C16.4368 19.4061 18.0767 18.0603 19.2304 16.3336C20.3842 14.6069 21 12.5768 21 10.5001C21 9.12124 20.7284 7.75586 20.2007 6.48194C19.6731 5.20803 18.8996 4.05051 17.9246 3.0755C16.9496 2.10049 15.7921 1.32706 14.5182 0.799387C13.2443 0.271713 11.8789 0.00012207 10.5 0.00012207ZM16.4598 8.64897L10.1598 14.424C9.96034 14.6069 9.69796 14.7057 9.4274 14.6998C9.15684 14.6939 8.899 14.5838 8.70765 14.3925L5.55765 11.2425C5.45737 11.1456 5.37738 11.0297 5.32235 10.9016C5.26732 10.7735 5.23835 10.6358 5.23714 10.4963C5.23593 10.3569 5.2625 10.2187 5.31529 10.0896C5.36809 9.96058 5.44605 9.84334 5.54464 9.74475C5.64323 9.64617 5.76046 9.5682 5.8895 9.51541C6.01854 9.46261 6.15681 9.43604 6.29623 9.43726C6.43564 9.43847 6.57342 9.46743 6.70153 9.52246C6.82963 9.57749 6.94549 9.65748 7.04235 9.75777L9.4815 12.1969L15.0402 7.10127C15.2454 6.91302 15.5171 6.81401 15.7953 6.82602C16.0735 6.83803 16.3356 6.96008 16.5239 7.16532C16.7121 7.37056 16.8111 7.64217 16.7991 7.92041C16.7871 8.19865 16.665 8.46072 16.4598 8.64897Z" fill="#488CE1"/>
</svg>
