<svg width="78" height="80" viewBox="0 0 78 80" fill="none" xmlns="http://www.w3.org/2000/svg">
<path d="M39.3397 40.6794C50.573 40.6794 59.6794 31.573 59.6794 20.3397C59.6794 9.1064 50.573 0 39.3397 0C28.1064 0 19 9.1064 19 20.3397C19 31.573 28.1064 40.6794 39.3397 40.6794Z" fill="url(#paint0_linear_1125_8587)"/>
<path d="M40.1238 9.53609L41.6396 13.38C42.4801 15.5113 44.1671 17.1982 46.2984 18.0388L50.1423 19.5545C50.8538 19.835 50.8538 20.8419 50.1423 21.1224L46.2984 22.6381C44.1671 23.4787 42.4801 25.1657 41.6396 27.2969L40.1238 31.1408C39.8434 31.8524 38.8365 31.8524 38.556 31.1408L37.0403 27.2969C36.1997 25.1657 34.5127 23.4787 32.3814 22.6381L28.5376 21.1224C27.826 20.8419 27.826 19.835 28.5376 19.5545L32.3814 18.0388C34.5127 17.1982 36.1997 15.5113 37.0403 13.38L38.556 9.53609C38.8365 8.82456 39.8434 8.82456 40.1238 9.53609Z" fill="#EDF0F4"/>
<path d="M0 73.3692V51H4.74593L11.2953 62.8016L17.7814 51H22.4008V73.3692H19.047V54.86L11.9598 67.8322H10.5043L3.35379 54.86V73.3692H0Z" fill="#1E1E1E"/>
<path d="M26.3881 73.3692V56.6951H29.647V68.4967C29.7947 68.2436 29.9845 67.9693 30.2165 67.674C30.4485 67.3576 30.6278 67.1045 30.7544 66.9147L38.3795 56.6951H41.4169V73.3692H38.158V61.6309C37.9893 61.9051 37.81 62.1793 37.6202 62.4535C37.4303 62.7066 37.251 62.9387 37.0823 63.1496L29.4572 73.3692H26.3881Z" fill="#1E1E1E"/>
<path d="M44.7576 79.444V56.6951H47.8583L48.0165 59.0997C48.6071 58.2138 49.3875 57.5599 50.3578 57.1381C51.3281 56.6951 52.3617 56.4736 53.4585 56.4736C55.1037 56.4736 56.4642 56.8533 57.54 57.6127C58.6157 58.372 59.4173 59.395 59.9446 60.6817C60.4719 61.9684 60.7356 63.4238 60.7356 65.048C60.7356 66.6721 60.4614 68.1275 59.913 69.4142C59.3856 70.7009 58.563 71.7134 57.4451 72.4516C56.3482 73.1899 54.9455 73.559 53.237 73.559C52.4144 73.559 51.6761 73.4746 51.0222 73.3059C50.3684 73.1371 49.7988 72.8946 49.3137 72.5782C48.8286 72.2407 48.3962 71.8821 48.0165 71.5024V79.444H44.7576ZM52.8573 70.6482C53.9964 70.6482 54.9034 70.395 55.5783 69.8888C56.2533 69.3615 56.7385 68.676 57.0338 67.8322C57.3291 66.9885 57.4767 66.071 57.4767 65.0796C57.4767 64.046 57.3185 63.1074 57.0021 62.2637C56.7068 61.3989 56.2111 60.7133 55.5151 60.2071C54.8401 59.6798 53.9331 59.4161 52.7941 59.4161C51.7605 59.4161 50.8851 59.6798 50.168 60.2071C49.4508 60.7133 48.9024 61.3989 48.5227 62.2637C48.1641 63.1285 47.9848 64.0671 47.9848 65.0796C47.9848 66.1132 48.1536 67.0623 48.4911 67.9272C48.8497 68.7709 49.3875 69.4353 50.1047 69.9205C50.843 70.4056 51.7605 70.6482 52.8573 70.6482Z" fill="#1E1E1E"/>
<path d="M68.5956 73.559C67.8573 73.559 67.1401 73.4641 66.4441 73.2742C65.748 73.0633 65.1257 72.7575 64.5773 72.3567C64.0289 71.9348 63.586 71.4181 63.2485 70.8064C62.9321 70.1736 62.7739 69.4353 62.7739 68.5916C62.7739 67.5791 62.9637 66.746 63.3434 66.0921C63.7442 65.4171 64.2715 64.9003 64.9254 64.5417C65.5792 64.1621 66.328 63.8984 67.1718 63.7507C68.0366 63.582 68.933 63.4976 69.8611 63.4976H73.9426C73.9426 62.675 73.8161 61.9578 73.563 61.3461C73.3098 60.7133 72.9091 60.2282 72.3607 59.8907C71.8333 59.5321 71.1267 59.3528 70.2408 59.3528C69.7135 59.3528 69.2072 59.4161 68.7221 59.5427C68.2581 59.6481 67.8573 59.8274 67.5198 60.0806C67.1823 60.3337 66.9503 60.6712 66.8237 61.093H63.4067C63.5332 60.2915 63.818 59.606 64.2609 59.0364C64.7039 58.4458 65.2523 57.9607 65.9062 57.581C66.5601 57.2014 67.2561 56.9271 67.9944 56.7584C68.7537 56.5686 69.5236 56.4736 70.3041 56.4736C71.9072 56.4736 73.2044 56.79 74.1958 57.4228C75.2082 58.0556 75.9465 58.9626 76.4105 60.1438C76.8746 61.325 77.1066 62.7277 77.1066 64.3519V73.3692H74.2907L74.1641 71.3126C73.679 71.9243 73.12 72.3989 72.4872 72.7364C71.8755 73.0528 71.2322 73.2637 70.5572 73.3692C69.8822 73.4957 69.2283 73.559 68.5956 73.559ZM69.1651 70.8064C70.1353 70.8064 70.9791 70.6482 71.6962 70.3318C72.4134 69.9943 72.9618 69.5197 73.3415 68.908C73.7423 68.2752 73.9426 67.5264 73.9426 66.6616V65.9971H70.9685C70.3568 65.9971 69.7557 66.0182 69.1651 66.0604C68.5745 66.0815 68.0366 66.1659 67.5514 66.3135C67.0874 66.4401 66.7183 66.6616 66.4441 66.978C66.1699 67.2944 66.0327 67.7479 66.0327 68.3385C66.0327 68.908 66.1804 69.372 66.4757 69.7306C66.771 70.0892 67.1612 70.3634 67.6464 70.5532C68.1315 70.722 68.6377 70.8064 69.1651 70.8064Z" fill="#1E1E1E"/>
<defs>
<linearGradient id="paint0_linear_1125_8587" x1="52.9026" y1="11.2256" x2="19.1349" y2="33.9166" gradientUnits="userSpaceOnUse">
<stop stop-color="#4EB97F"/>
<stop offset="1" stop-color="#488CE1"/>
</linearGradient>
</defs>
</svg>
