<svg width="52" height="52" viewBox="0 0 52 52" fill="none" xmlns="http://www.w3.org/2000/svg">
<circle cx="26" cy="26" r="26" fill="#488CE1"/>
<g clip-path="url(#clip0_1074_12563)">
<path d="M37.3137 14.6863C34.2917 11.6643 30.2738 10 26 10C21.7262 10 17.7083 11.6643 14.6863 14.6863C11.6643 17.7083 10 21.7262 10 26C10 30.2738 11.6643 34.2917 14.6863 37.3137C17.7083 40.3356 21.7262 42 26 42C30.2738 42 34.2917 40.3357 37.3137 37.3137C40.3357 34.2917 42 30.2738 42 26C42 21.7262 40.3357 17.7083 37.3137 14.6863ZM26 38.8595C18.9092 38.8595 13.1405 33.0907 13.1405 26C13.1405 25.9884 13.1409 25.9769 13.1409 25.9654C13.1409 25.9624 13.1405 25.9596 13.1405 25.9567C13.1405 25.9518 13.1411 25.947 13.1412 25.9421C13.1724 18.9363 18.8341 13.2365 25.8252 13.1428C25.8399 13.1421 25.8544 13.1406 25.8692 13.1406C25.8781 13.1406 25.8867 13.1416 25.8955 13.1419C25.9304 13.1416 25.9651 13.1406 26.0001 13.1406C33.0909 13.1406 38.8596 18.9093 38.8596 26.0001C38.8596 33.0908 33.0908 38.8595 26 38.8595Z" fill="white"/>
<path d="M35.7679 26.7726C35.245 26.7726 34.8211 26.3488 34.8211 25.8259C34.8211 25.303 35.245 24.8791 35.7679 24.8791H36.909C36.373 19.6244 32.1114 15.4558 26.8158 15.0645V16.0579C26.8158 16.5808 26.3919 17.0046 25.869 17.0046C25.3462 17.0046 24.9223 16.5808 24.9223 16.0579V15.0871C19.705 15.5983 15.5492 19.781 15.079 25.01H16.101C16.6239 25.01 17.0478 25.4338 17.0478 25.9567C17.0478 26.4796 16.6239 26.9035 16.101 26.9035H15.0713C15.5066 32.2166 19.7457 36.4688 25.0532 36.9248V35.7246C25.0532 35.2018 25.477 34.7779 25.9999 34.7779C26.5228 34.7779 26.9467 35.2018 26.9467 35.7246V36.9248C32.2975 36.465 36.5625 32.1466 36.9384 26.7726H35.7679ZM29.8324 23.5065L26.6694 26.6696C26.4919 26.8471 26.2511 26.9469 26 26.9469C25.7489 26.9469 25.508 26.8471 25.3305 26.6696L19.8247 21.1638C19.455 20.7941 19.455 20.1946 19.8247 19.8249C20.1944 19.4551 20.7939 19.4551 21.1636 19.8249L26 24.6613L28.4937 22.1676C28.8634 21.7979 29.4628 21.7979 29.8325 22.1676C30.2022 22.5373 30.2022 23.1368 29.8324 23.5065Z" fill="white"/>
</g>
<defs>
<clipPath id="clip0_1074_12563">
<rect width="32" height="32" fill="white" transform="translate(10 10)"/>
</clipPath>
</defs>
</svg>
