<svg width="52" height="52" viewBox="0 0 52 52" fill="none" xmlns="http://www.w3.org/2000/svg">
<circle cx="26" cy="26" r="26" fill="#488CE1"/>
<path d="M13.8371 18.8754L24.7746 24.751C25.1421 24.9479 25.6175 25.0413 26.0958 25.0413C26.5742 25.0413 27.0496 24.9479 27.4171 24.751L38.3546 18.8754C39.0677 18.4919 39.7415 17 38.4333 17H13.7598C12.4517 17 13.1254 18.4919 13.8371 18.8754ZM38.6856 22.0881L27.4171 27.9608C26.9213 28.2204 26.5742 28.251 26.0958 28.251C25.6175 28.251 25.2704 28.2204 24.7746 27.9608C24.2788 27.7013 14.3723 22.5081 13.5629 22.0867C12.9942 21.7892 13 22.1377 13 22.406V33.0417C13 33.6542 13.8254 34.5 14.4583 34.5H37.7917C38.4246 34.5 39.25 33.6542 39.25 33.0417V22.4075C39.25 22.1392 39.2558 21.7906 38.6856 22.0881Z" fill="white"/>
</svg>
