<svg width="120" height="120" viewBox="0 0 120 120" fill="none" xmlns="http://www.w3.org/2000/svg">
<circle cx="60" cy="60" r="60" fill="white"/>
<g clip-path="url(#clip0_1074_12264)">
<mask id="mask0_1074_12264" style="mask-type:luminance" maskUnits="userSpaceOnUse" x="35" y="34" width="50" height="51">
<path d="M35 34.9999H85V84.9999H35V34.9999Z" fill="white"/>
</mask>
<g mask="url(#mask0_1074_12264)">
<path d="M52.9814 68.9913C52.9814 60.0713 60.2768 52.8552 69.2263 52.9839C77.8953 53.1087 84.9445 60.2181 84.9993 68.8878C85.03 73.743 82.8986 78.1007 79.5119 81.0563C79.1546 81.3682 79.2061 81.9375 79.6143 82.179L82.6309 83.9638C83.1186 84.2523 82.9138 85.0001 82.3472 84.9999L68.6873 84.9966C59.9858 84.8348 52.9814 77.7315 52.9814 68.9913Z" fill="#50B880"/>
<path d="M82.6317 83.9638L79.6151 82.179C79.2069 81.9374 79.1555 81.3682 79.5129 81.0563C82.8995 78.1006 85.0309 73.743 85.0002 68.8878C84.9454 60.2181 77.8962 53.1086 69.2271 52.9839C68.6371 52.9754 68.0545 52.9996 67.4805 53.0534C75.5569 53.8151 81.93 60.6461 81.9821 68.8878C82.0128 73.743 79.8813 78.1006 76.4947 81.0563C76.1374 81.3682 76.1888 81.9374 76.5971 82.179L79.6137 83.9638C80.0986 84.2507 79.8984 84.9912 79.3389 84.9991L82.348 84.9998C82.9146 85 83.1194 84.2524 82.6317 83.9638Z" fill="#50B880"/>
<path d="M69.603 52.994C69.4778 52.9893 69.3522 52.9857 69.2264 52.9839C60.2768 52.8551 52.9814 60.0712 52.9814 68.9913C52.9814 69.1957 52.9865 69.3989 52.9941 69.6016C61.7355 68.6788 68.6805 61.7353 69.603 52.994Z" fill="#50B880"/>
<path d="M67.0182 51.009C67.0182 42.089 59.7229 34.8729 50.7734 35.0016C42.1043 35.1264 35.0551 42.2358 35.0003 50.9055C34.9697 55.7607 37.101 60.1184 40.4877 63.074C40.8451 63.3859 40.7936 63.9552 40.3854 64.1967L37.3688 65.9815C36.8811 66.27 37.0859 67.0178 37.6525 67.0176L51.3123 67.0143C60.0138 66.8525 67.0182 59.7492 67.0182 51.009Z" fill="#488CE1"/>
<path d="M50.7733 35.0016C50.3453 35.0077 49.9214 35.0315 49.5019 35.0711C57.6348 35.8326 64.0001 42.6771 64.0001 51.009C64.0001 59.7492 56.9957 66.8524 48.2941 67.0143L37.6436 67.0168C37.6467 67.0168 37.6494 67.0176 37.6524 67.0176L51.3123 67.0143C60.0139 66.8524 67.0182 59.7492 67.0182 51.009C67.0182 42.0889 59.7229 34.8728 50.7733 35.0016Z" fill="#488CE1"/>
<path d="M49.3281 61.851C49.3281 62.7795 50.0808 63.5321 51.0091 63.5321C51.9376 63.5321 52.6901 62.7795 52.6901 61.851C52.6901 60.9226 51.9376 60.1701 51.0091 60.1701C50.0808 60.1701 49.3281 60.9226 49.3281 61.851Z" fill="white"/>
<path d="M51.0087 57.1559C50.1752 57.1559 49.4996 56.4803 49.4996 55.6468V50.2729C49.4996 49.4394 50.1752 48.7638 51.0087 48.7638C52.0134 48.7638 52.9482 48.3618 53.6412 47.632C54.3336 46.9027 54.6861 45.9461 54.6339 44.9385C54.5358 43.0508 52.9768 41.5423 51.0844 41.5042C49.2418 41.4669 47.667 42.8089 47.4137 44.6254C47.3902 44.7923 47.3785 44.9633 47.3785 45.1336C47.3785 45.967 46.7028 46.6427 45.8694 46.6427C45.036 46.6427 44.3604 45.967 44.3604 45.1336C44.3604 44.8241 44.382 44.5127 44.4245 44.2081C44.8828 40.9235 47.701 38.4853 51.0093 38.4853C51.0546 38.4853 51.0997 38.4858 51.1451 38.4867C54.6119 38.5565 57.4683 41.3217 57.6478 44.782C57.7435 46.6244 57.0978 48.3746 55.8299 49.7101C54.9318 50.6559 53.7722 51.3119 52.5178 51.6065V55.6468C52.5178 56.4803 51.8421 57.1559 51.0087 57.1559Z" fill="white"/>
<path d="M67.3096 68.991C67.3096 69.9194 68.0622 70.6721 68.9906 70.6721C69.919 70.6721 70.6717 69.9194 70.6717 68.991C70.6717 68.0626 69.919 67.3099 68.9906 67.3099C68.0622 67.3099 67.3096 68.0626 67.3096 68.991Z" fill="white"/>
<path d="M74.8555 68.991C74.8555 69.9194 75.6081 70.6721 76.5365 70.6721C77.4649 70.6721 78.2175 69.9194 78.2175 68.991C78.2175 68.0626 77.4649 67.3099 76.5365 67.3099C75.6081 67.3099 74.8555 68.0626 74.8555 68.991Z" fill="white"/>
<path d="M59.7646 68.991C59.7646 69.9194 60.5173 70.6721 61.4457 70.6721C62.3741 70.6721 63.1268 69.9194 63.1268 68.991C63.1268 68.0626 62.3741 67.3099 61.4457 67.3099C60.5173 67.3099 59.7646 68.0626 59.7646 68.991Z" fill="white"/>
</g>
</g>
<defs>
<clipPath id="clip0_1074_12264">
<rect width="50" height="50" fill="white" transform="translate(35 34.9999)"/>
</clipPath>
</defs>
</svg>
