<svg width="120" height="120" viewBox="0 0 120 120" fill="none" xmlns="http://www.w3.org/2000/svg">
<circle cx="60" cy="60" r="60" fill="white"/>
<path d="M49.913 44.775H64.0342H64.0361C64.8452 44.775 65.501 44.1189 65.501 43.3102C65.501 43.1831 65.4849 43.0603 65.4548 42.9432L63.9015 35.1776C63.7645 34.4929 63.1633 34 62.4652 34H51.482C50.7839 34 50.1827 34.4929 50.0457 35.1776L48.4767 43.0229C48.3905 43.4532 48.5023 43.8991 48.7804 44.2386C49.0585 44.5782 49.4743 44.775 49.913 44.775Z" fill="#488CE1"/>
<path d="M70.3106 40.2759H67.9093L68.3163 42.3115C68.3926 42.6384 68.4311 42.9737 68.4311 43.3102C68.4311 45.7332 66.4597 47.7047 64.0347 47.7047H49.9134C48.5916 47.7047 47.353 47.1184 46.5153 46.0964C45.6772 45.0741 45.345 43.7443 45.6044 42.4484L46.0388 40.2763H43.6375C40.667 40.2763 38.25 42.6929 38.25 45.6634V78.6129C38.25 81.5834 40.667 84 43.6375 84H70.3106C73.2811 84 75.6981 81.5834 75.6981 78.6129V45.6634C75.6981 42.6929 73.2811 40.2759 70.3106 40.2759ZM47.5602 51.1547H58.543C59.3521 51.1547 60.0079 51.8108 60.0079 52.6195C60.0079 53.4286 59.3521 54.0844 58.543 54.0844H47.5602C46.7511 54.0844 46.0953 53.4286 46.0953 52.6195C46.0953 51.8108 46.7511 51.1547 47.5602 51.1547ZM49.0246 60.4645C49.0246 60.8501 48.8682 61.2282 48.5958 61.5005C48.3235 61.7729 47.9454 61.9293 47.5598 61.9293C47.1749 61.9293 46.7968 61.7729 46.5245 61.5005C46.2521 61.2282 46.0957 60.8501 46.0957 60.4645C46.0957 60.0788 46.2521 59.7019 46.5245 59.4292C46.7968 59.156 47.1749 58.9996 47.5598 58.9996C47.9454 58.9996 48.3235 59.156 48.5958 59.4292C48.8682 59.7019 49.0246 60.0788 49.0246 60.4645ZM48.5958 77.1911C48.3235 77.4635 47.9454 77.6195 47.5605 77.6195C47.1749 77.6195 46.7968 77.4635 46.5245 77.1911C46.2521 76.9176 46.0949 76.5407 46.0949 76.1547C46.0949 75.7694 46.2521 75.3921 46.5245 75.119C46.7968 74.8463 47.1749 74.6898 47.5605 74.6898C47.9454 74.6898 48.3235 74.8463 48.5958 75.119C48.8682 75.3921 49.0246 75.7694 49.0246 76.1547C49.0246 76.5407 48.8682 76.9176 48.5958 77.1911ZM48.5958 69.3455C48.3235 69.6186 47.9454 69.775 47.5598 69.775C47.1749 69.775 46.7968 69.6186 46.5245 69.3455C46.2509 69.0727 46.0949 68.6958 46.0949 68.3102C46.0949 67.9245 46.2509 67.5464 46.5245 67.2741C46.7968 67.0017 47.1749 66.8453 47.5598 66.8453C47.9454 66.8453 48.3235 67.0017 48.5958 67.2741C48.8682 67.5464 49.0254 67.9245 49.0254 68.3102C49.0254 68.6951 48.8682 69.0731 48.5958 69.3455ZM66.388 77.6195H55.4051C54.596 77.6195 53.9402 76.9638 53.9402 76.1547C53.9402 75.346 54.596 74.6898 55.4051 74.6898H66.388C67.1971 74.6898 67.8528 75.346 67.8528 76.1547C67.8528 76.9638 67.1971 77.6195 66.388 77.6195ZM66.388 69.7746H55.4051C54.596 69.7746 53.9402 69.1189 53.9402 68.3098C53.9402 67.5011 54.596 66.8449 55.4051 66.8449H66.388C67.1971 66.8449 67.8528 67.5011 67.8528 68.3098C67.8528 69.1189 67.1971 69.7746 66.388 69.7746ZM66.388 61.9297H55.4051C54.596 61.9297 53.9402 61.2739 53.9402 60.4648C53.9402 59.6557 54.596 59 55.4051 59H66.388C67.1971 59 67.8528 59.6557 67.8528 60.4648C67.8528 61.2739 67.1971 61.9297 66.388 61.9297Z" fill="#50B880"/>
</svg>
