<svg width="120" height="120" viewBox="0 0 120 120" fill="none" xmlns="http://www.w3.org/2000/svg">
<circle cx="60" cy="60" r="60" fill="white"/>
<g clip-path="url(#clip0_1074_12257)">
<circle cx="60.4712" cy="61.4149" r="13.2075" fill="white"/>
<path d="M71.3318 45.0127H70.0825V42.283C71.8037 41.6748 72.8365 39.9143 72.5276 38.1149C72.2187 36.3151 70.6587 34.9999 68.8328 34.9999C67.0068 34.9999 65.4468 36.3151 65.1379 38.1149C64.829 39.9143 65.8619 41.6748 67.583 42.283V45.0127H52.5876V42.283C54.3092 41.6748 55.3416 39.9143 55.0331 38.1149C54.7242 36.3151 53.1642 34.9999 51.3383 34.9999C49.5124 34.9999 47.9519 36.3151 47.6434 38.1149C47.3345 39.9143 48.3669 41.6748 50.0885 42.283V45.0127H48.8387C45.3896 45.0163 42.5945 47.8115 42.5908 51.2606V72.5039C42.5945 75.9535 45.3896 78.7487 48.8387 78.7523H52.5876V83.7505C52.5881 84.2049 52.8347 84.6232 53.2319 84.8433C53.6291 85.0634 54.1147 85.0506 54.4995 84.8099L64.1929 78.7523H71.3318C74.7814 78.7491 77.577 75.9535 77.5802 72.5039V51.2606C77.577 47.8115 74.7814 45.0159 71.3318 45.0127ZM53.8374 52.5104C55.9067 52.5127 57.5839 54.1898 57.5862 56.2592C57.5862 56.9493 57.027 57.5085 56.3364 57.5085C55.6464 57.5085 55.0871 56.9493 55.0871 56.2592C55.0871 55.5691 54.5275 55.0095 53.8374 55.0095C53.1473 55.0095 52.5876 55.5691 52.5876 56.2592C52.5876 56.9493 52.0284 57.5085 51.3383 57.5085C50.6482 57.5085 50.0885 56.9493 50.0885 56.2592C50.0908 54.1898 51.768 52.5127 53.8374 52.5104ZM69.3915 67.9986C66.4833 69.3701 63.3006 70.0616 60.0853 70.0195C56.87 70.0616 53.6877 69.3706 50.7791 67.9986C50.1617 67.6902 49.9119 66.9392 50.2203 66.3219C50.5292 65.7046 51.2797 65.4542 51.897 65.7631C56.5648 68.0961 63.6072 68.0961 68.274 65.7631C68.8913 65.4542 69.6418 65.7046 69.9507 66.3219C70.2592 66.9392 70.0089 67.6902 69.3915 67.9986ZM68.8328 57.5085C68.5014 57.509 68.1834 57.3772 67.9491 57.1429C67.7148 56.9086 67.583 56.5905 67.583 56.2592C67.583 55.5691 67.0238 55.0095 66.3337 55.0095C65.6436 55.0095 65.0839 55.5691 65.0839 56.2592C65.0839 56.9493 64.5247 57.5085 63.8341 57.5085C63.1441 57.5085 62.5848 56.9493 62.5848 56.2592C62.5848 54.1885 64.2629 52.5104 66.3337 52.5104C68.404 52.5104 70.0825 54.1885 70.0825 56.2592C70.0825 56.5905 69.9512 56.9086 69.7164 57.1429C69.4821 57.3772 69.1641 57.509 68.8328 57.5085Z" fill="#50B880"/>
<path d="M81.3298 55.0095H80.0801V67.5058H81.3298C83.3992 67.5035 85.0764 65.8263 85.0787 63.7569V58.7583C85.0764 56.6889 83.3992 55.0117 81.3298 55.0095Z" fill="#488CE1"/>
<path d="M35.0938 58.7583V63.7569C35.096 65.8263 36.7732 67.5035 38.8426 67.5058H40.0924V55.0095H38.8426C36.7732 55.0117 35.096 56.6889 35.0938 58.7583Z" fill="#488CE1"/>
</g>
<defs>
<clipPath id="clip0_1074_12257">
<rect width="50" height="50" fill="white" transform="translate(35 34.9999)"/>
</clipPath>
</defs>
</svg>
