<?xml version="1.0" encoding="utf-8"?><svg viewBox="0 0 20 22" xmlns="http://www.w3.org/2000/svg" xmlns:xlink="http://www.w3.org/1999/xlink"><style>:root>svg{display:none}:root>svg:target{display:block}</style><svg viewBox="0 0 20 22" id="benefits" xmlns="http://www.w3.org/2000/svg"><path d="M18.102 7.914v-.467a1.352 1.352 0 001.046-1.31c0-.739-.607-1.345-1.349-1.345a1.35 1.35 0 00-1.345 1.345c0 .613.411 1.126.972 1.286v.491c0 .335-.275.61-.61.61h-3.763V9.2h3.763a1.29 1.29 0 001.286-1.286zM15.534 4.76v-.467a1.352 1.352 0 001.045-1.31 1.348 1.348 0 00-2.694 0c0 .613.412 1.126.973 1.286v.491c0 .335-.275.61-.61.61h-1.195v.676h1.195a1.29 1.29 0 001.286-1.286zm2.568 11.622v-.467c0-.707-.579-1.282-1.283-1.282h-3.763v.676h3.763c.335 0 .61.275.61.61v.491a1.343 1.343 0 00-.972 1.286 1.35 1.35 0 001.345 1.345c.742 0 1.349-.606 1.349-1.345a1.367 1.367 0 00-1.05-1.314zm-3.137 2.251v-.466c0-.712-.575-1.283-1.282-1.283h-.627v.676h.627a.61.61 0 01.61.61v.488a1.349 1.349 0 00-.969 1.29 1.345 1.345 0 002.69 0 1.363 1.363 0 00-1.049-1.315zm2.795-5.373c.742 0 1.349-.607 1.349-1.349 0-.739-.607-1.341-1.349-1.341-.62 0-1.146.428-1.293 1.007h-3.411v.676h3.411c.15.578.67 1.007 1.293 1.007zM9.432.71a2.924 2.924 0 00-2.917 2.946c0 .167.028.334.056.498a2.896 2.896 0 00-1-.167A2.924 2.924 0 002.703 7.44c.003.004.01.007.014.01a2.579 2.579 0 001.892.81c.188 0 .338.149.338.337 0 .188-.15.338-.338.338a3.27 3.27 0 01-2.039-.707A2.9 2.9 0 00.85 10.88c0 1.362.944 2.526 2.223 2.833a2.767 2.767 0 00-.418 1.498c0 1.583 1.307 2.917 2.917 2.917.146 0 .292-.014.439-.035a3.22 3.22 0 012.199-2.101 3.228 3.228 0 01-.879-1.478 2.412 2.412 0 01-1.09.513c-.021.003-.042.007-.063.007a.34.34 0 01-.063-.673c.478-.09.868-.37 1.119-.742a.294.294 0 01.077-.136c.184-.335.264-.732.195-1.147a.34.34 0 11.669-.111 2.448 2.448 0 01-.272 1.606c.094 1.349 1.21 2.387 2.59 2.387.187 0 .337.15.337.338 0 .189-.15.339-.338.339a3.318 3.318 0 01-1.488-.349 2.56 2.56 0 00-2.436 2.095 2.916 2.916 0 002.868 2.404c1.61 0 2.945-1.307 2.945-2.917v-7.443c-.084.006-.167.017-.247.017a2.554 2.554 0 01-2.331-1.509c-.391.227-.83.345-1.29.345-.045 0-.09 0-.136-.003a.337.337 0 01-.32-.356.341.341 0 01.355-.32 1.92 1.92 0 001.37-.481c.38-.338.602-.809.627-1.321a.339.339 0 01.676.035 2.556 2.556 0 01-.722 1.662c.15.429.436.788.83 1.014.362.21.777.286 1.191.23V3.656A2.956 2.956 0 009.432.71z"/></svg><svg viewBox="0 0 15 16" id="enter" xmlns="http://www.w3.org/2000/svg"><g clip-path="url(#ba)"><path d="M13.639.01C13.623.009 13.61 0 13.594 0H6.875C5.841 0 5 .897 5 2v.667c0 .368.28.666.625.666s.625-.298.625-.666V2c0-.367.28-.667.625-.667h2.912l-.19.068c-.507.187-.847.696-.847 1.266v10H6.875c-.344 0-.625-.3-.625-.667v-1.333c0-.368-.28-.667-.625-.667S5 10.299 5 10.667V12c0 1.103.841 2 1.875 2H8.75v.667C8.75 15.402 9.31 16 10 16c.134 0 .26-.02.398-.066l3.755-1.335c.507-.187.847-.696.847-1.266v-12c0-.777-.628-1.386-1.361-1.323z"/><path d="M6.692 6.195l-2.5-2.666a.597.597 0 00-.681-.145.67.67 0 00-.386.616v2h-2.5C.28 6 0 6.299 0 6.667c0 .368.28.666.625.666h2.5v2c0 .27.152.513.386.616a.597.597 0 00.68-.144l2.5-2.667a.697.697 0 000-.943z"/></g><defs><clipPath id="ba"><path d="M0 0h15v16H0z"/></clipPath></defs></svg></svg>